<svg xmlns="http://www.w3.org/2000/svg" width="38.45" height="45" viewBox="0 0 38.45 45">
  <g id="premium-badge" transform="translate(-26.93)">
    <path id="Path_11328" data-name="Path 11328" d="M65.2,38.235l-5.89-10.124c1.019-.311,2.105-.586,2.556-1.365.752-1.3-.587-3.427-.235-4.819.362-1.432,2.5-2.671,2.5-4.127,0-1.418-2.21-3.075-2.572-4.5-.354-1.391.981-3.523.226-4.819s-3.267-1.19-4.3-2.185c-1.064-1.024-1.061-3.53-2.344-4.216s-3.383.7-4.814.374C48.914,2.13,47.65,0,46.173,0c-1.5,0-3.885,2.416-4.259,2.5-1.43.332-3.528-1.056-4.815-.365s-1.274,3.195-2.337,4.221c-1.033,1-3.545.9-4.3,2.193s.587,3.427.235,4.819-2.564,2.81-2.564,4.424c0,1.456,2.142,2.691,2.507,4.122.354,1.391-.98,3.523-.226,4.819a3.711,3.711,0,0,0,2.273,1.274c.109.032.314.154.175.357L27.1,38.309a.821.821,0,0,0,.735,1.34l3.975.166a3.164,3.164,0,0,1,2.264,1.312L36.2,44.493a.821.821,0,0,0,1.529-.029s5.934-10.245,5.937-10.248c.119-.139.239-.111.3-.062a4.108,4.108,0,0,0,2.31,1.1,3.554,3.554,0,0,0,2.105-1.1c.055-.047.19-.143.288.057l5.929,10.192a.821.821,0,0,0,1.528.026l2.115-3.369A3.164,3.164,0,0,1,60.5,39.75l3.974-.173A.821.821,0,0,0,65.2,38.235ZM52.741,29.02a13.172,13.172,0,1,1-.264-22.965l.1.055.139.078a13.2,13.2,0,0,1,.027,22.833Z" transform="translate(0)" fill="#f3601e"/>
    <path id="Union_5" data-name="Union 5" d="M5.6,20.755c-.129-.076-.258-.155-.385-.234A11.1,11.1,0,0,1,16.683,1.5l.054.031A11.107,11.107,0,0,1,5.6,20.755Z" transform="translate(34.998 6.505)" fill="#f3601e"/>
    <path id="Path_11332" data-name="Path 11332" d="M2.9-5.252H4.026a2.012,2.012,0,0,0,1.348-.441,1.572,1.572,0,0,0,.5-1.253,1.713,1.713,0,0,0-.414-1.227,1.666,1.666,0,0,0-1.265-.437,1.762,1.762,0,0,0-1.223.429,1.434,1.434,0,0,0-.479,1.12H.646A2.794,2.794,0,0,1,1.1-8.609,3.036,3.036,0,0,1,2.359-9.7a4.107,4.107,0,0,1,1.812-.391,3.8,3.8,0,0,1,2.6.832,2.919,2.919,0,0,1,.946,2.313,2.35,2.35,0,0,1-.475,1.4,2.977,2.977,0,0,1-1.227.991,2.713,2.713,0,0,1,1.386.98,2.683,2.683,0,0,1,.475,1.6A2.97,2.97,0,0,1,6.856.392a3.966,3.966,0,0,1-2.685.881A3.936,3.936,0,0,1,1.558.422,2.8,2.8,0,0,1,.54-1.841H2.386a1.544,1.544,0,0,0,.49,1.185A1.858,1.858,0,0,0,4.193-.2,1.916,1.916,0,0,0,5.545-.656a1.71,1.71,0,0,0,.494-1.322,1.727,1.727,0,0,0-.516-1.344,2.208,2.208,0,0,0-1.534-.471H2.9Z" transform="translate(41.434 22.212)" fill="#fff"/>
  </g>
</svg>
