<svg xmlns="http://www.w3.org/2000/svg" width="60" height="60" viewBox="0 0 60 60"><defs><style>.a{fill:#4080fe;}</style></defs><g transform="translate(0 -0.001)"><g transform="translate(0 0.001)"><g transform="translate(0)"><path class="a" d="M59.917,58.239l-7.826-20.87a1.3,1.3,0,0,0-1.221-.847H38.911l4.5-7.94a49.647,49.647,0,0,0,2.341-4.84,18.467,18.467,0,0,0,1.2-6.2C46.957,7.871,39.35,0,30,0S13.044,7.871,13.044,17.544a18.35,18.35,0,0,0,1.213,6.2A50.5,50.5,0,0,0,16.6,28.583l4.5,7.94H9.131a1.307,1.307,0,0,0-1.222.847L.083,58.239A1.3,1.3,0,0,0,1.305,60H58.7a1.3,1.3,0,0,0,1.221-1.762ZM18.868,27.3a48.87,48.87,0,0,1-2.2-4.534,15.773,15.773,0,0,1-1.019-5.217C15.653,9.31,22.09,2.61,30,2.61s14.348,6.7,14.348,14.935a16.094,16.094,0,0,1-1.011,5.219A47.078,47.078,0,0,1,41.144,27.3l-5.593,9.862c-.005.009-.014.017-.02.026l-5.379,9.494a1.163,1.163,0,0,1-.151.217,1.246,1.246,0,0,1-.15-.214l-5.382-9.5a0,0,0,0,0,0,0ZM3.187,57.392l6.848-18.261H22.574l5,8.834,0,.005,1.282,2.263a1.358,1.358,0,0,0,2.27,0l1.286-2.27h0l5.011-8.832H49.967l6.848,18.261Z" transform="translate(0 -0.001)"/><path class="a" d="M146.265,57.131a9.13,9.13,0,1,0-9.13,9.13A9.141,9.141,0,0,0,146.265,57.131Zm-15.652,0a6.522,6.522,0,1,1,6.522,6.522A6.529,6.529,0,0,1,130.613,57.131Z" transform="translate(-107.134 -40.175)"/></g></g></g></svg>