<svg id="Logo" xmlns="http://www.w3.org/2000/svg" width="286.349" height="73.5" viewBox="0 0 286.349 73.5">
  <g id="Layer_1" data-name="Layer 1">
    <path id="Path_1" data-name="Path 1" d="M323.106,88.576V108.89h-9.059v-20.3a6.692,6.692,0,0,0-.529-2.635,6.852,6.852,0,0,0-1.461-2.18,7.2,7.2,0,0,0-2.158-1.461,6.611,6.611,0,0,0-2.625-.526,6.945,6.945,0,0,0-2.684.526,7.091,7.091,0,0,0-2.18,1.461,6.852,6.852,0,0,0-1.451,2.18,6.541,6.541,0,0,0-.539,2.635v20.3H291.36v-20.4a15.832,15.832,0,0,1,5.151-11.709v.025a16.085,16.085,0,0,1,13.867-3.849c.274.05.539.121.8.193a14.082,14.082,0,0,1,2.217.754,15.329,15.329,0,0,1,1.4.685,11.575,11.575,0,0,1,1.246.754q.646.436,1.246.934c.361.3.7.623,1.028.934a16.192,16.192,0,0,1,3.419,4.9c.05.112.1.221.143.336A15.465,15.465,0,0,1,323.106,88.576Z" transform="translate(-200.626 -50.032)" fill="#4080fe"/>
    <path id="Path_2" data-name="Path 2" d="M445.918,94.985a10.277,10.277,0,0,0-2.423-3.348,11.047,11.047,0,0,0-3.584-2.18,12.267,12.267,0,0,0-4.382-.779h-9.42A2.127,2.127,0,0,1,424.521,88a2.286,2.286,0,0,1,1.588-3.9H443.95a.508.508,0,0,0,.508-.508V75.079H426.109a11.205,11.205,0,0,0-10.4,6.864,11.365,11.365,0,0,0,2.407,12.419A11.273,11.273,0,0,0,421.7,96.8a10.931,10.931,0,0,0,4.413.9h9.42a3.765,3.765,0,0,1,1.594.311,1.224,1.224,0,0,1,.666,1.246,2.276,2.276,0,0,1-2.261,2.27H415.337a.5.5,0,0,0-.508.508v8.523h20.7a11.059,11.059,0,0,0,4.382-.881,11.212,11.212,0,0,0,3.584-2.42,11.788,11.788,0,0,0,2.423-3.581,10.878,10.878,0,0,0,.894-4.4A10.206,10.206,0,0,0,445.918,94.985Z" transform="translate(-285.645 -51.698)" fill="#4080fe"/>
    <path id="Path_3" data-name="Path 3" d="M616.681,52.7V43.671H602.944V29.48h-9.031v14.2h-4.4v9.031h3.905a.508.508,0,0,1,.508.508v10.04a15.462,15.462,0,0,0,1.246,6.175,16.069,16.069,0,0,0,8.474,8.477,15.381,15.381,0,0,0,6.169,1.246h6.87V70.126h-6.87a6.68,6.68,0,0,1-2.684-.551,6.985,6.985,0,0,1-2.18-1.473,6.792,6.792,0,0,1-1.461-2.18,6.713,6.713,0,0,1-.533-2.672V52.7Z" transform="translate(-405.928 -20.3)" fill="#4080fe"/>
    <path id="Path_4" data-name="Path 4" d="M716.286,95.888a8.793,8.793,0,0,1-1.925,1.66,9.457,9.457,0,0,1-2.308,1.043,8.82,8.82,0,0,1-2.554.364c-.355,0-.707-.019-1.062-.05a5.125,5.125,0,0,1-1.059-.218l16.985-20.469a18.164,18.164,0,0,0-10.516-7.2,17.966,17.966,0,0,0-4.36-.533,18.23,18.23,0,0,0-7.025,1.364,17.417,17.417,0,0,0-9.673,9.753,20.135,20.135,0,0,0-1.423,7.692,19.52,19.52,0,0,0,1.423,7.552,18.263,18.263,0,0,0,3.9,5.917,17.925,17.925,0,0,0,12.821,5.272,18.194,18.194,0,0,0,4.329-.514,17.717,17.717,0,0,0,4.014-1.51,18.169,18.169,0,0,0,3.55-2.423,17.91,17.91,0,0,0,2.9-3.214l-6.649-6.667a8.582,8.582,0,0,1-1.373,2.177ZM701.475,94.02a4.588,4.588,0,0,1-.436-1.065c-.109-.4-.2-.813-.28-1.246s-.134-.853-.168-1.274-.05-.8-.05-1.134a10.939,10.939,0,0,1,.7-4,9.162,9.162,0,0,1,1.909-3.036A8.331,8.331,0,0,1,706,80.33a9.01,9.01,0,0,1,3.5-.682,12.143,12.143,0,0,1,1.28.065,5.337,5.337,0,0,1,1.246.311Z" transform="translate(-476.064 -48.538)" fill="#4080fe"/>
    <path id="Path_5" data-name="Path 5" d="M847.874,94.957a10.311,10.311,0,0,0-2.42-3.348,11.047,11.047,0,0,0-3.584-2.18,12.266,12.266,0,0,0-4.382-.779h-9.43a2.133,2.133,0,0,1-1.591-.682,2.288,2.288,0,0,1,1.591-3.9h18.373V75.039H828.059a11.206,11.206,0,0,0-10.4,6.864,11.523,11.523,0,0,0,0,8.825,11.361,11.361,0,0,0,5.989,6.038,10.919,10.919,0,0,0,4.413.909h9.42a3.774,3.774,0,0,1,1.594.311,1.229,1.229,0,0,1,.666,1.246,2.276,2.276,0,0,1-2.261,2.261h-20.69v9.031h20.7a11.058,11.058,0,0,0,4.382-.881,11.211,11.211,0,0,0,3.585-2.42,11.834,11.834,0,0,0,2.42-3.581,10.828,10.828,0,0,0,.9-4.4A10.159,10.159,0,0,0,847.874,94.957Z" transform="translate(-562.422 -51.671)" fill="#4080fe"/>
    <path id="Path_6" data-name="Path 6" d="M546.11,31.534V64.893h-4.07v8.4h-3.55v-8.4h-4.07V31.534h4.07V0h3.55V31.534Z" transform="translate(-367.994)" fill="#4080fe"/>
    <path id="Path_7" data-name="Path 7" d="M241.262,10.608V59.379h-4.329V73.941H233.4V59.379H229.07V10.608H233.4V.64h3.535v9.968Z" transform="translate(-157.734 -0.441)" fill="#4080fe"/>
    <path id="Path_8" data-name="Path 8" d="M9.318,79.776H0V30.9H29.1v9.318H9.318V51.858H23.275v9.318H9.318Z" transform="translate(0 -21.277)" fill="#4080fe"/>
    <path id="Path_9" data-name="Path 9" d="M130.573,110.549h-10.84L112.819,99.9l-6.979,10.647H95l12.693-17.822L95,75.59h10.843l6.979,9.965,6.913-9.965h10.84L117.852,92.718Z" transform="translate(-65.416 -52.05)" fill="#4080fe"/>
  </g>
</svg>
