<svg xmlns="http://www.w3.org/2000/svg" width="60" height="60" viewBox="0 0 60 60"><defs><style>.a{fill:#4080fe;}</style></defs><path class="a" d="M45.033,19.555A17,17,0,0,0,27.892,36.031,16.792,16.792,0,0,0,31,46.268a18.816,18.816,0,0,1,3.393,10.973v4.52a.819.819,0,0,0,.291.626l2.983,2.523v3.077a2.4,2.4,0,0,0,2.4,2.4h9.487a2.4,2.4,0,0,0,2.4-2.4V64.91l2.983-2.523a.819.819,0,0,0,.291-.626V57.239a19.434,19.434,0,0,1,3.5-11.12,16.929,16.929,0,0,0-13.7-26.564Zm5.8,44.156H38.791l-2.369-2H53.207Zm2.754-3.644H36.035V58.06H53.592Zm-3.274,7.922a.762.762,0,0,1-.761.761H40.07a.762.762,0,0,1-.761-.761V65.352H50.318Zm7.066-22.808A21.076,21.076,0,0,0,53.608,56.42H36.02a20.333,20.333,0,0,0-3.681-11.1,15.17,15.17,0,0,1-2.807-9.241A15.345,15.345,0,0,1,44.817,21.194h.195A15.288,15.288,0,0,1,57.387,45.179Z" transform="translate(-14.814 -10.388)"/><path class="a" d="M60.138,45.293a9.328,9.328,0,0,0-1.082-2.625l1.075-1.076a.82.82,0,0,0,0-1.16L58.178,38.48a.82.82,0,0,0-1.16,0l-1.069,1.069a9.324,9.324,0,0,0-2.629-1.094V36.946a.82.82,0,0,0-.82-.82H49.737a.82.82,0,0,0-.82.82v1.509a9.324,9.324,0,0,0-2.631,1.094l-1.07-1.07a.82.82,0,0,0-1.16,0L42.1,40.431a.82.82,0,0,0,0,1.16l1.075,1.076A9.328,9.328,0,0,0,42.1,45.292H40.57a.82.82,0,0,0-.82.82v2.761a.82.82,0,0,0,.82.82h1.539A9.311,9.311,0,0,0,43.2,52.3L42.1,53.4a.82.82,0,0,0,0,1.16l1.952,1.952a.844.844,0,0,0,1.16,0l1.1-1.1a9.318,9.318,0,0,0,2.6,1.075V58.04a.82.82,0,0,0,.82.82H52.5a.82.82,0,0,0,.82-.82V56.483a9.317,9.317,0,0,0,2.6-1.075l1.1,1.1a.82.82,0,0,0,1.16,0l1.952-1.952a.82.82,0,0,0,0-1.16L59.039,52.3a9.311,9.311,0,0,0,1.088-2.607h1.537a.82.82,0,0,0,.82-.82V46.113a.82.82,0,0,0-.82-.82Zm.706,2.761H59.458a.82.82,0,0,0-.809.685,7.645,7.645,0,0,1-1.332,3.188.82.82,0,0,0,.086,1.063l.988.984-.792.792-.991-.992a.82.82,0,0,0-1.057-.088A7.648,7.648,0,0,1,52.363,55a.82.82,0,0,0-.683.811v1.406H50.555V55.814A.82.82,0,0,0,49.87,55a7.648,7.648,0,0,1-3.187-1.317.82.82,0,0,0-1.057.088l-.991.992-.792-.792.99-.986a.82.82,0,0,0,.086-1.06,7.645,7.645,0,0,1-1.332-3.187.82.82,0,0,0-.809-.685H41.391v-1.12h1.377a.82.82,0,0,0,.81-.69A7.645,7.645,0,0,1,44.9,43.039a.82.82,0,0,0-.088-1.057l-.967-.967.792-.792.964.964a.82.82,0,0,0,1.06.086,7.629,7.629,0,0,1,3.21-1.335.82.82,0,0,0,.685-.813V37.765H51.68v1.359a.82.82,0,0,0,.688.81,7.629,7.629,0,0,1,3.208,1.336.819.819,0,0,0,1.06-.086l.964-.964.792.792-.967.967a.82.82,0,0,0-.088,1.057,7.645,7.645,0,0,1,1.321,3.208.82.82,0,0,0,.81.69h1.377Z" transform="translate(-21.117 -19.192)"/><path class="a" d="M57.466,48.025a5.766,5.766,0,1,0,5.766,5.766A5.766,5.766,0,0,0,57.466,48.025Zm0,9.893a4.125,4.125,0,1,1,4.125-4.125,4.125,4.125,0,0,1-4.125,4.125Z" transform="translate(-27.466 -25.513)"/><path class="a" d="M63.07,6.367a.82.82,0,0,0,.82-.82V.82a.82.82,0,0,0-1.641,0V5.547a.82.82,0,0,0,.82.82Z" transform="translate(-33.07)"/><path class="a" d="M102.72,18.473l-3.342,3.342a.82.82,0,0,0,1.16,1.16l3.342-3.342a.82.82,0,0,0-1.16-1.16Z" transform="translate(-52.667 -9.686)"/><path class="a" d="M119.964,62.25h-4.726a.82.82,0,0,0,0,1.641h4.726a.82.82,0,1,0,0-1.641Z" transform="translate(-60.784 -33.07)"/><path class="a" d="M5.547,62.25H.82a.82.82,0,0,0,0,1.641H5.547a.82.82,0,0,0,0-1.641Z" transform="translate(0 -33.07)"/><path class="a" d="M22.975,21.815l-3.342-3.342a.82.82,0,0,0-1.16,1.16l3.342,3.342a.82.82,0,0,0,1.16-1.16Z" transform="translate(-9.686 -9.686)"/></svg>