<svg xmlns="http://www.w3.org/2000/svg" width="59.556" height="50" viewBox="0 0 59.556 50"><defs><style>.a{fill:#4080fe;}</style></defs><g transform="translate(0 -34.019)"><g transform="translate(41.348 34.019)"><g transform="translate(0 0)"><path class="a" d="M302.546,34.019a8.174,8.174,0,0,0,0,16.348,8.212,8.212,0,0,0,8.2-8.2A8.129,8.129,0,0,0,302.546,34.019Zm0,14.551a6.376,6.376,0,1,1,6.4-6.348A6.4,6.4,0,0,1,302.546,48.57Z" transform="translate(-294.4 -34.019)"/></g></g><g transform="translate(46.854 36.884)"><g transform="translate(0 0)"><path class="a" d="M338.825,60.992a1.466,1.466,0,0,0-.169-.449,1.407,1.407,0,0,0-.225-.393c-.112-.112-.169-.225-.281-.337a1.008,1.008,0,0,0-.393-.281,1.408,1.408,0,0,0-.393-.225c-.169-.056-.281-.169-.449-.225a3.875,3.875,0,0,1-.449-.169.426.426,0,0,1-.225-.112c-.056-.056-.169-.056-.225-.112s-.169-.056-.225-.112l-.169-.169a.292.292,0,0,1-.112-.225.338.338,0,0,1-.056-.225v-.281c0-.056.056-.169.056-.225.056-.056.056-.169.112-.225l.169-.169a.429.429,0,0,1,.281-.112.507.507,0,0,1,.281-.056h.337a.506.506,0,0,1,.281.056,2.432,2.432,0,0,1,.281.056c.056,0,.169.056.225.056.112,0,.168.056.225.056l.281.112.056-.337.112-.9v-.225l-.225-.056c-.056,0-.169-.056-.225-.056s-.112-.056-.225-.056a2.432,2.432,0,0,0-.281-.056c-.112,0-.169-.056-.281-.056h-.056V54.419H335.51v1.124h-.056a2,2,0,0,0-.506.225,1.008,1.008,0,0,0-.393.281,2.445,2.445,0,0,0-.337.393,1.13,1.13,0,0,0-.225.449l-.169.506a1.911,1.911,0,0,0-.056.562,1.237,1.237,0,0,0,.056.449,1.469,1.469,0,0,0,.169.449c.056.112.169.281.225.393.112.112.169.225.281.337a1.007,1.007,0,0,0,.393.281,1.409,1.409,0,0,0,.393.225,3.33,3.33,0,0,1,.449.225,3.873,3.873,0,0,1,.449.169.426.426,0,0,1,.225.112c.056.056.168.056.225.112s.112.112.169.112l.168.169c.056.056.056.112.112.225a2.432,2.432,0,0,1,.056.281v.281a.426.426,0,0,1-.112.225l-.168.169a.776.776,0,0,1-.225.169c-.056.056-.169.056-.225.112a2.436,2.436,0,0,1-.281.056h-.73a2.431,2.431,0,0,1-.281-.056.8.8,0,0,1-.337-.112c-.112-.056-.225-.056-.337-.112-.056,0-.112-.056-.169-.056s-.112-.056-.169-.056l-.337-.169-.056.393-.112,1.011v.169l.169.056a.751.751,0,0,1,.506.056,1.041,1.041,0,0,0,.393.112c.112.056.281.056.449.112a1.237,1.237,0,0,0,.449.056h.112v1.124h1.348v-1.18h.056a2,2,0,0,0,.506-.225,1.97,1.97,0,0,0,.449-.281,2.444,2.444,0,0,0,.337-.393,3.128,3.128,0,0,0,.281-.449l.169-.506a1.73,1.73,0,0,0,.056-.562A1.236,1.236,0,0,0,338.825,60.992Z" transform="translate(-333.6 -54.419)"/></g></g><g transform="translate(9.619 51.091)"><g transform="translate(0 0)"><path class="a" d="M104.432,155.913a.957.957,0,0,0-1.292-.169l-9.1,7.247L82.3,158.1a.9.9,0,0,0-.843.112L68.87,167.205a.9.9,0,0,0-.225,1.236.819.819,0,0,0,.73.393.906.906,0,0,0,.506-.169l12.191-8.708,11.8,4.888a1.011,1.011,0,0,0,.9-.112l9.494-7.528A.957.957,0,0,0,104.432,155.913Z" transform="translate(-68.489 -155.569)"/></g></g><g transform="translate(0 55.311)"><g transform="translate(0 0)"><path class="a" d="M58.708,212.529H54.551V186.518a.887.887,0,0,0-.9-.9H45.393a.887.887,0,0,0-.9.9v26.011H41.461V195.507a.887.887,0,0,0-.9-.9H32.247a.887.887,0,0,0-.9.9v17.022H28.315V194.158a.887.887,0,0,0-.9-.9H19.157a.887.887,0,0,0-.9.9v18.371H15.225v-13.09a.887.887,0,0,0-.9-.9H6.011a.887.887,0,0,0-.9.9v13.09H.9a.9.9,0,1,0,0,1.8H58.652a.887.887,0,0,0,.9-.9A.811.811,0,0,0,58.708,212.529Zm-45.337,0H6.91V200.338h6.461Zm13.146,0H20.056V195.057h6.461Zm13.09,0H33.146V196.406h6.461Zm13.146,0H46.292V187.417h6.461Z" transform="translate(0 -185.619)"/></g></g></g></svg>