<svg xmlns="http://www.w3.org/2000/svg" width="248" height="63.657" viewBox="0 0 248 63.657"><defs><style>.a{fill:#fff;}</style></defs><path class="a" d="M318.854,86.445v17.593h-7.846V86.453a5.8,5.8,0,0,0-.458-2.282,5.935,5.935,0,0,0-1.265-1.888,6.233,6.233,0,0,0-1.869-1.265,5.726,5.726,0,0,0-2.274-.456,6.014,6.014,0,0,0-2.325.456,6.141,6.141,0,0,0-1.888,1.265,5.933,5.933,0,0,0-1.257,1.888,5.664,5.664,0,0,0-.467,2.282v17.585H291.36V86.372a13.712,13.712,0,0,1,4.461-10.141v.022a13.93,13.93,0,0,1,12.01-3.334c.237.043.467.105.7.167a12.2,12.2,0,0,1,1.92.653,13.279,13.279,0,0,1,1.214.593,10.029,10.029,0,0,1,1.079.653q.559.377,1.079.809c.313.256.607.539.89.809a14.025,14.025,0,0,1,2.961,4.24c.043.1.084.191.124.291A13.394,13.394,0,0,1,318.854,86.445Z" transform="translate(-212.778 -53.063)"/><path class="a" d="M441.754,92.319a8.9,8.9,0,0,0-2.1-2.9,9.567,9.567,0,0,0-3.1-1.888,10.624,10.624,0,0,0-3.795-.674H424.6a1.842,1.842,0,0,1-1.376-.591A1.98,1.98,0,0,1,424.6,82.89H440.05a.44.44,0,0,0,.44-.44V75.079H424.6a9.7,9.7,0,0,0-9.008,5.944,9.843,9.843,0,0,0,2.085,10.756,9.763,9.763,0,0,0,3.1,2.112,9.467,9.467,0,0,0,3.822.777h8.159a3.261,3.261,0,0,1,1.381.27,1.06,1.06,0,0,1,.577,1.079,1.972,1.972,0,0,1-1.958,1.966H415.269a.437.437,0,0,0-.44.44V105.8h17.928a9.578,9.578,0,0,0,3.795-.763,9.71,9.71,0,0,0,3.1-2.1,10.209,10.209,0,0,0,2.1-3.1,9.422,9.422,0,0,0,.774-3.811A8.839,8.839,0,0,0,441.754,92.319Z" transform="translate(-302.946 -54.83)"/><path class="a" d="M613.042,49.592V41.771h-11.9V29.48h-7.822v12.3H589.51V49.6h3.382a.44.44,0,0,1,.44.44v8.7a13.391,13.391,0,0,0,1.079,5.348,13.917,13.917,0,0,0,7.339,7.341,13.321,13.321,0,0,0,5.343,1.079h5.95V64.682h-5.95a5.786,5.786,0,0,1-2.325-.477,6.05,6.05,0,0,1-1.888-1.276,5.883,5.883,0,0,1-1.265-1.888,5.813,5.813,0,0,1-.461-2.314V49.592Z" transform="translate(-430.514 -21.529)"/><path class="a" d="M712.948,92.487a7.616,7.616,0,0,1-1.667,1.438,8.191,8.191,0,0,1-2,.9,7.638,7.638,0,0,1-2.212.316c-.307,0-.612-.016-.92-.043a4.438,4.438,0,0,1-.917-.189l14.71-17.728a15.732,15.732,0,0,0-9.108-6.233,15.559,15.559,0,0,0-3.776-.461,15.788,15.788,0,0,0-6.085,1.181,15.085,15.085,0,0,0-8.377,8.447,17.439,17.439,0,0,0-1.232,6.662,16.906,16.906,0,0,0,1.232,6.54,15.816,15.816,0,0,0,3.379,5.124,15.524,15.524,0,0,0,11.1,4.566,15.758,15.758,0,0,0,3.749-.445,15.344,15.344,0,0,0,3.477-1.308,15.736,15.736,0,0,0,3.075-2.1,15.51,15.51,0,0,0,2.514-2.783L714.138,90.6a7.434,7.434,0,0,1-1.189,1.885Zm-12.827-1.618a3.973,3.973,0,0,1-.378-.922c-.094-.343-.175-.7-.243-1.079s-.116-.739-.146-1.1-.043-.693-.043-.982a9.474,9.474,0,0,1,.6-3.46,7.934,7.934,0,0,1,1.653-2.63,7.215,7.215,0,0,1,2.473-1.68,7.8,7.8,0,0,1,3.029-.591,10.517,10.517,0,0,1,1.108.057,4.622,4.622,0,0,1,1.079.27Z" transform="translate(-504.898 -51.478)"/><path class="a" d="M843.71,92.29a8.93,8.93,0,0,0-2.1-2.9,9.567,9.567,0,0,0-3.1-1.888,10.623,10.623,0,0,0-3.795-.674h-8.167a1.847,1.847,0,0,1-1.378-.591,1.981,1.981,0,0,1,1.378-3.377h15.913V75.039H826.548a9.7,9.7,0,0,0-9.008,5.944,9.979,9.979,0,0,0,0,7.644,9.839,9.839,0,0,0,5.187,5.23,9.456,9.456,0,0,0,3.822.788h8.159a3.269,3.269,0,0,1,1.381.27,1.064,1.064,0,0,1,.577,1.079,1.972,1.972,0,0,1-1.958,1.958H816.787v7.822h17.927a9.577,9.577,0,0,0,3.795-.763,9.709,9.709,0,0,0,3.1-2.1,10.249,10.249,0,0,0,2.1-3.1A9.378,9.378,0,0,0,844.487,96,8.8,8.8,0,0,0,843.71,92.29Z" transform="translate(-596.487 -54.8)"/><path class="a" d="M544.545,27.311V56.2H541.02v7.274h-3.075V56.2H534.42V27.311h3.525V0h3.075V27.311Z" transform="translate(-390.282)"/><path class="a" d="M239.629,9.273V51.512H235.88V64.124h-3.061V51.512H229.07V9.273h3.749V.64h3.061V9.273Z" transform="translate(-167.288 -0.467)"/><path class="a" d="M8.07,73.231H0V30.9H25.2v8.07H8.07V49.051H20.158v8.07H8.07Z" transform="translate(0 -22.566)"/><path class="a" d="M125.809,105.867H116.42l-5.988-9.221-6.044,9.221H95l10.993-15.435L95,75.59h9.391l6.044,8.631,5.988-8.631h9.389l-11.02,14.834Z" transform="translate(-69.378 -55.203)"/></svg>