<svg xmlns="http://www.w3.org/2000/svg" width="636.068" height="272.68" viewBox="0 0 636.068 272.68"><g transform="translate(-151.877 -768.958)"><g transform="translate(410.453 910.656)"><g transform="translate(0 29.314)"><path d="M448.328,971.981a11.274,11.274,0,0,0-1.688-.507,10.937,10.937,0,0,0-1.548-.246,6.976,6.976,0,0,0-.765-.042,12.407,12.407,0,0,0-5.925,1.231,11.279,11.279,0,0,0-2.694,1.777,7.229,7.229,0,0,0-5.33-3.25,10.385,10.385,0,0,0-7.056,2.666,18.6,18.6,0,0,0-16.759-5.089,3.378,3.378,0,0,0-.1-.513c-1.524-5.962-6.954-11.738-13.081-12.369,2.546-3.9,1.611-9.087.09-13.492-1.3-3.808-3.418-7.921-7.292-9.026a29.44,29.44,0,0,0,5.706.185,35.53,35.53,0,0,0,17.961-6.59,22.192,22.192,0,0,0,17.59,11.611,15.171,15.171,0,0,0,4.153,9.932,14.282,14.282,0,0,0,9.384,4.514c-.988.521-.942,1.975-.843,3.075a7.683,7.683,0,0,0,7.434,6.789C446.614,965.421,446.659,969.549,448.328,971.981Z" transform="translate(-386.181 -926.716)" fill="#536410"/><path d="M446.641,970.977a10.937,10.937,0,0,0-1.548-.246,6.991,6.991,0,0,0-.765-.042,12.722,12.722,0,0,0-5.925,1.231,11.281,11.281,0,0,0-2.694,1.777,7.23,7.23,0,0,0-5.33-3.25,10.385,10.385,0,0,0-7.056,2.666,18.6,18.6,0,0,0-16.759-5.089,3.378,3.378,0,0,0-.1-.513c-1.524-5.962-6.954-11.738-13.081-12.369,2.546-3.9,1.611-9.087.09-13.492-1.3-3.808-3.418-7.921-7.292-9.026a29.44,29.44,0,0,0,5.706.185c7.622,4.6,14.514,15.454,15.857,21.17a12.8,12.8,0,0,1,14.592,9.486,16.469,16.469,0,0,1,13.654.131,20.972,20.972,0,0,1,2.989,1.64,127.956,127.956,0,0,0-26.828-19.551c-.656-.369-.24-1.553.5-1.275,12.963,4.862,25.1,13.784,34.129,24.2A1.688,1.688,0,0,1,446.641,970.977Z" transform="translate(-386.181 -926.22)" fill="#434e03"/></g><g transform="translate(144.491)"><path d="M526.446,982.346a13.517,13.517,0,0,1,1.248-1.718A13.268,13.268,0,0,1,529,979.263a7.642,7.642,0,0,1,.7-.6,14.955,14.955,0,0,1,6.584-3.147,13.616,13.616,0,0,1,3.884-.262,8.7,8.7,0,0,1,2.742-7.01,12.507,12.507,0,0,1,8.715-2.594c.714-6.939,5.95-14.318,12.365-17.123a4.079,4.079,0,0,1-.279-.564c-2.891-6.835-1.9-16.341,3.52-21.421-5.3-1.888-8.182-7.544-9.939-12.881-1.531-4.6-2.5-10.1.406-13.987a35.441,35.441,0,0,1-5.34,4.344,42.832,42.832,0,0,1-22.048,6.794,26.751,26.751,0,0,1-8.4,23.987,18.288,18.288,0,0,1,3.268,12.564,17.227,17.227,0,0,1-5.708,11.184c1.327-.221,2.346,1.208,3.055,2.335a9.268,9.268,0,0,1-2.177,11.945C523.3,974.8,526.271,978.794,526.446,982.346Z" transform="translate(-519.474 -899.674)" fill="#536410"/><path d="M527.2,980.628a13.261,13.261,0,0,1,1.306-1.365,7.641,7.641,0,0,1,.7-.6,15.328,15.328,0,0,1,6.584-3.147,13.616,13.616,0,0,1,3.884-.262,8.7,8.7,0,0,1,2.742-7.01,12.508,12.508,0,0,1,8.716-2.594c.714-6.939,5.95-14.318,12.365-17.123a4.079,4.079,0,0,1-.279-.564c-2.891-6.835-1.9-16.341,3.52-21.421-5.3-1.888-8.182-7.544-9.939-12.881-1.531-4.6-2.5-10.1.407-13.987a35.441,35.441,0,0,1-5.34,4.344c-3.958,9.978-2.643,25.429.243,31.895-7.019,3.332-10.391,12.729-7.074,19.758-5.565,1.112-10.259,5.14-13.007,10.1a25.354,25.354,0,0,0-1.671,3.756,154.385,154.385,0,0,1,11.467-38.353c.36-.83-.9-1.664-1.411-.856-8.888,14.132-14.023,31.559-15.079,48.143A2.036,2.036,0,0,0,527.2,980.628Z" transform="translate(-518.982 -899.674)" fill="#434e03"/></g><g transform="translate(296.606 32.361)"><path d="M661.568,983.6a10.993,10.993,0,0,1,1.489-.94,10.7,10.7,0,0,1,1.425-.652,6.448,6.448,0,0,1,.726-.245,12.4,12.4,0,0,1,6.038-.4,11.226,11.226,0,0,1,3.071.993,7.225,7.225,0,0,1,4.268-4.559,10.378,10.378,0,0,1,7.51.681,18.607,18.607,0,0,1,14.786-9.389,3.555,3.555,0,0,1-.041-.519c-.127-6.154,3.559-13.172,9.293-15.419-3.5-3.082-3.984-8.325-3.7-12.977.236-4.016,1.174-8.544,4.611-10.648a29.363,29.363,0,0,1-5.448,1.705,35.524,35.524,0,0,1-19.07-1.541,22.187,22.187,0,0,1-13.842,15.894,15.17,15.17,0,0,1-1.344,10.681,14.281,14.281,0,0,1-7.833,6.861c1.089.237,1.435,1.651,1.635,2.737A7.686,7.686,0,0,1,659.8,974.4C661.464,976.821,662.525,980.81,661.568,983.6Z" transform="translate(-659.8 -929.527)" fill="#536410"/><path d="M662.878,982.662a10.706,10.706,0,0,1,1.425-.652,6.445,6.445,0,0,1,.726-.245,12.707,12.707,0,0,1,6.038-.4,11.225,11.225,0,0,1,3.071.993,7.225,7.225,0,0,1,4.268-4.559,10.378,10.378,0,0,1,7.51.681A18.607,18.607,0,0,1,700.7,969.09a3.547,3.547,0,0,1-.041-.519c-.127-6.154,3.559-13.172,9.293-15.419-3.5-3.082-3.984-8.325-3.7-12.977.236-4.016,1.174-8.544,4.611-10.648a29.36,29.36,0,0,1-5.448,1.705c-6.115,6.468-9.849,18.775-9.614,24.643a12.8,12.8,0,0,0-11.521,13.044,16.474,16.474,0,0,0-13.122,3.78,21.182,21.182,0,0,0-2.44,2.38,128.024,128.024,0,0,1,20.618-26.018c.533-.53-.184-1.56-.824-1.094-11.188,8.154-20.5,20-26.409,32.449A1.692,1.692,0,0,0,662.878,982.662Z" transform="translate(-659.62 -929.527)" fill="#434e03"/></g><g transform="translate(181.793 41.578)"><path d="M553.885,975.483a9.275,9.275,0,0,1,1.4-.421,8.943,8.943,0,0,1,1.28-.2,5.637,5.637,0,0,1,.632-.036,10.25,10.25,0,0,1,4.9,1.019,9.338,9.338,0,0,1,2.23,1.47,5.978,5.978,0,0,1,4.411-2.688,8.583,8.583,0,0,1,5.837,2.2,15.394,15.394,0,0,1,13.867-4.211,2.633,2.633,0,0,1,.081-.423c1.262-4.933,5.753-9.712,10.823-10.235-2.106-3.23-1.332-7.518-.075-11.163,1.077-3.149,2.828-6.552,6.034-7.468a24.275,24.275,0,0,1-4.72.153,29.4,29.4,0,0,1-14.861-5.451,18.363,18.363,0,0,1-14.555,9.606,12.547,12.547,0,0,1-3.436,8.217,11.814,11.814,0,0,1-7.765,3.736c.817.431.781,1.635.7,2.544a6.359,6.359,0,0,1-6.152,5.617C555.3,970.054,555.265,973.469,553.885,975.483Z" transform="translate(-553.885 -938.03)" fill="#536410"/><path d="M555.208,974.651a8.942,8.942,0,0,1,1.28-.2,5.651,5.651,0,0,1,.632-.036,10.533,10.533,0,0,1,4.9,1.019,9.339,9.339,0,0,1,2.23,1.47,5.978,5.978,0,0,1,4.411-2.688,8.583,8.583,0,0,1,5.837,2.2,15.394,15.394,0,0,1,13.867-4.211,2.626,2.626,0,0,1,.081-.423c1.262-4.933,5.753-9.712,10.823-10.235-2.106-3.23-1.332-7.518-.075-11.163,1.077-3.149,2.828-6.552,6.034-7.468a24.28,24.28,0,0,1-4.72.153c-6.308,3.8-12.01,12.787-13.122,17.518a10.587,10.587,0,0,0-12.072,7.848,13.629,13.629,0,0,0-11.3.107,17.526,17.526,0,0,0-2.474,1.357,105.925,105.925,0,0,1,22.2-16.177c.542-.3.2-1.285-.415-1.055a72.006,72.006,0,0,0-28.239,20.023A1.4,1.4,0,0,0,555.208,974.651Z" transform="translate(-553.813 -937.619)" fill="#434e03"/></g></g><g transform="translate(167.142 768.958)"><path d="M389.775,977.91l-98.911,57.748-109.676-33.005L164.845,864.868l109.078,27.962,99.509-52.7Z" transform="translate(-161.465 -762.979)" fill="#e43d19"/><path d="M269.189,851.017l4.993,42.1-49.06-12.574-31.092-7.972L165.1,865.158l-3.378-28.478,28.5,3.8,30.631,4.087Z" transform="translate(-161.726 -763.268)" fill="#c62b12"/><path d="M361.986,813.852l3.379,28.481-99.509,52.7-4.995-42.1Z" transform="translate(-153.398 -765.186)" fill="#e43d19"/><path d="M161.727,839.456l101.511-35.833,107.076,11.089L269.19,853.793Z" transform="translate(-161.726 -766.046)" fill="#ff5e43"/><path d="M273.92,890.913l16.943,142.828-49.33-14.847-31.263-9.408-29.083-8.752L164.843,862.951l28.925,7.416,31.092,7.972Z" transform="translate(-161.465 -761.061)" fill="#c62b12"/><path d="M218.645,844.276l20.941,176.531-31.263-9.408L188.015,840.188Z" transform="translate(-159.518 -762.974)" fill="#e8e8ea"/><path d="M302.8,834.558l20.94,176.531,28.194-16.46-20.309-171.21Z" transform="translate(-149.875 -764.383)" fill="#fff"/><path d="M164.845,864.868l109.078,27.962,99.509-52.7-98.5,61.2Z" transform="translate(-161.465 -762.979)" fill="#e8e8ea" style="mix-blend-mode:multiply;isolation:isolate"/><path d="M188.015,842.965,297.8,807.135l-79.152,39.917Z" transform="translate(-159.518 -765.751)" fill="#fff"/><path d="M338.31,824.128l-115.119-9.153,86.294,20.292Z" transform="translate(-156.563 -765.092)" fill="#fff"/><g transform="translate(37.965)"><g transform="translate(0 12.727)"><path d="M213.924,838.882a.254.254,0,0,1-.054-.057,78.059,78.059,0,0,1-8.878-13.721,37.3,37.3,0,0,0,8.271,1.96,47.331,47.331,0,0,0,18.886-1.661,66.167,66.167,0,0,0,14.028-6.022c3.029-1.709,7.343-6.272,10.783-6.824,4.338-.693,4.61,5.127,3.331,8.028-1.495,3.393-4.894,5.773-7.928,7.708-10.257,6.506-21.373,12.262-33.441,13.677a6.708,6.708,0,0,1-1.412.024Z" transform="translate(-196.057 -778.027)" fill="#e8e8ea"/><path d="M212.529,784.641s46.448,20.481,50.809,33.524l-64.782-15.79Z" transform="translate(-196.598 -780.368)" fill="#e8e8ea"/><path d="M218.209,844.671s-36.077-26.965-14.676-63.972l13.789,6.4S208.281,828.635,218.209,844.671Z" transform="translate(-196.75 -780.699)" fill="#fff"/></g><g transform="translate(63.451)"><path d="M305.291,831a6.838,6.838,0,0,1-1.379.308c-12.063,1.447-24.218-1.549-35.712-5.474-3.4-1.172-7.265-2.692-9.512-5.64-1.923-2.521-3.02-8.243,1.36-8.586,3.473-.267,8.736,3.16,12.08,4.114a66.195,66.195,0,0,0,15.048,2.572,47.316,47.316,0,0,0,18.75-2.8,37.334,37.334,0,0,0,7.583-3.842,78.164,78.164,0,0,1-5.421,15.418.234.234,0,0,1-.04.068Z" transform="translate(-255.138 -765.376)" fill="#e8e8ea"/><path d="M296.839,774.766s-40.366,30.779-41.556,44.48l59.29-30.507Z" transform="translate(-255.283 -768.47)" fill="#e8e8ea"/><path d="M302.522,834.589s28.766-34.657-.7-65.63l-11.908,9.452S308.422,816.674,302.522,834.589Z" transform="translate(-252.373 -768.958)" fill="#fff"/></g><g transform="translate(17.54 39.467)"><path d="M264.073,823.673a27.211,27.211,0,0,1-.926,6.01c-.029.165-.09.332-.134.5-2.387,8.467-8.341,16.151-13.51,22.856-6.589,8.564-13.506,17.615-15,28.339a68.778,68.778,0,0,1-7.779-15.7,93.816,93.816,0,0,0-13.8,5.141,66.336,66.336,0,0,1,22.112-29.906c3.717-2.821,7.739-5.243,11.191-8.385a22.476,22.476,0,0,0,2.371-2.517c2.894-3.526,4.929-7.642,8.234-10.815,2.425-2.331,4.449-2.345,5.739-.954C263.605,819.323,264.162,821.3,264.073,823.673Z" transform="translate(-212.93 -804.363)" fill="#fff"/><path d="M293.386,851.541a33.5,33.5,0,0,1,3.8,14.581c-2.939-5.392-8.057-9.237-13.28-12.476-5.238-3.221-10.78-6.036-15.365-10.124a35.122,35.122,0,0,1-9.255-13.371,2.208,2.208,0,0,1-.181-.444,32.249,32.249,0,0,1-1.583-5.615c-.4-2.253-.674-4.743,1.328-5.881a4.111,4.111,0,0,1,.936-.385c3.779-1.075,5.44,3.036,7.115,5.506a15.06,15.06,0,0,0,3.376,3.523c4.461,3.442,10.61,4.867,16.012,7.04a47.478,47.478,0,0,1,21.908,17.98A32.376,32.376,0,0,0,293.386,851.541Z" transform="translate(-209.207 -804.334)" fill="#fff"/><path d="M271.238,826.884q-5.35,1.647-10.856,2.8c-.1.011-.2.041-.315.053a117.222,117.222,0,0,1-14.08,2.057c-.029-.512-.068-1.119-.147-1.784,2.894-3.526,4.929-7.642,8.234-10.815,2.425-2.331,4.449-2.345,5.739-.954a4.114,4.114,0,0,1,.935-.385c3.779-1.075,5.44,3.036,7.115,5.506A15.058,15.058,0,0,0,271.238,826.884Z" transform="translate(-210.165 -804.363)" fill="#e8e8ea"/><path d="M247.533,828.224a103.217,103.217,0,0,0,22.144-4.385,57.391,57.391,0,0,0-3.349-18.156c-.62-1.731-21.232,4.2-21.232,4.2S247.285,823.457,247.533,828.224Z" transform="translate(-210.228 -805.366)" fill="#fff"/></g></g></g><g transform="translate(649.044 906.867)"><path d="M620.062,931.42a64.105,64.105,0,0,0-8.519,18.283c-6.534,21.472-5.137,45.464-5.137,45.464a158.463,158.463,0,0,0,25.68-10.627,114.763,114.763,0,0,0,15.391-9.52,64.171,64.171,0,0,0,14.349-14.177,42.572,42.572,0,0,0,4.654-8.471,45.558,45.558,0,0,0,2.745-23.758,18.531,18.531,0,0,1,.257-6.606,16.648,16.648,0,0,1,2.609-5.881L658.714,906.7a17.369,17.369,0,0,1-10.792,6.9,45.56,45.56,0,0,0-21.449,10.58A42.656,42.656,0,0,0,620.062,931.42Z" transform="translate(-606.28 -895.295)" fill="#e43d19"/><path d="M620.062,931.42a64.105,64.105,0,0,0-8.519,18.283c-6.534,21.472-5.137,45.464-5.137,45.464a158.463,158.463,0,0,0,25.68-10.627c-.337-17.626,2.645-53.4,29.791-72.434.784-.542,1.525-1.077,2.238-1.6l-5.4-3.806a17.369,17.369,0,0,1-10.792,6.9,45.56,45.56,0,0,0-21.449,10.58A42.656,42.656,0,0,0,620.062,931.42Z" transform="translate(-606.28 -895.295)" fill="#ff5e43"/><g transform="translate(50.751)"><g transform="translate(0 7.17)"><rect width="7.61" height="16.836" transform="translate(0 6.222) rotate(-54.838)" fill="#fbac54"/></g><g transform="translate(7.636)"><path d="M664.753,900.416c1.009-1.431,4.076-5.784,7.083-3.666s-.062,6.472-1.07,7.9c-.068.1-6.964,9.712-9.888,7.651S664.685,900.515,664.753,900.416Zm1.991,1.4a30.478,30.478,0,0,0-4.082,7.953,30.544,30.544,0,0,0,6.113-6.522c1.65-2.34,2.285-4.068,1.659-4.51S668.395,899.479,666.745,901.819Z" transform="translate(-660.142 -896.179)" fill="#fbac54"/></g></g><path d="M619.654,930.066a55.751,55.751,0,0,0-5.964,11.107c-.445,1.072-.876,2.176-1.273,3.281-.462,1.28-.889,2.585-1.282,3.895l35.934,25.317c1.089-.82,2.174-1.662,3.224-2.529.92-.736,1.815-1.512,2.674-2.294a55.67,55.67,0,0,0,8.451-9.354c.439-.622.855-1.24,1.24-1.863.63-1,1.205-2,1.74-2.989a39.875,39.875,0,0,0,1.674-3.62l-40.008-28.187a36.724,36.724,0,0,0-2.831,2.8q-1.15,1.242-2.242,2.636C620.534,928.843,620.092,929.443,619.654,930.066Z" transform="translate(-605.872 -893.94)" fill="#536410"/><g transform="translate(7.818 34.33)"><path d="M648.62,956.32a7.4,7.4,0,0,0,1.312,9.974,55.665,55.665,0,0,0,8.451-9.354c.439-.622.855-1.24,1.24-1.863a5.477,5.477,0,0,0-.673-.546A7.412,7.412,0,0,0,648.62,956.32Z" transform="translate(-610.655 -925.721)" fill="#f2f2f2"/><path d="M630.046,943.243a7.418,7.418,0,1,0,10.336-1.791A7.42,7.42,0,0,0,630.046,943.243Z" transform="translate(-612.215 -926.82)" fill="#f2f2f2"/><path d="M619.456,929.644a55.748,55.748,0,0,0-5.964,11.107,7.419,7.419,0,0,0,8.043-12.453,5.611,5.611,0,0,0-.743-.449C620.336,928.421,619.894,929.022,619.456,929.644Z" transform="translate(-613.492 -927.849)" fill="#f2f2f2"/></g><path d="M622.295,925.634l41.165,29c.629-1.2,1.188-2.411,1.674-3.62l-40.008-28.187A36.724,36.724,0,0,0,622.295,925.634Z" transform="translate(-604.935 -893.94)" fill="#fbac54"/><path d="M612.417,942.778c-.462,1.28-.889,2.585-1.282,3.895l35.934,25.317c1.089-.82,2.174-1.662,3.224-2.529Z" transform="translate(-605.872 -892.264)" fill="#fbac54"/></g><g transform="translate(151.877 857.178)"><g transform="translate(302.204 52.026)"><path d="M516.384,910.187l.172.134a46.97,46.97,0,0,1,8.7,8.948l.017.013a47.27,47.27,0,0,1-29.09,74.671,45.665,45.665,0,0,1-12.8.724,47.169,47.169,0,0,1-25.054-9.748l-.155-.121a47.82,47.82,0,0,1-7.386-7.177,46.023,46.023,0,0,1-5.3-7.965,44.432,44.432,0,0,1-3.572-8.724,47.316,47.316,0,0,1,36.155-59.862,46.229,46.229,0,0,1,11.211-.855,46.2,46.2,0,0,1,18.3,4.536l.017.014A46.659,46.659,0,0,1,516.384,910.187Z" transform="translate(-425.292 -898.18)" fill="#009ecd"/><g transform="translate(9.563 4.612)"><rect width="24.693" height="11.162" transform="matrix(0.615, -0.788, 0.788, 0.615, 0, 19.469)" fill="#fbac54"/></g><path d="M449.393,917.213c-3.226,4.137-17-6.421-17.136-6.529-2.024-1.578-8.183-6.383-4.866-10.635s9.476.553,11.5,2.131C439.03,902.287,452.621,913.075,449.393,917.213Zm-19.185-14.968c-.693.888.936,3.042,4.246,5.624a44.762,44.762,0,0,0,11.357,6.551A44.686,44.686,0,0,0,436.695,905C433.385,902.413,430.9,901.359,430.208,902.245Z" transform="translate(-426.428 -898.335)" fill="#fbac54"/><path d="M521.651,976.609a47.328,47.328,0,0,1-41.235,18.062,50.417,50.417,0,0,0,14.462-9.472,57.193,57.193,0,0,0,17.208-34.4,45.681,45.681,0,0,0-1.557-19.161c-.137-.442-.29-.869-.442-1.3-.3-.885-.641-1.739-1.022-2.578-.168-.4-.365-.809-.549-1.205-.4-.809-.824-1.617-1.266-2.41a38.516,38.516,0,0,0-2.12-3.341,50.924,50.924,0,0,0-25.278-18.352c-1.556-.518-3.143-.992-4.728-1.372a47.212,47.212,0,0,1,28.754,3.326,46.637,46.637,0,0,1,9.566,5.781c.046.03.076.062.121.092A47.322,47.322,0,0,1,521.651,976.609Z" transform="translate(-422.337 -898.18)" fill="#1fc2e8"/><g transform="translate(16.621 2.044)"><path d="M498.454,901.531l1.04,14.352-21.62,3.777,1.628,21.886-21.637,3.764,1.613,21.9-14.145,2.449a44.433,44.433,0,0,1-3.572-8.724l7.9-1.381-1.6-21.891L469.7,933.9l-1.628-21.886,21.637-3.763-.586-8.034A45.66,45.66,0,0,1,498.454,901.531Z" transform="translate(-441.761 -900.22)" fill="#dbdbdb"/><g transform="translate(8.756 4.536)"><path d="M506.764,904.418l-.017-.014-.679.053,1.3,17.749-21.621,3.777,1.611,21.873-21.621,3.777,1.6,21.891-17.5,3.049.117.7a47.863,47.863,0,0,0,7.386,7.177l.155.12,19.64-3.407-1.6-21.89,21.62-3.777-1.628-21.887,21.638-3.763-1.443-19.883Z" transform="translate(-449.838 -904.404)" fill="#dbdbdb"/></g><g transform="translate(27.214 19.059)"><path d="M523.009,917.8a47.01,47.01,0,0,1,9.252,25.559L512.454,946.8l1.629,21.885-21.638,3.765,1.474,20.018a45.665,45.665,0,0,1-12.8.724,46.761,46.761,0,0,1-14.254-3.461l17.4-3.021-1.613-21.9,21.637-3.765-1.628-21.884,21.638-3.765Z" transform="translate(-466.866 -917.802)" fill="#dbdbdb"/></g></g><g transform="translate(58.089 2.044)"><g transform="translate(5.898)"><path d="M494.783,901.531l.718,9.965a52.923,52.923,0,0,0-9.667-6.21l-.377-5.066.236.017c.5,0,1,.032,1.491.08a10.472,10.472,0,0,1,1.419.137c.315.024.617.065.917.106a10.263,10.263,0,0,1,1.223.176q.833.109,1.623.267a2.255,2.255,0,0,1,.352.081q.91.169,1.779.388Z" transform="translate(-485.456 -900.22)" fill="#f2f2f2"/></g><g transform="translate(23.451 4.184)"><path d="M512.816,929.876l-4.714.808c-.076-.229-.152-.457-.244-.671-.3-.885-.641-1.739-1.022-2.578-.168-.412-.351-.809-.549-1.205-.382-.823-.809-1.617-1.266-2.41a38.516,38.516,0,0,0-2.12-3.341l-1.252-16.4a46.641,46.641,0,0,1,9.566,5.781c.046.03.076.062.121.092l.03.046Z" transform="translate(-501.649 -904.08)" fill="#f2f2f2"/></g><g transform="translate(31.67 19.059)"><path d="M519.45,917.8a45.534,45.534,0,0,1,4.533,7.421c.294.618.59,1.236.853,1.858.306.71.594,1.408.87,2.121a46.712,46.712,0,0,1,3,14.158L509.475,946.7a49.044,49.044,0,0,0-.244-9.291l11.5-2.013Z" transform="translate(-509.231 -917.802)" fill="#f2f2f2"/></g><g transform="translate(24.936 51.242)"><path d="M509.655,947.491l1.391,18.7-8.028,1.4A56.4,56.4,0,0,0,509.655,947.491Z" transform="translate(-503.018 -947.491)" fill="#f2f2f2"/></g><g transform="translate(0 86.872)"><path d="M492.311,980.359l.5,6.858a44.771,44.771,0,0,1-8.479.876c-.481.013-.968-.005-1.435-.01-.438-.009-.846-.019-1.268-.045-.547-.011-1.068-.056-1.617-.1A50.843,50.843,0,0,0,492.311,980.359Z" transform="translate(-480.015 -980.359)" fill="#f2f2f2"/></g></g></g><path d="M687.118,965.9a.766.766,0,0,0-.767-.766H684.29l1.149-1.1a.767.767,0,1,0-1.059-1.109l-2.313,2.208h-1.286L683.019,963a.767.767,0,1,0-1.059-1.109l-3.4,3.245h-1.286l3.325-3.174a.767.767,0,1,0-1.059-1.11l-4.488,4.284H672.8a6.645,6.645,0,0,0-1.4-3.362l1.6-1.594,6.2-.145a.767.767,0,0,0-.016-1.534h-.02l-4.593.107.909-.909,4.7-.109a.767.767,0,0,0-.018-1.534h-.018l-3.089.073.908-.91,3.2-.075a.768.768,0,0,0-.017-1.535h-.017l-1.589.037,1.458-1.457A.768.768,0,1,0,679.9,951.1l-1.458,1.458.036-1.59a.766.766,0,0,0-.749-.785h-.018a.768.768,0,0,0-.766.749l-.074,3.2-.908.909.07-3.094a.766.766,0,0,0-.748-.785h-.019a.768.768,0,0,0-.766.75l-.108,4.7-.909.91.106-4.6a.767.767,0,0,0-.749-.785h-.018a.768.768,0,0,0-.766.749l-.143,6.2-1.467,1.464-.011.013-.117.118a6.61,6.61,0,0,0-3.364-1.4V957.04l4.284-4.487a.767.767,0,0,0-1.11-1.06l-3.174,3.325v-1.286l3.247-3.4a.767.767,0,1,0-1.11-1.059l-2.137,2.237v-1.285l2.209-2.314a.767.767,0,1,0-1.11-1.06l-1.1,1.151v-2.063a.758.758,0,0,0-.131-.429.768.768,0,0,0-1.4.429V947.8l-1.1-1.15a.768.768,0,0,0-1.111,1.06l2.208,2.313v1.285l-2.134-2.236a.767.767,0,0,0-1.111,1.059l3.246,3.4v1.286l-3.172-3.325a.768.768,0,0,0-1.111,1.06l4.283,4.486v2.253a6.6,6.6,0,0,0-3.36,1.4l-1.6-1.594-.144-6.2a.767.767,0,0,0-.766-.749h-.017a.768.768,0,0,0-.75.785l.107,4.6-.909-.908-.109-4.7a.767.767,0,0,0-.766-.75h-.018a.768.768,0,0,0-.75.785l.073,3.094-.908-.908-.074-3.2a.769.769,0,0,0-.767-.749h-.018a.767.767,0,0,0-.749.785l.037,1.59-1.458-1.457a.767.767,0,0,0-1.085,1.085l1.458,1.457-1.59-.037h-.02a.768.768,0,0,0-.016,1.535l3.2.075.909.91-3.093-.073a.767.767,0,1,0-.036,1.534l4.7.109.908.909-4.594-.107a.754.754,0,0,0-.786.749.767.767,0,0,0,.749.785l6.2.145,1.6,1.594a6.613,6.613,0,0,0-1.4,3.362h-2.251l-4.488-4.284a.768.768,0,0,0-1.06,1.11l3.326,3.174h-1.286l-3.4-3.245a.767.767,0,0,0-1.06,1.109l2.237,2.137H650.31L648,962.927a.767.767,0,1,0-1.059,1.109l1.149,1.1h-2.063a.767.767,0,1,0,0,1.534h2.064l-1.15,1.1A.767.767,0,1,0,648,968.879l2.314-2.209H651.6l-2.239,2.138a.767.767,0,1,0,1.06,1.109l3.4-3.247H655.1l-3.327,3.175a.767.767,0,1,0,1.06,1.109l4.489-4.284h2.25a6.612,6.612,0,0,0,1.4,3.365l-1.595,1.592-6.2.144a.768.768,0,0,0,.017,1.535h.02l4.6-.106-.91.908-4.7.109a.768.768,0,0,0,.018,1.535h.017l3.094-.072-.909.908-3.2.075a.767.767,0,0,0,.016,1.534h.02l1.59-.037-1.458,1.456a.767.767,0,0,0,.543,1.309.76.76,0,0,0,.542-.224l1.458-1.457-.037,1.59a.767.767,0,0,0,.749.786h.018a.768.768,0,0,0,.767-.749l.074-3.2.908-.907-.073,3.093a.769.769,0,0,0,.75.785h.018a.767.767,0,0,0,.766-.75l.109-4.7.909-.908-.107,4.594a.766.766,0,0,0,.75.785h.017a.766.766,0,0,0,.766-.749l.144-6.2,1.6-1.595a6.622,6.622,0,0,0,3.359,1.4v2.251l-4.283,4.488a.768.768,0,0,0,1.111,1.059l3.172-3.323v1.285l-3.246,3.4a.766.766,0,0,0,.026,1.085.758.758,0,0,0,.529.211.767.767,0,0,0,.556-.237l2.134-2.236v1.286l-2.208,2.312a.766.766,0,0,0,.026,1.084.756.756,0,0,0,.529.214.771.771,0,0,0,.556-.237l1.1-1.151v2.063a.767.767,0,0,0,1.535,0V984l1.1,1.152a.77.77,0,0,0,.556.237.768.768,0,0,0,.554-1.3l-2.209-2.314v-1.286l2.137,2.239a.767.767,0,1,0,1.11-1.059l-3.247-3.4v-1.285l3.174,3.326a.767.767,0,0,0,1.11-1.059l-4.284-4.489v-2.25a6.624,6.624,0,0,0,3.363-1.4l1.088,1.088.507.505.143,6.2a.767.767,0,0,0,.766.749h.018a.765.765,0,0,0,.749-.785l-.106-4.594.909.907.108,4.7a.768.768,0,0,0,.766.75h.019a.766.766,0,0,0,.748-.785l-.07-3.093.908.907.074,3.2a.767.767,0,0,0,.766.749h.018a.766.766,0,0,0,.749-.785l-.036-1.59L679.9,980.7a.768.768,0,0,0,1.085,0h0a.768.768,0,0,0,0-1.085l-1.458-1.456,1.588.037h.018a.767.767,0,0,0,.017-1.534l-3.2-.075-.91-.908,3.091.072h.018a.768.768,0,0,0,.018-1.535l-4.7-.109-.91-.907,4.594.105h.02a.768.768,0,0,0,.016-1.535l-6.2-.144-.507-.505-.959-.96h0l-.128-.127a6.636,6.636,0,0,0,1.4-3.364h2.252l4.488,4.283a.761.761,0,0,0,.529.214.767.767,0,0,0,.53-1.323l-3.325-3.174h1.285l3.4,3.245a.767.767,0,0,0,1.059-1.109l-2.239-2.137h1.287l2.313,2.208a.767.767,0,1,0,1.059-1.109l-1.15-1.1h2.062a.767.767,0,0,0,.767-.767h0Zm-20.93,5.125a5.131,5.131,0,0,1-5.124-5.12v-.01a5.129,5.129,0,0,1,5.115-5.118h.015a5.124,5.124,0,0,1-.007,10.247Z" transform="translate(-105.839 -842.391)" fill="#fff"/><path d="M213.786,949.6a1.313,1.313,0,0,0-1.766-.581l-3.153,1.591.912-2.568a1.314,1.314,0,0,0-2.478-.878l-1.833,5.163-1.965.993,1.772-4.994a1.315,1.315,0,1,0-2.479-.879l-2.693,7.589-1.964.993,2.632-7.42a1.315,1.315,0,1,0-2.478-.88l-3.553,10.016-3.445,1.741a11.342,11.342,0,0,0-4.73-4.062l1.208-3.674,9.372-5.009a1.315,1.315,0,0,0-1.213-2.333l-.027.013-6.942,3.712.687-2.092,7.1-3.8a1.315,1.315,0,0,0-1.212-2.334.143.143,0,0,0-.028.015l-4.671,2.5.688-2.092,4.829-2.582a1.314,1.314,0,0,0-1.211-2.333.216.216,0,0,0-.028.015l-2.4,1.282,1.1-3.355a1.316,1.316,0,0,0-2.5-.821l-1.1,3.356-1.173-2.461a1.312,1.312,0,0,0-1.752-.621l-.028.013a1.315,1.315,0,0,0-.594,1.739l2.357,4.947-.688,2.092-2.279-4.786a1.312,1.312,0,0,0-1.752-.621.135.135,0,0,0-.028.013,1.314,1.314,0,0,0-.594,1.739l3.463,7.273-.687,2.091-3.386-7.11a1.314,1.314,0,0,0-1.752-.621l-.029.013a1.315,1.315,0,0,0-.593,1.739l4.569,9.6-1.108,3.373-.008.028-.088.27a11.339,11.339,0,0,0-6.224.461l-.132-.261,0-.013-1.6-3.17,3.085-10.172a1.315,1.315,0,0,0-2.516-.763l-2.286,7.536-.993-1.965,2.339-7.708a1.315,1.315,0,0,0-2.517-.764l-1.538,5.073-.993-1.965,1.59-5.244a1.315,1.315,0,1,0-2.516-.763l-.791,2.608-1.592-3.153a1.315,1.315,0,1,0-2.349,1.184l1.592,3.155-2.567-.912a1.315,1.315,0,1,0-.879,2.478l5.163,1.832.993,1.966-4.994-1.772a1.315,1.315,0,0,0-.879,2.478l7.589,2.694.993,1.965-7.419-2.633a1.315,1.315,0,0,0-.88,2.479l10.016,3.553,1.74,3.445a11.341,11.341,0,0,0-4.062,4.732l-3.67-1.206-5.011-9.377a1.316,1.316,0,0,0-1.752-.554l-.028.015a1.317,1.317,0,0,0-.54,1.78l3.713,6.945-2.091-.688-3.8-7.106a1.315,1.315,0,0,0-1.752-.553l-.027.014a1.315,1.315,0,0,0-.54,1.78l2.5,4.674-2.091-.687-2.585-4.834a1.314,1.314,0,0,0-1.751-.554l-.028.014a1.314,1.314,0,0,0-.54,1.779l1.286,2.4-3.356-1.1a1.315,1.315,0,0,0-.822,2.5l3.355,1.1-2.46,1.172-.029.014a1.314,1.314,0,0,0,1.16,2.359l4.946-2.357,2.093.688-4.786,2.28a1.314,1.314,0,1,0,1.131,2.373l7.272-3.462,2.092.688-7.11,3.386a1.29,1.29,0,0,0-.622,1.752,1.316,1.316,0,0,0,1.753.621l9.6-4.57,3.672,1.209a11.34,11.34,0,0,0,.461,6.219l-3.444,1.739-10.171-3.084a1.314,1.314,0,1,0-.763,2.515l7.535,2.285-1.965.993-7.708-2.337a1.314,1.314,0,0,0-.763,2.515l5.072,1.539-1.965.992-5.243-1.589a1.315,1.315,0,1,0-.763,2.516l2.607.79-3.156,1.595a1.314,1.314,0,0,0,1.185,2.347l3.158-1.595-.912,2.571a1.314,1.314,0,1,0,2.477.878l1.833-5.166,1.966-.993-1.773,5a1.315,1.315,0,0,0,2.478.879l2.694-7.592,1.966-.993-2.634,7.423a1.315,1.315,0,1,0,2.478.879l3.556-10.019,3.442-1.738a11.336,11.336,0,0,0,4.736,4.064l-1.209,3.669-9.376,5.013a1.314,1.314,0,0,0,1.211,2.333.217.217,0,0,0,.028-.015L174.6,983.4l-.688,2.091-7.106,3.8a1.315,1.315,0,0,0,1.212,2.335l.028-.015,4.674-2.5-.688,2.093-4.833,2.584a1.315,1.315,0,0,0,1.212,2.333l.027-.015,2.4-1.285-1.1,3.353a1.315,1.315,0,1,0,2.5.822l1.1-3.354,1.172,2.462a1.315,1.315,0,0,0,1.753.621l.027-.013a1.314,1.314,0,0,0,.594-1.739l-2.357-4.949.688-2.091,2.28,4.786a1.315,1.315,0,0,0,1.752.621l.028-.013a1.316,1.316,0,0,0,.594-1.739l-3.462-7.273.687-2.091,3.385,7.109a1.315,1.315,0,0,0,1.753.621l.027-.014a1.314,1.314,0,0,0,.594-1.738l-4.569-9.6,1.209-3.672a11.363,11.363,0,0,0,6.217-.461l1.739,3.444-3.084,10.17a1.315,1.315,0,0,0,2.516.764l2.285-7.535.993,1.965-2.337,7.707a1.314,1.314,0,1,0,2.516.762l1.537-5.069.993,1.964-1.59,5.243a1.315,1.315,0,0,0,2.517.763l.79-2.607,1.592,3.153a1.315,1.315,0,0,0,2.347-1.186l-1.593-3.155,2.57.913a1.315,1.315,0,0,0,.88-2.478l-5.167-1.834-.992-1.964,5,1.773a1.315,1.315,0,0,0,.879-2.478l-7.594-2.7-.993-1.965,7.424,2.634a1.314,1.314,0,1,0,.878-2.478l-10.02-3.556-1.737-3.442a11.347,11.347,0,0,0,4.063-4.733l2.505.824,1.165.383,5.012,9.376a1.312,1.312,0,0,0,1.751.553l.027-.013a1.314,1.314,0,0,0,.54-1.78l-3.713-6.945,2.092.688,3.8,7.1a1.313,1.313,0,0,0,1.751.554.226.226,0,0,0,.028-.014,1.315,1.315,0,0,0,.54-1.779l-2.5-4.675,2.092.688,2.582,4.833a1.316,1.316,0,0,0,1.753.555l.026-.014a1.313,1.313,0,0,0,.541-1.779l-1.286-2.405,3.357,1.1a1.313,1.313,0,0,0,1.66-.838h0v0a1.314,1.314,0,0,0-.838-1.66l-3.355-1.1,2.459-1.17.028-.014a1.315,1.315,0,0,0-1.159-2.36l-4.945,2.354-2.093-.687,4.784-2.279.028-.013a1.314,1.314,0,0,0-1.158-2.36l-7.272,3.462-2.093-.688,7.11-3.385.028-.014a1.314,1.314,0,0,0-1.159-2.359l-9.6,4.57-1.166-.384-2.208-.727h0l-.293-.1a11.357,11.357,0,0,0-.461-6.221l.268-.135.005,0,3.171-1.6,10.171,3.085a1.315,1.315,0,0,0,1.64-.876,1.316,1.316,0,0,0-.877-1.64l-7.536-2.286,1.966-.993L209,959.724a1.315,1.315,0,0,0,.763-2.517l-5.071-1.538,1.964-.993,5.246,1.591a1.315,1.315,0,1,0,.763-2.516l-2.609-.792,3.154-1.591a1.314,1.314,0,0,0,.58-1.767Zm-28.052,24a8.789,8.789,0,0,1-11.791-3.871l0-.009,0-.008a8.788,8.788,0,0,1,3.871-11.779l.011,0,.012-.006a8.778,8.778,0,0,1,7.9,15.677Z" transform="translate(-147.645 -843.511)" fill="#fff"/><path d="M583.592,947.051a.967.967,0,0,0-1.3-.428l-2.323,1.174.671-1.893a.969.969,0,0,0-1.826-.648l-1.351,3.8-1.448.732,1.306-3.68a.969.969,0,0,0-1.826-.648l-1.984,5.593-1.448.731L574,946.32a.968.968,0,0,0-1.826-.647l-2.619,7.379-2.538,1.282a8.355,8.355,0,0,0-3.485-2.992l.891-2.707,6.9-3.691a.969.969,0,0,0-.892-1.719l-.022.012L565.3,945.97l.507-1.541,5.23-2.8a.968.968,0,0,0-.892-1.718l-.021.011-3.441,1.84.506-1.543,3.559-1.9a.969.969,0,0,0-.893-1.719l-.02.01-1.769.945.813-2.471a.97.97,0,0,0-1.843-.6l-.813,2.473-.864-1.813a.969.969,0,0,0-1.291-.459l-.021.011a.966.966,0,0,0-.437,1.279l1.735,3.647-.507,1.541-1.678-3.526a.968.968,0,0,0-1.292-.457l-.019.01a.968.968,0,0,0-.438,1.28l2.552,5.359-.507,1.542-2.494-5.24a.97.97,0,0,0-1.291-.457l-.021.01a.968.968,0,0,0-.438,1.28l3.367,7.072-.816,2.485,0,.022-.066.2a8.335,8.335,0,0,0-4.585.338l-.1-.193,0-.009-1.179-2.336,2.273-7.494a.968.968,0,1,0-1.854-.562l-1.685,5.551-.732-1.447,1.723-5.679a.969.969,0,1,0-1.854-.563l-1.134,3.737-.732-1.448,1.173-3.863a.969.969,0,0,0-1.855-.564l-.582,1.923-1.174-2.324a.969.969,0,1,0-1.73.873L548.842,939l-1.892-.671a.969.969,0,0,0-.648,1.827l3.8,1.35.731,1.448-3.679-1.305a.969.969,0,0,0-.648,1.826l5.592,1.984.731,1.448-5.467-1.939a.968.968,0,0,0-.647,1.825l7.379,2.619,1.282,2.538a8.341,8.341,0,0,0-2.993,3.487l-2.7-.89-3.692-6.908a.968.968,0,0,0-1.291-.408l-.02.011a.967.967,0,0,0-.4,1.311l2.735,5.119-1.54-.507-2.8-5.235a.968.968,0,0,0-1.291-.408l-.021.011a.968.968,0,0,0-.4,1.311l1.841,3.444-1.542-.506-1.9-3.562a.969.969,0,0,0-1.29-.409l-.021.011a.97.97,0,0,0-.4,1.312l.946,1.771-2.472-.813a.968.968,0,0,0-.606,1.84l2.473.813-1.812.864-.022.01a.968.968,0,0,0,.853,1.739l3.646-1.735,1.542.507-3.526,1.678a.969.969,0,0,0,.833,1.75L544.872,955l1.541.507L541.174,958a.951.951,0,0,0-.457,1.291.968.968,0,0,0,1.291.457l7.07-3.366,2.706.889a8.344,8.344,0,0,0,.338,4.582l-2.537,1.281-7.494-2.273a.968.968,0,1,0-.561,1.854l5.551,1.685-1.448.732-5.679-1.722a.968.968,0,1,0-.562,1.854l3.735,1.133-1.448.732-3.862-1.172a.969.969,0,0,0-.564,1.855l1.923.582-2.326,1.174a.969.969,0,0,0,.874,1.729l2.326-1.175-.672,1.894a.969.969,0,1,0,1.825.648l1.351-3.806,1.448-.731-1.306,3.68a.969.969,0,1,0,1.826.648l1.985-5.593,1.448-.732-1.94,5.469a.968.968,0,1,0,1.825.647l2.62-7.381L553,963.587a8.365,8.365,0,0,0,3.488,3l-.889,2.7-6.908,3.693a.969.969,0,0,0,.892,1.719l.021-.012,5.119-2.735-.507,1.541-5.235,2.8a.969.969,0,0,0,.893,1.719l.021-.011,3.444-1.841-.508,1.542-3.56,1.9a.968.968,0,0,0,.893,1.718l.02-.01,1.771-.946-.813,2.47a.968.968,0,0,0,1.84.606l.813-2.473.864,1.814a.969.969,0,0,0,1.291.458l.022-.01a.968.968,0,0,0,.437-1.28l-1.735-3.648.507-1.54,1.678,3.526a.967.967,0,0,0,1.291.458l.021-.01a.968.968,0,0,0,.438-1.28L556.05,974.1l.507-1.54,2.494,5.238a.967.967,0,0,0,1.29.456l.022-.009a.97.97,0,0,0,.437-1.281l-3.366-7.069.891-2.707a8.352,8.352,0,0,0,4.579-.338l1.282,2.538-2.273,7.493a.968.968,0,1,0,1.854.562l1.684-5.55.732,1.447-1.721,5.679a.968.968,0,1,0,1.854.562l1.133-3.735.732,1.448-1.172,3.862a.969.969,0,1,0,1.854.563l.583-1.921,1.173,2.323a.969.969,0,1,0,1.729-.874l-1.174-2.324,1.894.672a.969.969,0,0,0,.648-1.827l-3.807-1.349-.731-1.448,3.681,1.306a.969.969,0,0,0,.648-1.826l-5.595-1.985-.732-1.448,5.47,1.94a.968.968,0,0,0,.647-1.826l-7.382-2.62-1.28-2.536a8.351,8.351,0,0,0,2.994-3.487l1.846.607.859.282,3.692,6.907a.969.969,0,0,0,1.291.409l.019-.012a.966.966,0,0,0,.4-1.311L573,964.253l1.541.506,2.8,5.235a.968.968,0,0,0,1.291.408l.021-.011a.968.968,0,0,0,.4-1.311l-1.841-3.444,1.541.507,1.9,3.561a.971.971,0,0,0,1.291.409l.02-.011a.969.969,0,0,0,.4-1.31l-.947-1.772,2.474.813a.968.968,0,0,0,1.223-.617h0a.969.969,0,0,0-.618-1.223l-2.47-.813,1.81-.862.022-.01a.968.968,0,0,0-.853-1.739l-3.644,1.734-1.543-.506,3.524-1.678.022-.011a.968.968,0,0,0-.853-1.739l-5.358,2.551-1.541-.506,5.238-2.494.021-.01a.968.968,0,0,0-.853-1.739l-7.071,3.367-.859-.283-1.626-.535h0l-.217-.072a8.343,8.343,0,0,0-.339-4.582l.2-.1h0l2.338-1.18,7.494,2.273a.969.969,0,0,0,.563-1.854l-5.553-1.684,1.448-.732,5.679,1.723a.969.969,0,1,0,.563-1.854l-3.737-1.134,1.448-.731,3.863,1.171a.968.968,0,1,0,.563-1.853l-1.922-.583,2.324-1.174a.967.967,0,0,0,.427-1.3Zm-20.668,17.685a6.476,6.476,0,0,1-8.686-2.853l0-.005,0-.005a6.477,6.477,0,0,1,2.852-8.679l.009,0,.009,0a6.468,6.468,0,0,1,5.823,11.551Z" transform="translate(-115.114 -843.328)" fill="#fff"/><path d="M339.252,966.336a1.314,1.314,0,0,0-1.766-.581l-3.153,1.592.912-2.568a1.315,1.315,0,1,0-2.479-.879l-1.832,5.164-1.965.993,1.771-5a1.315,1.315,0,0,0-2.478-.878l-2.693,7.59-1.965.993,2.633-7.421a1.315,1.315,0,1,0-2.478-.879L320.2,974.483l-3.445,1.74a11.342,11.342,0,0,0-4.73-4.062l1.209-3.673,9.37-5.011a1.314,1.314,0,0,0-1.212-2.332l-.027.014-6.943,3.712.688-2.093,7.1-3.8A1.314,1.314,0,0,0,321,956.65a.135.135,0,0,0-.028.014l-4.671,2.5.688-2.092,4.829-2.581a1.315,1.315,0,0,0-1.211-2.334l-.028.015-2.4,1.282,1.1-3.354a1.316,1.316,0,0,0-.839-1.661,1.317,1.317,0,0,0-1.662.839l-1.1,3.357-1.173-2.462a1.315,1.315,0,0,0-1.753-.621l-.027.014a1.313,1.313,0,0,0-.594,1.737l2.357,4.948-.688,2.092-2.278-4.786a1.316,1.316,0,0,0-1.753-.621.215.215,0,0,0-.028.014,1.313,1.313,0,0,0-.594,1.738l3.463,7.273-.687,2.092-3.386-7.111a1.315,1.315,0,0,0-1.752-.621l-.029.014a1.315,1.315,0,0,0-.594,1.738l4.571,9.6-1.109,3.372c0,.01,0,.019-.007.028l-.089.27a11.347,11.347,0,0,0-6.224.461l-.132-.262,0-.012-1.6-3.17,3.085-10.171a1.315,1.315,0,1,0-2.516-.763l-2.286,7.536-.993-1.966,2.338-7.708a1.315,1.315,0,1,0-2.516-.763l-1.538,5.072-.993-1.965,1.591-5.244a1.315,1.315,0,1,0-2.517-.763l-.791,2.608-1.592-3.153a1.316,1.316,0,0,0-2.35,1.184l1.594,3.155-2.567-.912a1.315,1.315,0,0,0-.88,2.478l5.164,1.833.993,1.965L289.8,959a1.315,1.315,0,0,0-.88,2.479l7.59,2.693.992,1.965-7.42-2.632a1.315,1.315,0,0,0-.879,2.478l10.016,3.553,1.74,3.445a11.34,11.34,0,0,0-4.062,4.732l-3.67-1.206-5.011-9.377a1.315,1.315,0,0,0-1.752-.553l-.028.014a1.316,1.316,0,0,0-.54,1.78l3.714,6.945-2.092-.688-3.8-7.1a1.315,1.315,0,0,0-1.752-.554l-.027.015a1.314,1.314,0,0,0-.54,1.779l2.5,4.675-2.09-.688-2.585-4.834a1.313,1.313,0,0,0-1.751-.554l-.028.014a1.315,1.315,0,0,0-.54,1.78l1.286,2.4-3.356-1.1a1.315,1.315,0,1,0-.822,2.5l3.355,1.1-2.461,1.172-.028.014a1.315,1.315,0,0,0,1.159,2.36l4.947-2.357,2.093.688-4.787,2.279a1.315,1.315,0,0,0,1.131,2.374l7.273-3.463,2.092.688L281.68,981.2a1.29,1.29,0,0,0-.623,1.752,1.314,1.314,0,0,0,1.753.621l9.6-4.569,3.672,1.208a11.34,11.34,0,0,0,.461,6.219l-3.444,1.74-10.171-3.086a1.315,1.315,0,1,0-.763,2.516l7.535,2.286-1.965.993-7.707-2.338a1.315,1.315,0,0,0-.764,2.516l5.072,1.539-1.966.992L277.121,992a1.315,1.315,0,0,0-.763,2.516l2.608.791-3.157,1.594a1.315,1.315,0,0,0,1.186,2.347l3.157-1.594-.911,2.57a1.315,1.315,0,0,0,2.478.878l1.832-5.165,1.966-.993-1.773,5a1.315,1.315,0,0,0,2.478.88l2.694-7.592,1.966-.993-2.634,7.422a1.315,1.315,0,1,0,2.478.879l3.556-10.018,3.442-1.739a11.346,11.346,0,0,0,4.735,4.064l-1.206,3.669-9.377,5.013a1.314,1.314,0,0,0,1.212,2.333l.026-.014,6.949-3.714-.688,2.092-7.106,3.8a1.315,1.315,0,0,0,1.212,2.334l.028-.015,4.674-2.5-.688,2.093-4.834,2.583a1.315,1.315,0,0,0,1.213,2.334l.027-.014,2.4-1.286-1.1,3.354a1.315,1.315,0,1,0,2.5.822l1.1-3.355,1.173,2.462a1.315,1.315,0,0,0,1.753.622l.027-.014a1.314,1.314,0,0,0,.594-1.739l-2.357-4.949.688-2.091,2.279,4.786a1.315,1.315,0,0,0,1.753.622l.028-.014a1.316,1.316,0,0,0,.594-1.739l-3.462-7.273.687-2.09,3.384,7.108a1.316,1.316,0,0,0,1.754.622l.027-.014a1.315,1.315,0,0,0,.594-1.739l-4.569-9.595,1.209-3.673a11.343,11.343,0,0,0,6.217-.461l1.739,3.444-3.085,10.171a1.315,1.315,0,0,0,2.517.763l2.285-7.535.993,1.965-2.337,7.708a1.314,1.314,0,1,0,2.516.762l1.538-5.07.992,1.964-1.59,5.243a1.315,1.315,0,1,0,2.517.762l.79-2.606,1.592,3.153a1.315,1.315,0,1,0,2.347-1.185l-1.593-3.157,2.57.913a1.315,1.315,0,0,0,.88-2.478l-5.167-1.833-.992-1.966,5,1.775a1.315,1.315,0,0,0,.88-2.478l-7.594-2.695-.993-1.966,7.424,2.635a1.315,1.315,0,0,0,.879-2.478l-10.021-3.557-1.737-3.442a11.348,11.348,0,0,0,4.063-4.733l2.505.824,1.165.384,5.011,9.375a1.315,1.315,0,0,0,1.752.554l.028-.015a1.313,1.313,0,0,0,.539-1.779l-3.713-6.945,2.092.688,3.8,7.1a1.312,1.312,0,0,0,1.751.553.108.108,0,0,0,.027-.013,1.315,1.315,0,0,0,.54-1.78l-2.5-4.674,2.091.687,2.583,4.833a1.316,1.316,0,0,0,1.753.555l.027-.015a1.314,1.314,0,0,0,.54-1.778l-1.287-2.405,3.358,1.1a1.315,1.315,0,0,0,1.66-.839h0v0a1.315,1.315,0,0,0-.838-1.66l-3.354-1.1,2.457-1.17.028-.013a1.315,1.315,0,0,0-1.159-2.361l-4.945,2.356-2.092-.688,4.783-2.279.028-.013a1.314,1.314,0,0,0-1.158-2.36l-7.272,3.461-2.093-.686,7.11-3.386.028-.013a1.314,1.314,0,0,0-1.158-2.36l-9.6,4.57-1.166-.385-2.208-.726h0l-.294-.1a11.35,11.35,0,0,0-.46-6.222l.268-.135.005,0,3.17-1.6,10.172,3.085a1.315,1.315,0,1,0,.763-2.517l-7.536-2.285,1.966-.993,7.707,2.338a1.315,1.315,0,1,0,.763-2.516l-5.072-1.538,1.966-.993,5.245,1.59a1.315,1.315,0,0,0,.763-2.516l-2.609-.791,3.155-1.592a1.317,1.317,0,0,0,.581-1.767Zm-28.052,24a8.79,8.79,0,0,1-11.791-3.872l0-.008,0-.008a8.787,8.787,0,0,1,3.87-11.779l.012,0,.012-.008a8.779,8.779,0,0,1,7.9,15.678Z" transform="translate(-137.104 -842.105)" fill="#fff"/><path d="M462.534,951.252a.723.723,0,0,0-.97-.319l-1.731.875.5-1.41a.721.721,0,1,0-1.359-.482l-1.006,2.835-1.079.544.972-2.74a.722.722,0,1,0-1.36-.483l-1.478,4.167-1.08.544,1.446-4.074a.722.722,0,0,0-1.36-.482l-1.951,5.5-1.891.955a6.23,6.23,0,0,0-2.6-2.229l.665-2.017,5.144-2.749a.722.722,0,0,0-.665-1.281l-.016.009-3.81,2.037.377-1.149,3.9-2.083a.721.721,0,0,0-.666-1.28l-.015.008-2.564,1.37.377-1.148,2.651-1.417a.722.722,0,0,0-.666-1.281l-.014.008-1.318.706.6-1.843a.722.722,0,0,0-1.371-.451l-.607,1.844-.644-1.352a.722.722,0,0,0-.962-.341l-.015.008a.723.723,0,0,0-.326.955l1.294,2.715-.378,1.148-1.25-2.627a.723.723,0,0,0-.963-.341l-.016.008a.724.724,0,0,0-.326.955l1.9,3.991L447.534,950l-1.859-3.9a.723.723,0,0,0-.963-.341l-.014.008a.72.72,0,0,0-.326.955l2.508,5.268-.609,1.851,0,.016-.049.146a6.229,6.229,0,0,0-3.417.254l-.073-.144,0-.007-.878-1.74,1.693-5.584a.722.722,0,0,0-1.381-.419l-1.255,4.138-.544-1.079,1.282-4.233a.721.721,0,1,0-1.381-.417l-.844,2.784-.545-1.079.874-2.879a.722.722,0,0,0-1.381-.42l-.435,1.432-.874-1.73a.728.728,0,0,0-.294-.306.722.722,0,0,0-1,.955l.875,1.731-1.41-.5a.722.722,0,1,0-.482,1.36l2.835,1.006.545,1.079-2.741-.973a.722.722,0,0,0-.483,1.361l4.167,1.478.544,1.079-4.073-1.445a.722.722,0,0,0-.482,1.36l5.5,1.951.955,1.891a6.232,6.232,0,0,0-2.23,2.6l-2.015-.663-2.751-5.147a.722.722,0,0,0-.961-.3l-.015.008a.722.722,0,0,0-.3.977l2.038,3.814-1.148-.378-2.085-3.9a.721.721,0,0,0-.961-.3l-.015.008a.722.722,0,0,0-.3.978l1.371,2.566L431,954.776l-1.419-2.654a.72.72,0,0,0-.962-.3l-.014.007a.723.723,0,0,0-.3.978l.706,1.319-1.843-.606a.722.722,0,0,0-.451,1.371l1.843.606-1.351.643-.015.008a.721.721,0,0,0,.635,1.3l2.715-1.293,1.149.377-2.628,1.252a.722.722,0,0,0,.621,1.3l3.991-1.9,1.149.378-3.9,1.858a.709.709,0,0,0-.34.962.721.721,0,0,0,.962.341l5.268-2.508,2.015.662a6.229,6.229,0,0,0,.253,3.415l-1.889.955-5.585-1.694a.722.722,0,0,0-.418,1.382l4.137,1.254-1.079.545-4.232-1.285a.722.722,0,0,0-.418,1.382l2.784.844-1.079.545-2.878-.874a.722.722,0,0,0-.419,1.382l1.431.433-1.731.875a.721.721,0,0,0,.65,1.288l1.733-.876-.5,1.411a.722.722,0,1,0,1.36.483l1.006-2.837,1.08-.544-.975,2.743a.722.722,0,1,0,1.36.482l1.479-4.168,1.079-.544-1.445,4.075a.721.721,0,1,0,1.359.482l1.952-5.5,1.889-.955a6.241,6.241,0,0,0,2.6,2.232l-.663,2.013-5.147,2.751a.722.722,0,0,0,.666,1.281l.015-.009,3.814-2.038-.378,1.149-3.9,2.085a.721.721,0,0,0,.665,1.28l.015-.008,2.567-1.372-.378,1.15-2.653,1.417a.722.722,0,0,0,.664,1.281l.015-.008,1.319-.706-.606,1.841a.722.722,0,1,0,1.371.451l.606-1.841.644,1.351a.721.721,0,0,0,.962.341l.015-.008a.723.723,0,0,0,.326-.955l-1.293-2.716.377-1.148,1.251,2.627a.721.721,0,0,0,.962.341l.016-.008a.723.723,0,0,0,.326-.954l-1.9-3.992.378-1.148,1.857,3.9a.722.722,0,0,0,.963.34l.015-.006a.721.721,0,0,0,.326-.954l-2.508-5.267.663-2.016A6.232,6.232,0,0,0,447.12,966l.955,1.891-1.693,5.583a.722.722,0,1,0,1.381.419l1.254-4.137.545,1.079-1.283,4.232a.722.722,0,0,0,1.382.418l.843-2.784.545,1.079-.874,2.879a.722.722,0,1,0,1.382.417l.434-1.43.875,1.731a.722.722,0,1,0,1.288-.652L453.28,975l1.411.5a.722.722,0,0,0,.484-1.36l-2.838-1.006-.544-1.079,2.744.973a.722.722,0,0,0,.482-1.361l-4.168-1.48-.545-1.079,4.075,1.446a.722.722,0,1,0,.482-1.36l-5.5-1.952-.955-1.888a6.227,6.227,0,0,0,2.232-2.6l1.376.452.638.211,2.751,5.147a.722.722,0,0,0,.961.3l.015-.009a.721.721,0,0,0,.3-.976l-2.038-3.814,1.149.378,2.085,3.9a.722.722,0,0,0,.962.3l.014-.008a.723.723,0,0,0,.3-.977l-1.372-2.566,1.149.377,1.418,2.653a.721.721,0,0,0,.962.3l.015-.008a.722.722,0,0,0,.3-.978l-.7-1.319,1.842.606a.718.718,0,0,0,.552-.041.726.726,0,0,0,.36-.419h0a.723.723,0,0,0-.461-.912l-1.841-.606,1.349-.642.015-.008a.722.722,0,0,0-.636-1.3l-2.713,1.293-1.15-.378,2.627-1.25.015-.008a.722.722,0,0,0-.635-1.3l-3.992,1.9-1.149-.376,3.9-1.859.015-.008a.721.721,0,0,0-.635-1.3l-5.269,2.508-.638-.21-1.213-.4h0l-.16-.053a6.254,6.254,0,0,0-.253-3.416l.145-.074h0l1.741-.878,5.584,1.693a.722.722,0,0,0,.42-1.381l-4.138-1.255,1.08-.545,4.231,1.283a.72.72,0,0,0,.9-.48.722.722,0,0,0-.48-.9l-2.786-.846,1.08-.545,2.879.874a.718.718,0,0,0,.535-.047.721.721,0,0,0-.117-1.334l-1.432-.435,1.732-.874a.723.723,0,0,0,.319-.97Zm-15.4,13.176a4.824,4.824,0,0,1-6.473-2.126l0,0,0,0a4.823,4.823,0,0,1,2.125-6.466l.007,0,.006,0a4.819,4.819,0,0,1,4.339,8.606Z" transform="translate(-124.241 -842.692)" fill="#fff"/><path d="M229.3,937.174c-7.673,0-7.685,11.924,0,11.924S236.983,937.174,229.3,937.174Z" transform="translate(-141.269 -843.046)" fill="#fff"/><path d="M279.964,915.174c-7.672,0-7.684,11.924,0,11.924S287.65,915.174,279.964,915.174Z" transform="translate(-137.012 -844.894)" fill="#fff"/><path d="M341.964,927.174c-7.672,0-7.683,11.924,0,11.924S349.65,927.174,341.964,927.174Z" transform="translate(-131.804 -843.886)" fill="#fff"/><path d="M357.3,942.507c-7.673,0-7.685,11.924,0,11.924S364.983,942.507,357.3,942.507Z" transform="translate(-130.515 -842.598)" fill="#fff"/><path d="M383.964,961.174c-7.672,0-7.684,11.924,0,11.924S391.65,961.174,383.964,961.174Z" transform="translate(-128.275 -841.03)" fill="#fff"/><path d="M503.464,886.174c-7.672,0-7.683,11.924,0,11.924S511.15,886.174,503.464,886.174Z" transform="translate(-118.236 -847.331)" fill="#fff"/><path d="M602.631,921.174c-7.673,0-7.685,11.924,0,11.924S610.317,921.174,602.631,921.174Z" transform="translate(-109.904 -844.39)" fill="#fff"/><path d="M661.964,904.507c-7.672,0-7.684,11.924,0,11.924S669.65,904.507,661.964,904.507Z" transform="translate(-104.92 -845.79)" fill="#fff"/><path d="M685.3,925.841c-7.673,0-7.685,11.924,0,11.924S692.983,925.841,685.3,925.841Z" transform="translate(-102.959 -843.998)" fill="#fff"/><path d="M706.631,958.507c-7.673,0-7.685,11.924,0,11.924S714.317,958.507,706.631,958.507Z" transform="translate(-101.167 -841.254)" fill="#fff"/><path d="M719.3,918.507c-7.673,0-7.685,11.924,0,11.924S726.983,918.507,719.3,918.507Z" transform="translate(-100.103 -844.614)" fill="#fff"/><path d="M235.761,956.341c-4.184,0-4.192,6.5,0,6.5S239.954,956.341,235.761,956.341Z" transform="translate(-140.506 -841.436)" fill="#fff"/><path d="M260.428,948.341c-4.184,0-4.192,6.5,0,6.5S264.621,948.341,260.428,948.341Z" transform="translate(-138.434 -842.108)" fill="#fff"/><path d="M310.428,925.674c-4.184,0-4.192,6.5,0,6.5S314.621,925.674,310.428,925.674Z" transform="translate(-134.233 -844.012)" fill="#fff"/><path d="M377.1,939.007c-4.185,0-4.192,6.5,0,6.5S381.288,939.007,377.1,939.007Z" transform="translate(-128.632 -842.892)" fill="#fff"/><path d="M398.864,911.007c-4.185,0-4.192,6.5,0,6.5S403.056,911.007,398.864,911.007Z" transform="translate(-126.803 -845.244)" fill="#fff"/><path d="M430.012,926.676c-4.184,0-4.192,6.5,0,6.5S434.205,926.676,430.012,926.676Z" transform="translate(-124.187 -843.928)" fill="#fff"/><path d="M591.761,906.341c-4.184,0-4.192,6.5,0,6.5S595.954,906.341,591.761,906.341Z" transform="translate(-110.598 -845.636)" fill="#fff"/><path d="M631.1,911.007c-4.185,0-4.192,6.5,0,6.5S635.288,911.007,631.1,911.007Z" transform="translate(-107.293 -845.244)" fill="#fff"/><path d="M707.761,900.341c-4.184,0-4.192,6.5,0,6.5S711.954,900.341,707.761,900.341Z" transform="translate(-100.852 -846.14)" fill="#fff"/><path d="M731.761,942.007c-4.184,0-4.191,6.5,0,6.5S735.954,942.007,731.761,942.007Z" transform="translate(-98.836 -842.64)" fill="#fff"/><path d="M701.761,936.341c-4.184,0-4.192,6.5,0,6.5S705.954,936.341,701.761,936.341Z" transform="translate(-101.356 -843.116)" fill="#fff"/><path d="M562.428,850.341c-4.184,0-4.192,6.5,0,6.5S566.621,850.341,562.428,850.341Z" transform="translate(-113.062 -850.341)" fill="#fff"/></g></g></svg>