<svg xmlns="http://www.w3.org/2000/svg" width="40.832" height="37.053" viewBox="0 0 40.832 37.053">
  <g id="trophy" transform="translate(-0.134 -1.666)">
    <path id="Path_8927" data-name="Path 8927" d="M39.868,22.988C35.546,16.37,36.005,9.587,33.922,6.4S25.63-2.291,10.96,7.291.022,27.29,2.314,30.8C13.043,47.22,47.523,34.708,39.868,22.988Z" transform="translate(0 0.035)" fill="#fff"/>
    <path id="Path_8928" data-name="Path 8928" d="M29.464,22.689a1.714,1.714,0,1,1,1.714-1.714A1.716,1.716,0,0,1,29.464,22.689Zm0-2.286a.571.571,0,1,0,.571.571A.572.572,0,0,0,29.464,20.4Z" transform="translate(3.943 2.512)" fill="#a4afc1"/>
    <path id="Path_8929" data-name="Path 8929" d="M0,0H2.286V1.143H0Z" transform="translate(10.245 3.483) rotate(-45)" fill="#a4afc1"/>
    <path id="Path_8930" data-name="Path 8930" d="M0,0H2.286V1.143H0Z" transform="translate(5.598 8.129) rotate(-45)" fill="#a4afc1"/>
    <path id="Path_8931" data-name="Path 8931" d="M0,0H1.143V2.286H0Z" transform="translate(5.598 2.473) rotate(-45)" fill="#a4afc1"/>
    <path id="Path_8932" data-name="Path 8932" d="M16.75,22.96h2.857v4.331H16.75Z" transform="translate(2.372 3.04)" fill="#f3f3f1"/>
    <path id="Path_8933" data-name="Path 8933" d="M23.463,29.607H13.75v-.571a2.285,2.285,0,0,1,2.286-2.286h5.142a2.285,2.285,0,0,1,2.286,2.286Z" transform="translate(1.944 3.581)" fill="#f3f3f1"/>
    <path id="Path_8934" data-name="Path 8934" d="M26.177,6.75H11.893A1.143,1.143,0,0,0,10.75,7.893v8.285c.046,6.857,8.285,9.713,8.285,9.713s8.285-2.857,8.285-9.713V7.893A1.143,1.143,0,0,0,26.177,6.75Z" transform="translate(1.516 0.726)" fill="#ffe985"/>
    <path id="Path_8935" data-name="Path 8935" d="M13.036,16.178V7.893A1.143,1.143,0,0,1,14.178,6.75H11.893A1.143,1.143,0,0,0,10.75,7.893v8.285c.046,6.857,8.285,9.713,8.285,9.713s.458-.161,1.146-.485C17.922,24.339,13.071,21.44,13.036,16.178Z" transform="translate(1.516 0.726)" fill="#f6d954"/>
    <path id="Path_8936" data-name="Path 8936" d="M18.321,26.75H16.036a2.285,2.285,0,0,0-2.286,2.286v.571h2.286v-.571A2.285,2.285,0,0,1,18.321,26.75Z" transform="translate(1.944 3.581)" fill="#d5dbe1"/>
    <path id="Path_8937" data-name="Path 8937" d="M16.75,22.96h2.857v4.331H16.75Z" transform="translate(2.372 3.04)" fill="#f3f3f1"/>
    <path id="Path_8938" data-name="Path 8938" d="M23.23,22.771l-.189-.822-.635-.593.011-.011a.858.858,0,0,1,.429-.245c3.059-.7,6.3-4.547,6.593-10.387H25.656V9h4.662a.857.857,0,0,1,.857.857c0,7.284-4,12.01-7.946,12.914Z" transform="translate(3.18 1.047)"/>
    <path id="Path_8939" data-name="Path 8939" d="M13.852,22.758C9.951,21.8,6,17.058,6,9.857A.857.857,0,0,1,6.857,9h4.571v1.714H7.735c.282,5.833,3.423,9.615,6.526,10.379Z" transform="translate(0.837 1.047)"/>
    <path id="Path_8940" data-name="Path 8940" d="M19.714,28.148H16.857A.857.857,0,0,1,16,27.291V22.96h1.714v3.474h1.143V22.96h1.714v4.331A.857.857,0,0,1,19.714,28.148Z" transform="translate(2.265 3.04)"/>
    <path id="Path_8941" data-name="Path 8941" d="M23.571,30.571H13.857A.857.857,0,0,1,13,29.714v-.571A3.145,3.145,0,0,1,16.143,26h5.142a3.145,3.145,0,0,1,3.143,3.143v.571A.857.857,0,0,1,23.571,30.571Zm-8.828-1.714h7.942a1.431,1.431,0,0,0-1.4-1.143H16.143a1.43,1.43,0,0,0-1.4,1.143Z" transform="translate(1.837 3.474)"/>
    <path id="Path_8942" data-name="Path 8942" d="M19.142,26.855a.85.85,0,0,1-.281-.048c-.36-.123-8.812-3.139-8.861-10.517V8a2,2,0,0,1,2-2h8.837V7.714H12A.286.286,0,0,0,11.714,8v8.285c.037,5.491,6.045,8.237,7.428,8.8,1.385-.56,7.428-3.319,7.428-8.8V8a.286.286,0,0,0-.286-.286H24.8V6h1.486a2,2,0,0,1,2,2v8.285c0,7.382-8.5,10.4-8.862,10.524a.867.867,0,0,1-.28.047Z" transform="translate(1.408 0.619)"/>
    <path id="Path_8943" data-name="Path 8943" d="M2,28.91H38.568v1.246H2Z" transform="translate(0.266 3.889)"/>
  </g>
</svg>
