<svg xmlns="http://www.w3.org/2000/svg" width="24.884" height="23.575" viewBox="0 0 24.884 23.575"><g transform="translate(-0.026 0.22)"><path d="M5532-235.024h-7.533c-.105-.01-.208-.015-.314-.015-1.423,0-2.852.047-4.275-.006a3.13,3.13,0,0,1-2.972-3.165c0-5.437.01-10.876,0-16.318a3.175,3.175,0,0,1,3.129-3.207c1.751-.047,3.508-.011,5.265-.011.032,0,.074-.015.089.038-.011.093-.1.1-.161.14a11.215,11.215,0,0,0-2.769,2.226,10.054,10.054,0,0,0-2.524,5.156,9.9,9.9,0,0,0,3.015,8.92.955.955,0,0,1,.145,1.382,5.167,5.167,0,0,1-1.746,1.642c-.073.042-.146.093-.219.14-.11.093-.042.14.052.182a.647.647,0,0,0,.079.131c.6.531,1.168,1.1,1.756,1.642.277.256.552.521.819.787a.527.527,0,0,0,.077.055.5.5,0,0,1-.077-.061c-.267-.271-.542-.531-.819-.787-.588-.542-1.157-1.11-1.756-1.642a.7.7,0,0,1-.079-.131,7.942,7.942,0,0,0,3.906-.307c.433-.131.865-.26,1.3-.37a1.507,1.507,0,0,1,.9.042,13.026,13.026,0,0,0,9.781-.375,11.537,11.537,0,0,0,3.514-2.408c.052-.053.088-.131.182-.136.047.074.021.152.021.229v3.051a3.153,3.153,0,0,1-3.127,3.175h-.026q-.938,0-1.877,0C5534.506-235.02,5533.255-235.024,5532-235.024Z" transform="translate(-5516.41 258.01)" fill="#015f41"/><path d="M122.861,130.434c.787,0,1.528-.005,2.263,0,.412.005.636.177.678.506a.585.585,0,0,1-.641.693c-.845.01-1.684.005-2.529.005-.245,0-.485.01-.73-.005a.766.766,0,0,1-.746-.391.779.779,0,0,1,.156-.85c.8-1.022,1.611-2.049,2.419-3.071.047-.063.094-.125.141-.182-.052-.089-.125-.047-.188-.052-.563-.005-1.131,0-1.694-.005a1.9,1.9,0,0,1-.386-.042.546.546,0,0,1-.01-1.064,1.6,1.6,0,0,1,.386-.047c.928-.005,1.861-.005,2.789,0a1.729,1.729,0,0,1,.49.057.569.569,0,0,1,.365.792,3.689,3.689,0,0,1-.521.808q-1.025,1.306-2.049,2.6C123,130.251,122.945,130.319,122.861,130.434Z" transform="translate(-114.301 -119.131)" fill="#015f41"/><path d="M213.566,119.42a.8.8,0,0,1,.469-.355.64.64,0,0,1,.8.6c.016,1.043.01,2.085,0,3.128a.616.616,0,0,1-.433.589.634.634,0,0,1-.73-.2c-.089-.109-.125-.13-.25-.031a1.6,1.6,0,0,1-1.59.266,2.056,2.056,0,0,1-1.413-1.908,2.162,2.162,0,0,1,1.064-2.268A1.651,1.651,0,0,1,213.566,119.42Zm-1.846,1.9a1.138,1.138,0,0,0,.219.631.861.861,0,0,0,1.2.172.9.9,0,0,0,.172-.172,1.3,1.3,0,0,0,0-1.444.783.783,0,0,0-.62-.328C212.116,120.144,211.715,120.588,211.72,121.323Zm5.459.031a2.219,2.219,0,1,1,2.419,2.153A2.127,2.127,0,0,1,217.179,121.354Zm1.309-.125a1.154,1.154,0,0,0,.224.73.85.85,0,0,0,1.2.156,1,1,0,0,0,.151-.146,1.3,1.3,0,0,0,.005-1.46.8.8,0,0,0-.62-.328A.93.93,0,0,0,218.487,121.229Zm-1.767-.912c0,.808.005,1.616,0,2.424a.678.678,0,0,1-.657.688.81.81,0,0,1-.193-.021.676.676,0,0,1-.459-.673v-4.145c0-.245-.005-.485,0-.73a.654.654,0,1,1,1.309.01C216.725,118.685,216.72,119.5,216.72,120.316Z" transform="translate(-198.957 -110.86)" fill="#015f41"/><path d="M4.389,1H21.5a3.389,3.389,0,0,1,3.389,3.389v15.8A3.389,3.389,0,0,1,21.5,23.576H4.389A3.389,3.389,0,0,1,1,20.187V4.389A3.389,3.389,0,0,1,4.389,1Z" transform="translate(-0.474 -0.72)" fill="none" stroke="#fff" stroke-miterlimit="10" stroke-width="1"/></g></svg>