<svg xmlns="http://www.w3.org/2000/svg" width="17.001" height="17" viewBox="0 0 17.001 17"><g transform="translate(0.003)"><g transform="translate(-0.003)"><path d="M8.037,10a6.861,6.861,0,0,1-2.072-3.9.583.583,0,0,1,.167-.488L7.446,4.307a.586.586,0,0,0,.083-.725L5.438.335A.586.586,0,0,0,4.678.121L1.322,1.7A.583.583,0,0,0,1,2.285,16.224,16.224,0,0,0,5.94,12.1a16.219,16.219,0,0,0,9.814,4.94.583.583,0,0,0,.582-.322l1.581-3.356A.586.586,0,0,0,17.7,12.6l-3.246-2.09a.586.586,0,0,0-.725.082L12.42,11.907a.583.583,0,0,1-.488.167A6.861,6.861,0,0,1,8.037,10Z" transform="translate(-0.997 -0.042)" fill="#015f41"/><path d="M33.569,16.155a.586.586,0,0,1-.586-.586,4.4,4.4,0,0,0-4.4-4.4.586.586,0,1,1,0-1.172,5.575,5.575,0,0,1,5.569,5.569A.586.586,0,0,1,33.569,16.155Z" transform="translate(-20.085 -7.069)" fill="#015f41"/><path d="M36.5,9.086a.586.586,0,0,1-.586-.586,7.336,7.336,0,0,0-7.328-7.328.586.586,0,1,1,0-1.172,8.509,8.509,0,0,1,8.5,8.5.586.586,0,0,1-.586.586Z" transform="translate(-20.085 0)" fill="#015f41"/></g></g></svg>