<svg xmlns="http://www.w3.org/2000/svg" width="1149.565" height="330.839" viewBox="0 0 1149.565 330.839">
  <g id="Group_4825" data-name="Group 4825" transform="translate(-129.495 -239.092) rotate(-2)">
    <ellipse id="Ellipse_94" data-name="Ellipse 94" cx="177.702" cy="22.118" rx="177.702" ry="22.118" transform="translate(111.069 529.92)" fill="#dde8ee" opacity="0.5"/>
    <ellipse id="Ellipse_95" data-name="Ellipse 95" cx="121.292" cy="22.118" rx="121.292" ry="22.118" transform="translate(487.625 529.92)" fill="#dde8ee" opacity="0.5"/>
    <ellipse id="Ellipse_96" data-name="Ellipse 96" cx="121.292" cy="22.119" rx="121.292" ry="22.119" transform="translate(755.489 523.245)" fill="#dde8ee" opacity="0.5"/>
    <ellipse id="Ellipse_97" data-name="Ellipse 97" cx="121.292" cy="22.118" rx="121.292" ry="22.118" transform="translate(1017.734 514.811)" fill="#dde8ee" opacity="0.5"/>
    <g id="Group_4824" data-name="Group 4824" transform="translate(151.453 280.56)">
      <g id="Group_4745" data-name="Group 4745" transform="translate(877.777)">
        <g id="Group_4736" data-name="Group 4736">
          <path id="Path_8948" data-name="Path 8948" d="M560.615,313.811s17.651-7.527,31.166,11.638C591.781,325.449,567.283,337.915,560.615,313.811Z" transform="translate(-452.152 -239.746)" fill="#93522e"/>
          <path id="Path_8949" data-name="Path 8949" d="M562.584,314.624s11.576-4.935,20.439,7.634C583.023,322.258,566.957,330.434,562.584,314.624Z" transform="translate(-449.625 -238.058)" fill="#844525"/>
          <g id="Group_4730" data-name="Group 4730" transform="translate(116.427)">
            <g id="Group_4726" data-name="Group 4726" transform="translate(11.706)">
              <path id="Path_8950" data-name="Path 8950" d="M593.364,362.942a1.447,1.447,0,0,1-1.066-1.283c-.507-6.28-4.077-9.016-8.589-12.474-4.871-3.734-10.4-7.968-13.5-17.6-6.038-18.719,17.79-49.182,18.809-50.467a1.429,1.429,0,0,1,2.035-.24,1.447,1.447,0,0,1,.24,2.035c-.24.3-23.892,30.528-18.324,47.784,2.83,8.767,7.968,12.706,12.5,16.184,4.684,3.588,9.1,6.977,9.715,14.543a1.445,1.445,0,0,1-1.327,1.56A1.485,1.485,0,0,1,593.364,362.942Z" transform="translate(-569.228 -280.56)" fill="#592614"/>
            </g>
            <g id="Group_4727" data-name="Group 4727" transform="translate(1.755 7.995)">
              <path id="Path_8951" data-name="Path 8951" d="M577.068,313.288a1.43,1.43,0,0,1-.215-.075c-5.428-2.407-9.066-6.013-10.815-10.722-3.117-8.411.975-17.215,1.151-17.587a1.408,1.408,0,0,1,1.932-.685,1.447,1.447,0,0,1,.69,1.925c-.039.082-3.747,8.1-1.046,15.355,1.464,3.937,4.586,6.988,9.27,9.064a1.45,1.45,0,0,1-.966,2.724Z" transform="translate(-564.871 -284.061)" fill="#592614"/>
            </g>
            <g id="Group_4728" data-name="Group 4728" transform="translate(0 51.939)">
              <path id="Path_8952" data-name="Path 8952" d="M575.353,313.933c-8.363-2.245-11-8.29-11.14-8.621a1.45,1.45,0,0,1,2.674-1.124h0c.153.352,3.894,8.687,17.671,7.573a1.469,1.469,0,0,1,1.562,1.329,1.448,1.448,0,0,1-1.329,1.56A27.547,27.547,0,0,1,575.353,313.933Z" transform="translate(-564.102 -303.303)" fill="#592614"/>
            </g>
            <g id="Group_4729" data-name="Group 4729" transform="translate(24.008 39.698)">
              <path id="Path_8953" data-name="Path 8953" d="M576.238,326.3a1.444,1.444,0,0,1-.936-.788c-.1-.222-2.446-5.481,2.149-11.823,3.711-5.136,1.676-13.867,1.653-13.953a1.45,1.45,0,0,1,2.82-.678c.1.411,2.364,10.126-2.128,16.328-3.553,4.914-1.925,8.76-1.857,8.922a1.454,1.454,0,0,1-1.7,1.991Z" transform="translate(-574.615 -297.943)" fill="#592614"/>
            </g>
          </g>
          <g id="Group_4735" data-name="Group 4735" transform="translate(91.006 1.837)">
            <g id="Group_4731" data-name="Group 4731" transform="translate(15.201)">
              <path id="Path_8954" data-name="Path 8954" d="M592.766,360.816a1.445,1.445,0,0,1-1.336-1c-1.941-5.992-6.045-7.829-11.236-10.151-5.6-2.51-11.953-5.353-17.2-14.006-10.194-16.819,5.954-51.961,6.648-53.445a1.43,1.43,0,0,1,1.925-.7,1.446,1.446,0,0,1,.7,1.923c-.165.352-16.2,35.221-6.8,50.723,4.777,7.879,10.688,10.523,15.9,12.862,5.385,2.409,10.466,4.684,12.809,11.9a1.449,1.449,0,0,1-1.42,1.9Z" transform="translate(-559.627 -281.364)" fill="#6b331b"/>
            </g>
            <g id="Group_4732" data-name="Group 4732" transform="translate(0 14.079)">
              <path id="Path_8955" data-name="Path 8955" d="M569.585,314.02a1.571,1.571,0,0,1-.226-.025c-5.837-1.087-10.21-3.757-13-7.934-4.976-7.465-3.026-16.975-2.939-17.379a1.408,1.408,0,0,1,1.72-1.112,1.446,1.446,0,0,1,1.117,1.715c-.018.087-1.774,8.751,2.53,15.182,2.332,3.492,6.072,5.741,11.11,6.677a1.451,1.451,0,0,1-.311,2.875Z" transform="translate(-552.971 -287.529)" fill="#6b331b"/>
            </g>
            <g id="Group_4733" data-name="Group 4733" transform="translate(6.733 57.735)">
              <path id="Path_8956" data-name="Path 8956" d="M569.023,314.765c-8.653-.253-12.617-5.524-12.83-5.817a1.451,1.451,0,0,1,2.345-1.71h0c.228.306,5.794,7.552,18.943,3.289a1.463,1.463,0,0,1,1.825.932,1.448,1.448,0,0,1-.932,1.825A27.567,27.567,0,0,1,569.023,314.765Z" transform="translate(-555.919 -306.645)" fill="#6b331b"/>
            </g>
            <g id="Group_4734" data-name="Group 4734" transform="translate(31.594 39.255)">
              <path id="Path_8957" data-name="Path 8957" d="M570.308,327.163a1.439,1.439,0,0,1-1.094-.55c-.149-.192-3.645-4.766-.639-12,2.425-5.855-1.571-13.88-1.615-13.958a1.45,1.45,0,0,1,2.587-1.311c.194.377,4.638,9.306,1.7,16.379-2.322,5.6.151,8.968.254,9.11a1.451,1.451,0,0,1-.267,2.026A1.423,1.423,0,0,1,570.308,327.163Z" transform="translate(-566.805 -298.553)" fill="#6b331b"/>
            </g>
          </g>
          <path id="Path_8958" data-name="Path 8958" d="M567.55,367.283,588.094,433.6l15.116,23.307,4.28-2.624L593.166,431.09s-5.04-45.77,3.816-74.135C596.982,356.954,577.361,335.588,567.55,367.283Z" transform="translate(-443.25 -191.534)" fill="#7c4022"/>
          <path id="Path_8959" data-name="Path 8959" d="M555.026,357.787s-15.328,16.34-15.451,27.758l-19.121-8.44-3.088,56.85,3.585,1.516,4.245-44.838S563.328,428,587.7,388.356,555.026,357.787,555.026,357.787Z" transform="translate(-507.67 -182.572)" fill="#7c4022"/>
          <path id="Path_8960" data-name="Path 8960" d="M552.945,363.336S530,372.788,529.989,389.667s1.08,28.966,39.371,22.373c25.555-4.4,41.344,1.868,49.022,6.522a19.9,19.9,0,0,0,19.87.836c6.084-3.35,12.467-9.918,15.467-22.727,6.614-28.258-14.223-74.2-14.223-74.2l-14.935-.438s6.977,41.677-2.348,47.19S571.591,354.548,552.945,363.336Z" transform="translate(-491.467 -227.321)" fill="#93522e"/>
          <path id="Path_8961" data-name="Path 8961" d="M551.429,354.22s-15.328,16.34-15.451,27.758l-19.121-8.441-3.087,56.848,3.585,1.521,4.245-44.84s38.131,37.363,62.507-2.277S551.429,354.22,551.429,354.22Z" transform="translate(-512.288 -187.151)" fill="#93522e"/>
          <path id="Path_8962" data-name="Path 8962" d="M571.761,377.127l45.475,52.459,23.211,15.262,2.864-4.122-22.44-15.477s-23.02-39.88-26.317-69.413C594.555,355.836,568,344.162,571.761,377.127Z" transform="translate(-438.312 -186.504)" fill="#93522e"/>
          <path id="Path_8963" data-name="Path 8963" d="M634.418,327.136S613.025,329.143,602,318.81s-27.713-7.034-31.015,6.78,21.282,37.711,65.124,6.6Z" transform="translate(-439.214 -239.232)" fill="#93522e"/>
          <path id="Path_8964" data-name="Path 8964" d="M607.385,322.688a5.121,5.121,0,1,1-4.969-5.268A5.119,5.119,0,0,1,607.385,322.688Z" transform="translate(-405.259 -233.246)" fill="#191818"/>
          <path id="Path_8965" data-name="Path 8965" d="M514.567,387.037l-1.391,3.519a.788.788,0,0,0,.422,1.018,21.738,21.738,0,0,0,6.248,1.658.8.8,0,0,0,.708-1.263c-1.053-1.446-2.247-3.471-2.236-4.741Z" transform="translate(-513.12 -143.876)" fill="#6b331b"/>
          <path id="Path_8966" data-name="Path 8966" d="M582.977,398l1.6,3.843a.87.87,0,0,0,1.117.48,24.045,24.045,0,0,0,6.2-3.487.876.876,0,0,0-.411-1.539,7.2,7.2,0,0,1-4.227-1.991Z" transform="translate(-423.446 -133.256)" fill="#6b331b"/>
          <path id="Path_8967" data-name="Path 8967" d="M601.524,396.464l3.35,2.473a.867.867,0,0,0,1.2-.162A24.039,24.039,0,0,0,609.6,392.6a.877.877,0,0,0-1.144-1.11,7.223,7.223,0,0,1-4.65.466Z" transform="translate(-399.638 -138.24)" fill="#6b331b"/>
          <path id="Path_8968" data-name="Path 8968" d="M518.2,390.336l-1.393,3.519a.79.79,0,0,0,.425,1.021,21.8,21.8,0,0,0,6.246,1.658.8.8,0,0,0,.708-1.263c-1.051-1.448-2.247-3.473-2.233-4.743Z" transform="translate(-508.463 -139.641)" fill="#6b331b"/>
          <path id="Path_8969" data-name="Path 8969" d="M537.918,336.142s-5.538,12.752,6.42,20.11l-6.438,5.714S515.056,348.385,537.918,336.142Z" transform="translate(-494.337 -209.209)" fill="#93522e"/>
        </g>
        <g id="Group_4737" data-name="Group 4737" transform="translate(148.775 82.729)">
          <circle id="Ellipse_98" data-name="Ellipse 98" cx="5.76" cy="5.76" r="5.76" fill="#fff"/>
          <path id="Path_8970" data-name="Path 8970" d="M584.924,323.463a2.967,2.967,0,1,0-4.147-.635A2.967,2.967,0,0,0,584.924,323.463Z" transform="translate(-575.785 -315.093)" fill="#1e1e1d"/>
          <path id="Path_8971" data-name="Path 8971" d="M581.836,320.632a.829.829,0,1,0-1.16-.176A.829.829,0,0,0,581.836,320.632Z" transform="translate(-575.381 -313.771)" fill="#fff"/>
        </g>
        <path id="Path_8972" data-name="Path 8972" d="M575.939,336.789s.393,11.265-6.255,14.1l33.39,25.381s3.485-20.4-1-30.037Z" transform="translate(-440.51 -208.379)" fill="#e53013"/>
        <path id="Path_8973" data-name="Path 8973" d="M570.6,344.154l8.708,47.094s-5.138-3.017-24.7-4.131l-.441-46.829Z" transform="translate(-460.432 -203.887)" fill="#e53013"/>
        <g id="Group_4738" data-name="Group 4738" transform="translate(131.453 134.334)">
          <path id="Path_8974" data-name="Path 8974" d="M577.951,343.491a3.649,3.649,0,1,1-3.158-4.079A3.648,3.648,0,0,1,577.951,343.491Z" transform="translate(-570.682 -339.383)" fill="#ffb115"/>
          <path id="Path_8975" data-name="Path 8975" d="M574.759,339.487a3.633,3.633,0,0,1-3.417,6.344,3.638,3.638,0,1,0,3.417-6.344Z" transform="translate(-569.835 -339.249)" fill="#f4a00b"/>
          <path id="Path_8976" data-name="Path 8976" d="M573.655,339.773c.185.356-.217.93-.9,1.283s-1.379.352-1.564,0,.217-.929.9-1.283S573.47,339.419,573.655,339.773Z" transform="translate(-570.081 -339.223)" fill="#ffb93e"/>
          <path id="Path_8977" data-name="Path 8977" d="M572.5,340.525c.1.185-.114.484-.468.669s-.722.183-.818,0,.114-.484.468-.669S572.4,340.338,572.5,340.525Z" transform="translate(-570.03 -338.097)" fill="#ffb93e"/>
        </g>
        <g id="Group_4739" data-name="Group 4739" transform="translate(144.742 141.786)">
          <path id="Path_8978" data-name="Path 8978" d="M583.77,346.754a3.649,3.649,0,1,1-3.158-4.079A3.648,3.648,0,0,1,583.77,346.754Z" transform="translate(-576.501 -342.646)" fill="#ffb115"/>
          <path id="Path_8979" data-name="Path 8979" d="M580.577,342.75a3.632,3.632,0,0,1-3.416,6.344,3.638,3.638,0,1,0,3.416-6.344Z" transform="translate(-575.654 -342.513)" fill="#f4a00b"/>
          <path id="Path_8980" data-name="Path 8980" d="M579.474,343.036c.185.356-.217.93-.9,1.283s-1.379.352-1.564,0,.217-.929.9-1.281S579.289,342.682,579.474,343.036Z" transform="translate(-575.9 -342.486)" fill="#ffb93e"/>
          <path id="Path_8981" data-name="Path 8981" d="M578.318,343.787c.1.185-.114.484-.468.669s-.722.185-.818,0,.114-.486.468-.671S578.22,343.6,578.318,343.787Z" transform="translate(-575.849 -341.36)" fill="#ffb93e"/>
        </g>
        <g id="Group_4740" data-name="Group 4740" transform="translate(158.133 151.225)">
          <path id="Path_8982" data-name="Path 8982" d="M589.634,350.889a3.649,3.649,0,1,1-3.161-4.081A3.648,3.648,0,0,1,589.634,350.889Z" transform="translate(-582.365 -346.779)" fill="#ffb115"/>
          <path id="Path_8983" data-name="Path 8983" d="M586.441,346.884a3.632,3.632,0,0,1-3.417,6.344,3.638,3.638,0,1,0,3.417-6.344Z" transform="translate(-581.519 -346.645)" fill="#f4a00b"/>
          <path id="Path_8984" data-name="Path 8984" d="M585.336,347.171c.185.354-.217.929-.9,1.281s-1.379.354-1.564,0,.217-.93.9-1.284S585.151,346.817,585.336,347.171Z" transform="translate(-581.765 -346.619)" fill="#ffb93e"/>
          <path id="Path_8985" data-name="Path 8985" d="M584.181,347.92c.1.187-.112.486-.468.671s-.719.183-.818,0,.114-.484.468-.669S584.085,347.735,584.181,347.92Z" transform="translate(-581.714 -345.493)" fill="#ffb93e"/>
        </g>
        <g id="Group_4741" data-name="Group 4741" transform="translate(98.139 135.86)">
          <path id="Path_8986" data-name="Path 8986" d="M563.363,344.162a3.649,3.649,0,1,1-3.158-4.081A3.646,3.646,0,0,1,563.363,344.162Z" transform="translate(-556.094 -340.051)" fill="#ffb115"/>
          <path id="Path_8987" data-name="Path 8987" d="M560.17,340.156a3.632,3.632,0,0,1-3.416,6.344,3.638,3.638,0,1,0,3.416-6.344Z" transform="translate(-555.247 -339.917)" fill="#f4a00b"/>
          <path id="Path_8988" data-name="Path 8988" d="M559.067,340.443c.185.354-.217.93-.9,1.281s-1.379.354-1.564,0,.217-.927.9-1.281S558.882,340.089,559.067,340.443Z" transform="translate(-555.493 -339.891)" fill="#ffb93e"/>
          <path id="Path_8989" data-name="Path 8989" d="M557.911,341.192c.1.185-.114.486-.468.671s-.722.183-.818,0,.114-.484.468-.669S557.813,341.007,557.911,341.192Z" transform="translate(-555.442 -338.765)" fill="#ffb93e"/>
        </g>
        <g id="Group_4742" data-name="Group 4742" transform="translate(99.075 149.345)">
          <path id="Path_8990" data-name="Path 8990" d="M563.775,350.067a3.65,3.65,0,1,1-3.161-4.081A3.65,3.65,0,0,1,563.775,350.067Z" transform="translate(-556.504 -345.956)" fill="#ffb115"/>
          <path id="Path_8991" data-name="Path 8991" d="M560.58,346.061a3.637,3.637,0,0,1-2.6,6.552,3.542,3.542,0,0,1-.813-.21,3.594,3.594,0,0,0,1.683.687,3.643,3.643,0,0,0,1.733-7.029Z" transform="translate(-555.657 -345.822)" fill="#f4a00b"/>
          <path id="Path_8992" data-name="Path 8992" d="M559.477,346.348c.185.354-.217.93-.9,1.281s-1.379.354-1.564,0,.217-.927.9-1.281S559.292,345.994,559.477,346.348Z" transform="translate(-555.903 -345.796)" fill="#ffb93e"/>
          <path id="Path_8993" data-name="Path 8993" d="M558.321,347.1c.1.185-.114.486-.468.671s-.722.183-.818,0,.114-.484.468-.669S558.225,346.912,558.321,347.1Z" transform="translate(-555.852 -344.67)" fill="#ffb93e"/>
        </g>
        <g id="Group_4743" data-name="Group 4743" transform="translate(100.902 163.924)">
          <path id="Path_8994" data-name="Path 8994" d="M564.573,356.448a3.649,3.649,0,1,1-3.161-4.079A3.653,3.653,0,0,1,564.573,356.448Z" transform="translate(-557.304 -352.34)" fill="#ffb115"/>
          <path id="Path_8995" data-name="Path 8995" d="M561.379,352.444a3.632,3.632,0,0,1-3.416,6.344,3.638,3.638,0,1,0,3.416-6.344Z" transform="translate(-556.458 -352.206)" fill="#f4a00b"/>
          <path id="Path_8996" data-name="Path 8996" d="M560.276,352.73c.185.354-.217.929-.9,1.281s-1.379.354-1.564,0,.217-.929.9-1.283S560.091,352.376,560.276,352.73Z" transform="translate(-556.704 -352.18)" fill="#ffb93e"/>
          <path id="Path_8997" data-name="Path 8997" d="M559.12,353.482c.1.185-.114.484-.468.669s-.719.183-.818,0,.114-.484.468-.669S559.024,353.295,559.12,353.482Z" transform="translate(-556.653 -351.054)" fill="#ffb93e"/>
        </g>
        <g id="Group_4744" data-name="Group 4744" transform="translate(101.917 179.076)">
          <circle id="Ellipse_99" data-name="Ellipse 99" cx="3.649" cy="3.649" r="3.649" transform="translate(0 1.274) rotate(-10.054)" fill="#ffb115"/>
          <path id="Path_8998" data-name="Path 8998" d="M562.079,359.333a3.632,3.632,0,0,1-3.417,6.344,3.594,3.594,0,0,0,1.683.687,3.645,3.645,0,0,0,1.733-7.031Z" transform="translate(-556.576 -358.515)" fill="#f4a00b"/>
          <path id="Path_8999" data-name="Path 8999" d="M560.974,359.619c.185.356-.217.93-.9,1.283s-1.379.352-1.564,0,.217-.929.9-1.281S560.789,359.265,560.974,359.619Z" transform="translate(-556.822 -358.488)" fill="#ffb93e"/>
          <path id="Path_9000" data-name="Path 9000" d="M559.819,360.37c.1.185-.112.484-.468.669s-.719.185-.818,0,.114-.486.468-.671S559.723,360.185,559.819,360.37Z" transform="translate(-556.772 -357.362)" fill="#ffb93e"/>
        </g>
      </g>
      <g id="Group_4746" data-name="Group 4746" transform="translate(990.175 159.146)">
        <path id="Path_9001" data-name="Path 9001" d="M578.936,358.57q-.891-.113-1.765-.24a150.781,150.781,0,0,1-14.833-3.065l.534-2.126a148.358,148.358,0,0,0,14.609,3.019,43.361,43.361,0,0,0,12.864.352,20.191,20.191,0,0,0,11.439-6.262l1.674,1.418a22.219,22.219,0,0,1-12.766,7.011A41.468,41.468,0,0,1,578.936,358.57Z" transform="translate(-562.338 -350.248)" fill="#e53013"/>
      </g>
      <g id="Group_4747" data-name="Group 4747" transform="translate(774.56 154.881)">
        <path id="Path_9002" data-name="Path 9002" d="M516.171,371.943a110.519,110.519,0,0,1-33.451-9.779c-5.433-2.578-12.026-6.381-14.8-12.93l2.023-.854c2.48,5.867,8.632,9.388,13.716,11.8a108.335,108.335,0,0,0,49.752,10.393c13.389-.422,26.767-3.378,39.706-6.232,6.531-1.443,13.287-2.935,19.987-4.09a218.154,218.154,0,0,1,73.133-.208l-.363,2.167a215.89,215.89,0,0,0-72.4.206c-6.648,1.146-13.378,2.631-19.886,4.067-13.038,2.877-26.518,5.853-40.109,6.285A109.946,109.946,0,0,1,516.171,371.943Z" transform="translate(-467.923 -348.38)" fill="#e53013"/>
      </g>
      <g id="Group_4767" data-name="Group 4767" transform="translate(615.531 11.617)">
        <g id="Group_4758" data-name="Group 4758">
          <path id="Path_9003" data-name="Path 9003" d="M445.781,318.9s17.648-7.527,31.166,11.64C476.947,330.537,452.447,343,445.781,318.9Z" transform="translate(-337.317 -244.834)" fill="#93522e"/>
          <path id="Path_9004" data-name="Path 9004" d="M447.75,319.711s11.576-4.937,20.439,7.632C468.189,327.343,452.123,335.519,447.75,319.711Z" transform="translate(-334.79 -243.145)" fill="#844525"/>
          <g id="Group_4752" data-name="Group 4752" transform="translate(116.428)">
            <g id="Group_4748" data-name="Group 4748" transform="translate(11.706)">
              <path id="Path_9005" data-name="Path 9005" d="M478.53,368.027a1.45,1.45,0,0,1-1.069-1.283c-.5-6.28-4.074-9.014-8.587-12.471-4.871-3.736-10.4-7.968-13.5-17.6-6.038-18.719,17.79-49.182,18.809-50.467a1.449,1.449,0,0,1,2.274,1.8c-.24.306-23.892,30.531-18.324,47.784,2.829,8.767,7.968,12.706,12.5,16.184,4.684,3.588,9.1,6.977,9.715,14.543a1.445,1.445,0,0,1-1.327,1.56A1.428,1.428,0,0,1,478.53,368.027Z" transform="translate(-454.394 -285.647)" fill="#592614"/>
            </g>
            <g id="Group_4749" data-name="Group 4749" transform="translate(1.754 7.995)">
              <path id="Path_9006" data-name="Path 9006" d="M462.235,318.376a1.715,1.715,0,0,1-.215-.075c-5.428-2.407-9.069-6.015-10.815-10.722-3.12-8.413.975-17.214,1.151-17.587a1.411,1.411,0,0,1,1.932-.687,1.449,1.449,0,0,1,.69,1.927c-.039.08-3.748,8.1-1.046,15.355,1.464,3.937,4.586,6.988,9.27,9.064a1.45,1.45,0,0,1-.966,2.724Z" transform="translate(-450.036 -289.147)" fill="#592614"/>
            </g>
            <g id="Group_4750" data-name="Group 4750" transform="translate(0 51.938)">
              <path id="Path_9007" data-name="Path 9007" d="M460.519,319.021c-8.363-2.247-11-8.29-11.14-8.623a1.45,1.45,0,0,1,2.674-1.124h0c.153.352,3.894,8.689,17.671,7.575a1.466,1.466,0,0,1,1.562,1.327,1.451,1.451,0,0,1-1.329,1.562A27.6,27.6,0,0,1,460.519,319.021Z" transform="translate(-449.268 -308.39)" fill="#592614"/>
            </g>
            <g id="Group_4751" data-name="Group 4751" transform="translate(24.007 39.697)">
              <path id="Path_9008" data-name="Path 9008" d="M461.4,331.38a1.438,1.438,0,0,1-.936-.788c-.1-.219-2.446-5.479,2.147-11.823,3.713-5.136,1.679-13.867,1.653-13.953a1.452,1.452,0,0,1,2.823-.678c.1.411,2.364,10.126-2.128,16.328-3.553,4.914-1.925,8.76-1.857,8.922a1.451,1.451,0,0,1-.729,1.909A1.427,1.427,0,0,1,461.4,331.38Z" transform="translate(-459.781 -303.03)" fill="#592614"/>
            </g>
          </g>
          <g id="Group_4757" data-name="Group 4757" transform="translate(91.007 1.836)">
            <g id="Group_4753" data-name="Group 4753" transform="translate(15.201)">
              <path id="Path_9009" data-name="Path 9009" d="M477.931,365.9a1.448,1.448,0,0,1-1.336-1c-1.943-5.995-6.047-7.831-11.236-10.153-5.6-2.508-11.953-5.351-17.2-14.006-10.194-16.819,5.954-51.959,6.648-53.445a1.432,1.432,0,0,1,1.925-.7,1.449,1.449,0,0,1,.7,1.925c-.164.352-16.2,35.219-6.8,50.723,4.777,7.876,10.688,10.523,15.9,12.859,5.385,2.409,10.466,4.686,12.809,11.907a1.446,1.446,0,0,1-.932,1.825A1.492,1.492,0,0,1,477.931,365.9Z" transform="translate(-444.793 -286.451)" fill="#6b331b"/>
            </g>
            <g id="Group_4754" data-name="Group 4754" transform="translate(0 14.078)">
              <path id="Path_9010" data-name="Path 9010" d="M454.751,319.106a1.566,1.566,0,0,1-.226-.023c-5.837-1.089-10.213-3.759-13-7.936-4.976-7.463-3.026-16.975-2.939-17.377a1.408,1.408,0,0,1,1.72-1.114,1.447,1.447,0,0,1,1.117,1.715c-.021.087-1.775,8.751,2.528,15.182,2.334,3.492,6.075,5.741,11.112,6.68a1.449,1.449,0,0,1-.311,2.873Z" transform="translate(-438.137 -292.615)" fill="#6b331b"/>
            </g>
            <g id="Group_4755" data-name="Group 4755" transform="translate(6.733 57.735)">
              <path id="Path_9011" data-name="Path 9011" d="M454.189,319.851c-8.653-.253-12.617-5.524-12.83-5.817a1.451,1.451,0,0,1,2.345-1.711h0c.228.308,5.794,7.554,18.943,3.289a1.466,1.466,0,0,1,1.825.932,1.448,1.448,0,0,1-.932,1.825A27.562,27.562,0,0,1,454.189,319.851Z" transform="translate(-441.085 -311.732)" fill="#6b331b"/>
            </g>
            <g id="Group_4756" data-name="Group 4756" transform="translate(31.594 39.254)">
              <path id="Path_9012" data-name="Path 9012" d="M455.474,332.251a1.454,1.454,0,0,1-1.094-.55c-.148-.192-3.645-4.766-.639-12,2.425-5.853-1.571-13.878-1.615-13.956a1.451,1.451,0,0,1,2.587-1.313c.194.377,4.638,9.308,1.7,16.379-2.322,5.6.151,8.968.254,9.11a1.451,1.451,0,0,1-.27,2.026A1.415,1.415,0,0,1,455.474,332.251Z" transform="translate(-451.971 -303.639)" fill="#6b331b"/>
            </g>
          </g>
          <path id="Path_9013" data-name="Path 9013" d="M452.716,372.369l20.544,66.316,15.116,23.31,4.28-2.624-14.323-23.2s-5.04-45.767,3.816-74.133C482.148,362.042,462.527,340.673,452.716,372.369Z" transform="translate(-328.415 -196.622)" fill="#7c4022"/>
          <path id="Path_9014" data-name="Path 9014" d="M440.192,362.873s-15.328,16.34-15.451,27.761l-19.124-8.443-3.085,56.85,3.585,1.519,4.243-44.838s38.133,37.361,62.509-2.279S440.192,362.873,440.192,362.873Z" transform="translate(-392.835 -187.66)" fill="#7c4022"/>
          <path id="Path_9015" data-name="Path 9015" d="M438.111,368.421s-22.942,9.455-22.956,26.333,1.08,28.964,39.371,22.371c25.552-4.4,41.344,1.868,49.022,6.524a19.9,19.9,0,0,0,19.87.834c6.084-3.35,12.467-9.916,15.465-22.727,6.616-28.258-14.221-74.2-14.221-74.2l-14.935-.436s6.977,41.675-2.348,47.188S456.755,359.635,438.111,368.421Z" transform="translate(-376.631 -232.408)" fill="#93522e"/>
          <path id="Path_9016" data-name="Path 9016" d="M436.6,359.306s-15.328,16.34-15.451,27.761l-19.121-8.443-3.088,56.85,3.585,1.519,4.243-44.84s38.133,37.363,62.509-2.277S436.6,359.306,436.6,359.306Z" transform="translate(-397.453 -192.239)" fill="#93522e"/>
          <path id="Path_9017" data-name="Path 9017" d="M456.927,382.212,502.4,434.671l23.211,15.264,2.864-4.124-22.44-15.477s-23.02-39.88-26.317-69.41C479.721,360.924,453.166,349.247,456.927,382.212Z" transform="translate(-323.477 -191.592)" fill="#93522e"/>
          <path id="Path_9018" data-name="Path 9018" d="M519.584,332.221s-21.394,2.007-32.415-8.324-27.713-7.034-31.015,6.778,21.282,37.711,65.124,6.6Z" transform="translate(-324.379 -244.319)" fill="#93522e"/>
          <path id="Path_9019" data-name="Path 9019" d="M492.551,327.776a5.121,5.121,0,1,1-4.969-5.271A5.121,5.121,0,0,1,492.551,327.776Z" transform="translate(-290.424 -238.334)" fill="#191818"/>
          <path id="Path_9020" data-name="Path 9020" d="M399.734,392.123l-1.391,3.519a.79.79,0,0,0,.422,1.021,21.794,21.794,0,0,0,6.248,1.658.8.8,0,0,0,.706-1.263c-1.05-1.448-2.245-3.473-2.233-4.743Z" transform="translate(-398.286 -148.964)" fill="#6b331b"/>
          <path id="Path_9021" data-name="Path 9021" d="M468.143,403.091l1.6,3.843a.868.868,0,0,0,1.117.48,23.9,23.9,0,0,0,6.2-3.487.875.875,0,0,0-.411-1.537,7.22,7.22,0,0,1-4.227-1.994Z" transform="translate(-308.611 -138.344)" fill="#6b331b"/>
          <path id="Path_9022" data-name="Path 9022" d="M486.69,401.55l3.35,2.473a.867.867,0,0,0,1.2-.162,23.945,23.945,0,0,0,3.526-6.177.876.876,0,0,0-1.144-1.108,7.22,7.22,0,0,1-4.65.464Z" transform="translate(-284.803 -143.327)" fill="#6b331b"/>
          <path id="Path_9023" data-name="Path 9023" d="M403.364,395.423l-1.393,3.519a.787.787,0,0,0,.425,1.019,21.7,21.7,0,0,0,6.246,1.658.8.8,0,0,0,.708-1.263c-1.051-1.446-2.247-3.471-2.234-4.743Z" transform="translate(-393.628 -144.728)" fill="#6b331b"/>
          <path id="Path_9024" data-name="Path 9024" d="M423.084,341.229s-5.538,12.75,6.419,20.11l-6.438,5.714S400.222,353.472,423.084,341.229Z" transform="translate(-379.502 -214.296)" fill="#93522e"/>
        </g>
        <g id="Group_4759" data-name="Group 4759" transform="translate(148.775 82.728)">
          <path id="Path_9025" data-name="Path 9025" d="M472.6,332.274a5.759,5.759,0,1,0-8.05-1.231A5.761,5.761,0,0,0,472.6,332.274Z" transform="translate(-463.433 -321.872)" fill="#fff"/>
          <path id="Path_9026" data-name="Path 9026" d="M470.09,328.549a2.967,2.967,0,1,0-4.147-.635A2.967,2.967,0,0,0,470.09,328.549Z" transform="translate(-460.951 -320.18)" fill="#1e1e1d"/>
          <path id="Path_9027" data-name="Path 9027" d="M467,325.72a.83.83,0,1,0-1.16-.178A.829.829,0,0,0,467,325.72Z" transform="translate(-460.547 -318.858)" fill="#fff"/>
        </g>
        <path id="Path_9028" data-name="Path 9028" d="M461.105,341.875s.393,11.266-6.255,14.1l33.39,25.381s3.485-20.4-1-30.037Z" transform="translate(-325.675 -213.467)" fill="#e53013"/>
        <path id="Path_9029" data-name="Path 9029" d="M455.763,349.24l8.708,47.094s-5.138-3.017-24.7-4.131l-.443-46.829Z" transform="translate(-345.598 -208.975)" fill="#e53013"/>
        <g id="Group_4760" data-name="Group 4760" transform="translate(131.454 134.332)">
          <path id="Path_9030" data-name="Path 9030" d="M463.117,348.58a3.649,3.649,0,1,1-3.158-4.081A3.648,3.648,0,0,1,463.117,348.58Z" transform="translate(-455.848 -344.469)" fill="#ffb115"/>
          <path id="Path_9031" data-name="Path 9031" d="M459.924,344.573a3.631,3.631,0,0,1-3.416,6.344,3.6,3.6,0,0,0,1.683.687,3.645,3.645,0,0,0,1.733-7.031Z" transform="translate(-455.001 -344.336)" fill="#f4a00b"/>
          <path id="Path_9032" data-name="Path 9032" d="M458.821,344.861c.185.354-.217.927-.9,1.281s-1.379.352-1.564,0,.217-.929.9-1.281S458.636,344.505,458.821,344.861Z" transform="translate(-455.247 -344.309)" fill="#ffb93e"/>
          <path id="Path_9033" data-name="Path 9033" d="M457.665,345.61c.1.185-.114.484-.468.669s-.722.185-.818,0,.114-.486.468-.669S457.567,345.425,457.665,345.61Z" transform="translate(-455.196 -343.183)" fill="#ffb93e"/>
        </g>
        <g id="Group_4761" data-name="Group 4761" transform="translate(144.743 141.784)">
          <path id="Path_9034" data-name="Path 9034" d="M468.936,351.842a3.649,3.649,0,1,1-3.158-4.081A3.648,3.648,0,0,1,468.936,351.842Z" transform="translate(-461.667 -347.732)" fill="#ffb115"/>
          <path id="Path_9035" data-name="Path 9035" d="M465.743,347.837a3.637,3.637,0,0,1-2.6,6.552,3.544,3.544,0,0,1-.813-.21,3.594,3.594,0,0,0,1.683.687,3.644,3.644,0,0,0,1.733-7.029Z" transform="translate(-460.82 -347.597)" fill="#f4a00b"/>
          <path id="Path_9036" data-name="Path 9036" d="M464.64,348.124c.185.354-.217.927-.9,1.281s-1.379.354-1.564,0,.217-.927.9-1.281S464.455,347.77,464.64,348.124Z" transform="translate(-461.066 -347.572)" fill="#ffb93e"/>
          <path id="Path_9037" data-name="Path 9037" d="M463.484,348.873c.1.185-.114.484-.468.669s-.722.185-.818,0,.114-.484.468-.669S463.386,348.688,463.484,348.873Z" transform="translate(-461.015 -346.446)" fill="#ffb93e"/>
        </g>
        <g id="Group_4762" data-name="Group 4762" transform="translate(158.134 151.224)">
          <path id="Path_9038" data-name="Path 9038" d="M474.8,355.975a3.649,3.649,0,1,1-3.161-4.079A3.65,3.65,0,0,1,474.8,355.975Z" transform="translate(-467.531 -351.866)" fill="#ffb115"/>
          <path id="Path_9039" data-name="Path 9039" d="M471.606,351.97a3.636,3.636,0,0,1-2.6,6.552,3.536,3.536,0,0,1-.813-.208,3.593,3.593,0,0,0,1.683.687,3.645,3.645,0,0,0,1.733-7.031Z" transform="translate(-466.685 -351.732)" fill="#f4a00b"/>
          <path id="Path_9040" data-name="Path 9040" d="M470.5,352.258c.185.354-.217.927-.9,1.281s-1.379.352-1.564,0,.217-.93.9-1.281S470.318,351.9,470.5,352.258Z" transform="translate(-466.931 -351.706)" fill="#ffb93e"/>
          <path id="Path_9041" data-name="Path 9041" d="M469.347,353.008c.1.185-.114.484-.468.669s-.719.185-.818,0,.114-.486.468-.671S469.251,352.823,469.347,353.008Z" transform="translate(-466.88 -350.58)" fill="#ffb93e"/>
        </g>
        <g id="Group_4763" data-name="Group 4763" transform="translate(98.14 135.86)">
          <path id="Path_9042" data-name="Path 9042" d="M448.529,349.246a3.649,3.649,0,1,1-3.158-4.079A3.648,3.648,0,0,1,448.529,349.246Z" transform="translate(-441.26 -345.138)" fill="#ffb115"/>
          <path id="Path_9043" data-name="Path 9043" d="M445.336,345.242a3.632,3.632,0,0,1-3.416,6.344,3.608,3.608,0,0,0,1.683.687,3.645,3.645,0,0,0,1.733-7.031Z" transform="translate(-440.413 -345.004)" fill="#f4a00b"/>
          <path id="Path_9044" data-name="Path 9044" d="M444.233,345.528c.183.354-.217.93-.9,1.284s-1.379.352-1.562,0,.217-.93.9-1.283S444.048,345.174,444.233,345.528Z" transform="translate(-440.659 -344.978)" fill="#ffb93e"/>
          <path id="Path_9045" data-name="Path 9045" d="M443.075,346.28c.1.185-.112.484-.466.669s-.722.185-.817,0,.112-.484.468-.669S442.979,346.095,443.075,346.28Z" transform="translate(-440.609 -343.852)" fill="#ffb93e"/>
        </g>
        <g id="Group_4764" data-name="Group 4764" transform="translate(99.076 149.345)">
          <path id="Path_9046" data-name="Path 9046" d="M448.939,355.151a3.649,3.649,0,1,1-3.158-4.079A3.648,3.648,0,0,1,448.939,355.151Z" transform="translate(-441.67 -351.043)" fill="#ffb115"/>
          <path id="Path_9047" data-name="Path 9047" d="M445.746,351.147a3.632,3.632,0,0,1-3.416,6.344,3.638,3.638,0,1,0,3.416-6.344Z" transform="translate(-440.823 -350.909)" fill="#f4a00b"/>
          <path id="Path_9048" data-name="Path 9048" d="M444.643,351.433c.185.356-.217.93-.9,1.284s-1.379.352-1.564,0,.217-.929.9-1.283S444.458,351.079,444.643,351.433Z" transform="translate(-441.069 -350.883)" fill="#ffb93e"/>
          <path id="Path_9049" data-name="Path 9049" d="M443.487,352.185c.1.185-.114.484-.468.669s-.722.185-.818,0,.114-.486.468-.671S443.391,352,443.487,352.185Z" transform="translate(-441.018 -349.757)" fill="#ffb93e"/>
        </g>
        <g id="Group_4765" data-name="Group 4765" transform="translate(100.901 163.922)">
          <path id="Path_9050" data-name="Path 9050" d="M449.74,361.534a3.65,3.65,0,1,1-3.161-4.079A3.652,3.652,0,0,1,449.74,361.534Z" transform="translate(-442.469 -357.426)" fill="#ffb115"/>
          <path id="Path_9051" data-name="Path 9051" d="M446.545,357.53a3.632,3.632,0,0,1-3.416,6.344,3.6,3.6,0,0,0,1.683.687,3.645,3.645,0,0,0,1.733-7.031Z" transform="translate(-441.622 -357.293)" fill="#f4a00b"/>
          <path id="Path_9052" data-name="Path 9052" d="M445.442,357.816c.185.356-.217.93-.9,1.283s-1.379.352-1.564,0,.217-.929.9-1.281S445.257,357.462,445.442,357.816Z" transform="translate(-441.868 -357.266)" fill="#ffb93e"/>
          <path id="Path_9053" data-name="Path 9053" d="M444.286,358.567c.1.185-.114.484-.468.669s-.722.185-.818,0,.114-.486.468-.671S444.19,358.382,444.286,358.567Z" transform="translate(-441.817 -356.14)" fill="#ffb93e"/>
        </g>
        <g id="Group_4766" data-name="Group 4766" transform="translate(102.499 179.654)">
          <path id="Path_9054" data-name="Path 9054" d="M450.438,368.425a3.649,3.649,0,1,1-3.161-4.081A3.649,3.649,0,0,1,450.438,368.425Z" transform="translate(-443.169 -364.315)" fill="#ffb115"/>
          <path id="Path_9055" data-name="Path 9055" d="M447.244,364.42a3.636,3.636,0,0,1-2.6,6.552,3.543,3.543,0,0,1-.813-.21,3.594,3.594,0,0,0,1.683.687,3.643,3.643,0,0,0,1.733-7.029Z" transform="translate(-442.323 -364.181)" fill="#f4a00b"/>
          <path id="Path_9056" data-name="Path 9056" d="M446.141,364.707c.185.354-.217.927-.9,1.281s-1.379.354-1.564,0,.217-.927.9-1.281S445.956,364.353,446.141,364.707Z" transform="translate(-442.569 -364.154)" fill="#ffb93e"/>
          <path id="Path_9057" data-name="Path 9057" d="M444.985,365.456c.1.185-.114.486-.468.669s-.719.185-.818,0,.114-.484.468-.669S444.889,365.271,444.985,365.456Z" transform="translate(-442.518 -363.029)" fill="#ffb93e"/>
        </g>
      </g>
      <g id="Group_4768" data-name="Group 4768" transform="translate(728.916 170.663)">
        <path id="Path_9058" data-name="Path 9058" d="M464.536,363.613q-.894-.113-1.768-.24a150.791,150.791,0,0,1-14.833-3.065l.534-2.126a148.5,148.5,0,0,0,14.609,3.019,43.454,43.454,0,0,0,12.866.352,20.185,20.185,0,0,0,11.437-6.262l1.674,1.418a22.2,22.2,0,0,1-12.764,7.009A41.386,41.386,0,0,1,464.536,363.613Z" transform="translate(-447.936 -355.291)" fill="#e53013"/>
      </g>
      <g id="Group_4769" data-name="Group 4769" transform="translate(513.037 163.102)">
        <path id="Path_9059" data-name="Path 9059" d="M401.653,375.548a110.483,110.483,0,0,1-33.449-9.779c-5.433-2.583-12.028-6.388-14.8-12.935l2.023-.854c2.48,5.867,8.632,9.393,13.718,11.809A108.4,108.4,0,0,0,418.9,374.18c13.392-.425,26.774-3.38,39.716-6.237,6.529-1.441,13.282-2.932,19.978-4.088a218.035,218.035,0,0,1,73.133-.208l-.363,2.167a216.008,216.008,0,0,0-72.4.206c-6.646,1.144-13.371,2.631-19.877,4.065-13.04,2.88-26.525,5.858-40.118,6.289A109.946,109.946,0,0,1,401.653,375.548Z" transform="translate(-353.405 -351.98)" fill="#e53013"/>
      </g>
      <g id="Group_4789" data-name="Group 4789" transform="translate(357.716 16.301)">
        <g id="Group_4780" data-name="Group 4780">
          <path id="Path_9060" data-name="Path 9060" d="M332.887,320.947s17.648-7.525,31.166,11.64C364.053,332.587,339.553,345.052,332.887,320.947Z" transform="translate(-224.423 -246.884)" fill="#93522e"/>
          <path id="Path_9061" data-name="Path 9061" d="M334.856,321.762s11.576-4.937,20.439,7.634C355.3,329.4,339.229,337.57,334.856,321.762Z" transform="translate(-221.895 -245.196)" fill="#844525"/>
          <g id="Group_4774" data-name="Group 4774" transform="translate(116.428)">
            <g id="Group_4770" data-name="Group 4770" transform="translate(11.706)">
              <path id="Path_9062" data-name="Path 9062" d="M365.636,370.078a1.446,1.446,0,0,1-1.069-1.283c-.5-6.28-4.074-9.014-8.587-12.471-4.871-3.736-10.4-7.968-13.5-17.6-6.038-18.719,17.79-49.179,18.809-50.465a1.43,1.43,0,0,1,2.035-.24,1.444,1.444,0,0,1,.24,2.032c-.24.306-23.892,30.531-18.324,47.784,2.83,8.769,7.968,12.706,12.5,16.184,4.684,3.588,9.1,6.977,9.715,14.542a1.447,1.447,0,0,1-1.327,1.562A1.426,1.426,0,0,1,365.636,370.078Z" transform="translate(-341.5 -287.698)" fill="#592614"/>
            </g>
            <g id="Group_4771" data-name="Group 4771" transform="translate(1.753 7.994)">
              <path id="Path_9063" data-name="Path 9063" d="M349.342,320.427a1.706,1.706,0,0,1-.215-.075c-5.428-2.407-9.069-6.013-10.818-10.722-3.117-8.413.977-17.215,1.153-17.587a1.41,1.41,0,0,1,1.932-.687,1.45,1.45,0,0,1,.69,1.927c-.039.08-3.747,8.1-1.046,15.355,1.464,3.937,4.586,6.988,9.27,9.064a1.45,1.45,0,0,1-.966,2.724Z" transform="translate(-337.142 -291.198)" fill="#592614"/>
            </g>
            <g id="Group_4772" data-name="Group 4772" transform="translate(0 51.938)">
              <path id="Path_9064" data-name="Path 9064" d="M347.625,321.072c-8.363-2.245-11-8.29-11.14-8.623a1.45,1.45,0,0,1,2.674-1.121h0c.153.352,3.894,8.687,17.671,7.573a1.465,1.465,0,0,1,1.562,1.327,1.449,1.449,0,0,1-1.329,1.562A27.541,27.541,0,0,1,347.625,321.072Z" transform="translate(-336.374 -310.441)" fill="#592614"/>
            </g>
            <g id="Group_4773" data-name="Group 4773" transform="translate(24.007 39.697)">
              <path id="Path_9065" data-name="Path 9065" d="M348.511,333.431a1.438,1.438,0,0,1-.936-.788c-.1-.219-2.446-5.479,2.147-11.823,3.713-5.136,1.679-13.867,1.653-13.951a1.451,1.451,0,0,1,2.82-.681c.1.411,2.366,10.128-2.126,16.328-3.553,4.915-1.925,8.76-1.857,8.922a1.451,1.451,0,0,1-.728,1.909A1.413,1.413,0,0,1,348.511,333.431Z" transform="translate(-346.887 -305.081)" fill="#592614"/>
            </g>
          </g>
          <g id="Group_4779" data-name="Group 4779" transform="translate(91.007 1.836)">
            <g id="Group_4775" data-name="Group 4775" transform="translate(15.201)">
              <path id="Path_9066" data-name="Path 9066" d="M365.038,367.955a1.448,1.448,0,0,1-1.336-1c-1.943-5.995-6.047-7.831-11.236-10.151-5.6-2.51-11.953-5.353-17.2-14.008-10.194-16.819,5.954-51.959,6.648-53.445a1.448,1.448,0,1,1,2.626,1.222c-.162.352-16.2,35.221-6.794,50.723,4.777,7.876,10.688,10.523,15.9,12.859,5.385,2.409,10.466,4.686,12.809,11.907a1.451,1.451,0,0,1-1.421,1.9Z" transform="translate(-331.899 -288.501)" fill="#6b331b"/>
            </g>
            <g id="Group_4776" data-name="Group 4776" transform="translate(0 14.078)">
              <path id="Path_9067" data-name="Path 9067" d="M341.857,321.157a1.539,1.539,0,0,1-.226-.023c-5.837-1.089-10.213-3.757-13-7.936-4.976-7.463-3.026-16.975-2.939-17.377a1.407,1.407,0,0,1,1.72-1.114,1.447,1.447,0,0,1,1.117,1.715c-.021.089-1.774,8.751,2.528,15.182,2.334,3.494,6.075,5.741,11.112,6.68a1.449,1.449,0,0,1-.311,2.873Z" transform="translate(-325.243 -294.666)" fill="#6b331b"/>
            </g>
            <g id="Group_4777" data-name="Group 4777" transform="translate(6.733 57.736)">
              <path id="Path_9068" data-name="Path 9068" d="M341.3,321.9c-8.653-.254-12.617-5.524-12.83-5.817a1.451,1.451,0,0,1,2.345-1.711h0c.228.308,5.794,7.554,18.943,3.289a1.467,1.467,0,0,1,1.825.932,1.451,1.451,0,0,1-.932,1.827A27.557,27.557,0,0,1,341.3,321.9Z" transform="translate(-328.191 -313.783)" fill="#6b331b"/>
            </g>
            <g id="Group_4778" data-name="Group 4778" transform="translate(31.594 39.254)">
              <path id="Path_9069" data-name="Path 9069" d="M342.58,334.3a1.454,1.454,0,0,1-1.094-.55c-.148-.192-3.645-4.766-.639-12,2.425-5.853-1.571-13.878-1.615-13.956a1.451,1.451,0,0,1,2.587-1.313c.194.377,4.638,9.308,1.7,16.379-2.323,5.6.151,8.97.253,9.112A1.451,1.451,0,0,1,343.5,334,1.426,1.426,0,0,1,342.58,334.3Z" transform="translate(-339.077 -305.69)" fill="#6b331b"/>
            </g>
          </g>
          <path id="Path_9070" data-name="Path 9070" d="M339.822,374.42l20.544,66.316,15.116,23.31,4.28-2.624-14.323-23.193s-5.04-45.77,3.816-74.135C369.254,364.093,349.633,342.724,339.822,374.42Z" transform="translate(-215.52 -198.673)" fill="#7c4022"/>
          <path id="Path_9071" data-name="Path 9071" d="M327.3,364.925s-15.328,16.34-15.451,27.758l-19.124-8.44-3.085,56.848,3.585,1.519,4.243-44.838s38.133,37.361,62.509-2.279S327.3,364.925,327.3,364.925Z" transform="translate(-279.941 -189.71)" fill="#7c4022"/>
          <path id="Path_9072" data-name="Path 9072" d="M325.217,370.472s-22.942,9.454-22.956,26.333,1.08,28.964,39.371,22.371c25.552-4.4,41.344,1.868,49.022,6.524a19.906,19.906,0,0,0,19.87.836c6.084-3.352,12.467-9.918,15.465-22.73,6.616-28.258-14.221-74.2-14.221-74.2l-14.935-.436s6.977,41.675-2.348,47.19S343.861,361.686,325.217,370.472Z" transform="translate(-263.737 -234.459)" fill="#93522e"/>
          <path id="Path_9073" data-name="Path 9073" d="M323.7,361.358s-15.328,16.34-15.452,27.758l-19.124-8.441-3.085,56.848,3.585,1.519,4.243-44.838s38.133,37.361,62.509-2.279S323.7,361.358,323.7,361.358Z" transform="translate(-284.559 -194.289)" fill="#93522e"/>
          <path id="Path_9074" data-name="Path 9074" d="M344.033,384.263l45.475,52.459,23.211,15.264,2.864-4.124-22.44-15.477s-23.02-39.878-26.317-69.41C366.827,362.974,340.272,351.3,344.033,384.263Z" transform="translate(-210.583 -193.642)" fill="#93522e"/>
          <path id="Path_9075" data-name="Path 9075" d="M406.69,334.272s-21.394,2.007-32.415-8.324-27.713-7.034-31.015,6.778,21.282,37.711,65.124,6.6Z" transform="translate(-211.485 -246.37)" fill="#93522e"/>
          <path id="Path_9076" data-name="Path 9076" d="M379.657,329.826a5.121,5.121,0,1,1-4.969-5.269A5.121,5.121,0,0,1,379.657,329.826Z" transform="translate(-177.53 -240.384)" fill="#191818"/>
          <path id="Path_9077" data-name="Path 9077" d="M286.84,394.174l-1.391,3.519a.787.787,0,0,0,.422,1.021,21.791,21.791,0,0,0,6.248,1.658.8.8,0,0,0,.706-1.263c-1.051-1.448-2.245-3.473-2.233-4.743Z" transform="translate(-285.392 -151.015)" fill="#6b331b"/>
          <path id="Path_9078" data-name="Path 9078" d="M355.249,405.141l1.6,3.843a.865.865,0,0,0,1.117.48,23.905,23.905,0,0,0,6.2-3.487.875.875,0,0,0-.411-1.537,7.231,7.231,0,0,1-4.227-1.991Z" transform="translate(-195.717 -140.394)" fill="#6b331b"/>
          <path id="Path_9079" data-name="Path 9079" d="M373.8,403.6l3.35,2.473a.867.867,0,0,0,1.2-.162,23.953,23.953,0,0,0,3.526-6.177.876.876,0,0,0-1.144-1.108,7.206,7.206,0,0,1-4.65.464Z" transform="translate(-171.908 -145.378)" fill="#6b331b"/>
          <path id="Path_9080" data-name="Path 9080" d="M290.47,397.474l-1.393,3.519a.791.791,0,0,0,.425,1.021,21.71,21.71,0,0,0,6.246,1.656.8.8,0,0,0,.708-1.261c-1.051-1.448-2.247-3.473-2.233-4.743Z" transform="translate(-280.734 -146.779)" fill="#6b331b"/>
          <path id="Path_9081" data-name="Path 9081" d="M310.191,343.28s-5.538,12.75,6.419,20.11l-6.44,5.714S287.327,355.523,310.191,343.28Z" transform="translate(-266.609 -216.347)" fill="#93522e"/>
        </g>
        <g id="Group_4781" data-name="Group 4781" transform="translate(148.776 82.728)">
          <path id="Path_9082" data-name="Path 9082" d="M359.708,334.325a5.759,5.759,0,1,0-8.05-1.231A5.761,5.761,0,0,0,359.708,334.325Z" transform="translate(-350.539 -323.923)" fill="#fff"/>
          <path id="Path_9083" data-name="Path 9083" d="M357.2,330.6a2.967,2.967,0,1,0-4.147-.635A2.967,2.967,0,0,0,357.2,330.6Z" transform="translate(-348.057 -322.23)" fill="#1e1e1d"/>
          <path id="Path_9084" data-name="Path 9084" d="M354.109,327.771a.83.83,0,1,0-1.16-.178A.829.829,0,0,0,354.109,327.771Z" transform="translate(-347.653 -320.909)" fill="#fff"/>
        </g>
        <path id="Path_9085" data-name="Path 9085" d="M348.211,343.927s.393,11.263-6.255,14.095l33.39,25.381s3.485-20.4-1-30.037Z" transform="translate(-212.781 -215.517)" fill="#e53013"/>
        <path id="Path_9086" data-name="Path 9086" d="M342.869,351.29l8.708,47.094s-5.138-3.017-24.7-4.129l-.443-46.829Z" transform="translate(-232.704 -211.025)" fill="#e53013"/>
        <g id="Group_4782" data-name="Group 4782" transform="translate(131.454 134.332)">
          <path id="Path_9087" data-name="Path 9087" d="M350.223,350.631a3.649,3.649,0,1,1-3.158-4.081A3.646,3.646,0,0,1,350.223,350.631Z" transform="translate(-342.954 -346.52)" fill="#ffb115"/>
          <path id="Path_9088" data-name="Path 9088" d="M347.03,346.624a3.639,3.639,0,0,1-2.6,6.554,3.541,3.541,0,0,1-.813-.21,3.594,3.594,0,0,0,1.683.687,3.645,3.645,0,0,0,1.733-7.032Z" transform="translate(-342.107 -346.387)" fill="#f4a00b"/>
          <path id="Path_9089" data-name="Path 9089" d="M345.927,346.912c.183.354-.217.927-.9,1.281s-1.379.354-1.564,0,.217-.927.9-1.281S345.742,346.558,345.927,346.912Z" transform="translate(-342.353 -346.36)" fill="#ffb93e"/>
          <path id="Path_9090" data-name="Path 9090" d="M344.771,347.661c.1.185-.114.486-.468.669s-.722.185-.818,0,.112-.484.468-.669S344.673,347.476,344.771,347.661Z" transform="translate(-342.303 -345.234)" fill="#ffb93e"/>
        </g>
        <g id="Group_4783" data-name="Group 4783" transform="translate(144.743 141.784)">
          <path id="Path_9091" data-name="Path 9091" d="M356.042,353.893a3.649,3.649,0,1,1-3.158-4.081A3.646,3.646,0,0,1,356.042,353.893Z" transform="translate(-348.773 -349.783)" fill="#ffb115"/>
          <path id="Path_9092" data-name="Path 9092" d="M352.849,349.888a3.632,3.632,0,0,1-3.416,6.344,3.638,3.638,0,1,0,3.416-6.344Z" transform="translate(-347.926 -349.649)" fill="#f4a00b"/>
          <path id="Path_9093" data-name="Path 9093" d="M351.746,350.175c.183.354-.217.93-.9,1.281s-1.379.354-1.564,0,.217-.927.9-1.281S351.561,349.821,351.746,350.175Z" transform="translate(-348.172 -349.623)" fill="#ffb93e"/>
          <path id="Path_9094" data-name="Path 9094" d="M350.59,350.924c.1.185-.114.486-.468.671s-.722.183-.818,0,.112-.484.468-.669S350.492,350.739,350.59,350.924Z" transform="translate(-348.121 -348.497)" fill="#ffb93e"/>
        </g>
        <g id="Group_4784" data-name="Group 4784" transform="translate(158.134 151.225)">
          <path id="Path_9095" data-name="Path 9095" d="M361.906,358.028a3.649,3.649,0,1,1-3.161-4.081A3.652,3.652,0,0,1,361.906,358.028Z" transform="translate(-354.637 -353.917)" fill="#ffb115"/>
          <path id="Path_9096" data-name="Path 9096" d="M358.712,354.021a3.636,3.636,0,0,1-2.6,6.552,3.543,3.543,0,0,1-.813-.208,3.594,3.594,0,0,0,1.683.687,3.645,3.645,0,0,0,1.733-7.032Z" transform="translate(-353.791 -353.784)" fill="#f4a00b"/>
          <path id="Path_9097" data-name="Path 9097" d="M357.609,354.309c.185.354-.217.927-.9,1.281s-1.379.352-1.564,0,.217-.927.9-1.281S357.424,353.953,357.609,354.309Z" transform="translate(-354.037 -353.757)" fill="#ffb93e"/>
          <path id="Path_9098" data-name="Path 9098" d="M356.453,355.058c.1.185-.114.484-.468.669s-.719.185-.818,0,.114-.486.468-.669S356.357,354.873,356.453,355.058Z" transform="translate(-353.986 -352.631)" fill="#ffb93e"/>
        </g>
        <g id="Group_4785" data-name="Group 4785" transform="translate(98.14 135.86)">
          <path id="Path_9099" data-name="Path 9099" d="M335.635,351.3a3.649,3.649,0,1,1-3.158-4.079A3.648,3.648,0,0,1,335.635,351.3Z" transform="translate(-328.366 -347.189)" fill="#ffb115"/>
          <path id="Path_9100" data-name="Path 9100" d="M332.444,347.293a3.637,3.637,0,0,1-2.6,6.552,3.588,3.588,0,0,1-.815-.208,3.6,3.6,0,0,0,1.685.687,3.645,3.645,0,0,0,1.733-7.032Z" transform="translate(-327.52 -347.056)" fill="#f4a00b"/>
          <path id="Path_9101" data-name="Path 9101" d="M331.339,347.581c.183.354-.217.927-.9,1.281s-1.379.352-1.562,0,.215-.929.9-1.281S331.154,347.225,331.339,347.581Z" transform="translate(-327.765 -347.029)" fill="#ffb93e"/>
          <path id="Path_9102" data-name="Path 9102" d="M330.181,348.33c.1.185-.112.484-.466.669s-.722.185-.818,0,.112-.486.468-.671S330.085,348.145,330.181,348.33Z" transform="translate(-327.714 -345.903)" fill="#ffb93e"/>
        </g>
        <g id="Group_4786" data-name="Group 4786" transform="translate(99.076 149.345)">
          <path id="Path_9103" data-name="Path 9103" d="M336.045,357.2a3.649,3.649,0,1,1-3.158-4.081A3.648,3.648,0,0,1,336.045,357.2Z" transform="translate(-328.776 -353.094)" fill="#ffb115"/>
          <path id="Path_9104" data-name="Path 9104" d="M332.852,353.2a3.633,3.633,0,0,1-3.416,6.344,3.6,3.6,0,0,0,1.683.687,3.645,3.645,0,0,0,1.733-7.031Z" transform="translate(-327.929 -352.961)" fill="#f4a00b"/>
          <path id="Path_9105" data-name="Path 9105" d="M331.749,353.486c.185.354-.217.927-.9,1.281s-1.379.352-1.564,0,.217-.929.9-1.281S331.564,353.13,331.749,353.486Z" transform="translate(-328.175 -352.934)" fill="#ffb93e"/>
          <path id="Path_9106" data-name="Path 9106" d="M330.593,354.235c.1.185-.114.484-.468.669s-.722.185-.818,0,.114-.486.468-.671S330.495,354.05,330.593,354.235Z" transform="translate(-328.124 -351.808)" fill="#ffb93e"/>
        </g>
        <g id="Group_4787" data-name="Group 4787" transform="translate(100.901 163.922)">
          <path id="Path_9107" data-name="Path 9107" d="M336.846,363.588a3.65,3.65,0,1,1-3.161-4.081A3.652,3.652,0,0,1,336.846,363.588Z" transform="translate(-329.575 -359.477)" fill="#ffb115"/>
          <path id="Path_9108" data-name="Path 9108" d="M333.651,359.581a3.631,3.631,0,0,1-3.416,6.344,3.6,3.6,0,0,0,1.683.687,3.645,3.645,0,0,0,1.733-7.032Z" transform="translate(-328.728 -359.344)" fill="#f4a00b"/>
          <path id="Path_9109" data-name="Path 9109" d="M332.548,359.869c.185.354-.217.927-.9,1.281s-1.379.352-1.564,0,.217-.927.9-1.281S332.363,359.515,332.548,359.869Z" transform="translate(-328.974 -359.317)" fill="#ffb93e"/>
          <path id="Path_9110" data-name="Path 9110" d="M331.392,360.618c.1.185-.114.484-.468.669s-.722.185-.818,0,.114-.486.468-.669S331.3,360.433,331.392,360.618Z" transform="translate(-328.923 -358.191)" fill="#ffb93e"/>
        </g>
        <g id="Group_4788" data-name="Group 4788" transform="translate(101.873 179.03)">
          <circle id="Ellipse_100" data-name="Ellipse 100" cx="3.649" cy="3.649" r="3.649" transform="translate(0 1.383) rotate(-10.927)" fill="#ffb115"/>
          <path id="Path_9111" data-name="Path 9111" d="M334.35,366.471a3.632,3.632,0,0,1-3.416,6.344,3.638,3.638,0,1,0,3.416-6.344Z" transform="translate(-328.803 -365.607)" fill="#f4a00b"/>
          <path id="Path_9112" data-name="Path 9112" d="M333.247,366.758c.185.354-.217.93-.9,1.281s-1.379.354-1.564,0,.217-.927.9-1.281S333.062,366.4,333.247,366.758Z" transform="translate(-329.049 -365.581)" fill="#ffb93e"/>
          <path id="Path_9113" data-name="Path 9113" d="M332.091,367.507c.1.185-.114.486-.468.671s-.719.183-.818,0,.114-.484.468-.669S331.995,367.322,332.091,367.507Z" transform="translate(-328.999 -364.455)" fill="#ffb93e"/>
        </g>
      </g>
      <g id="Group_4790" data-name="Group 4790" transform="translate(241.122 177.047)">
        <path id="Path_9114" data-name="Path 9114" d="M273.084,378c-16.1-2.046-29.77-8.514-38.747-18.4l1.626-1.475c9.222,10.151,23.664,16.577,40.67,18.043,15.346,1.341,30.841-1.185,45.829-3.629l47.156-7.685c24.965-4.07,50.78-8.278,76.552-6.244L446,360.8c-25.5-2.01-51.189,2.174-76.029,6.223l-47.154,7.687c-15.118,2.466-30.752,5.015-46.373,3.649C275.313,378.26,274.192,378.141,273.084,378Z" transform="translate(-234.337 -358.086)" fill="#e53013"/>
      </g>
      <g id="Group_4791" data-name="Group 4791" transform="translate(470.711 175.571)">
        <path id="Path_9115" data-name="Path 9115" d="M351.471,365.764c-.6-.075-1.183-.158-1.768-.24-4.042-.58-9.03-1.612-14.833-3.065l.534-2.128a148.508,148.508,0,0,0,14.609,3.019,43.456,43.456,0,0,0,12.866.354,20.181,20.181,0,0,0,11.437-6.264l1.674,1.418a22.2,22.2,0,0,1-12.764,7.011A41.383,41.383,0,0,1,351.471,365.764Z" transform="translate(-334.871 -357.44)" fill="#e53013"/>
      </g>
      <g id="Group_4823" data-name="Group 4823" transform="translate(0 19.111)">
        <g id="Group_4794" data-name="Group 4794" transform="translate(45.971)">
          <g id="Group_4792" data-name="Group 4792" transform="translate(0 18.084)">
            <rect id="Rectangle_335" data-name="Rectangle 335" width="46.873" height="38.036" transform="translate(0 45.423) rotate(-72.906)" fill="#ff470d"/>
            <rect id="Rectangle_336" data-name="Rectangle 336" width="38.036" height="1.404" transform="translate(9.708 13.856) rotate(17.094)" fill="#ed3708"/>
            <rect id="Rectangle_337" data-name="Rectangle 337" width="46.873" height="16.968" transform="translate(36.356 56.603) rotate(-72.906)" fill="#ed3708"/>
            <rect id="Rectangle_338" data-name="Rectangle 338" width="1.393" height="16.968" transform="translate(45.651 26.379) rotate(-72.906)" fill="#d12a07"/>
            <rect id="Rectangle_339" data-name="Rectangle 339" width="46.873" height="0.76" transform="translate(20.169 51.625) rotate(-72.899)" fill="#ed3708"/>
            <rect id="Rectangle_340" data-name="Rectangle 340" width="33.015" height="0.656" transform="translate(42.943 58.629) rotate(-72.903)" fill="#d12a07"/>
            <rect id="Rectangle_341" data-name="Rectangle 341" width="5.756" height="38.036" transform="translate(4.943 29.351) rotate(-72.906)" fill="#ffc136"/>
            <rect id="Rectangle_342" data-name="Rectangle 342" width="5.756" height="16.968" transform="translate(41.298 40.532) rotate(-72.905)" fill="#f9b32c"/>
            <rect id="Rectangle_343" data-name="Rectangle 343" width="13.859" height="40.106" transform="translate(7.724 13.246) rotate(-72.906)" fill="#ff470d"/>
            <rect id="Rectangle_344" data-name="Rectangle 344" width="13.859" height="19.02" transform="translate(46.058 25.035) rotate(-72.906)" fill="#ed3708"/>
            <rect id="Rectangle_345" data-name="Rectangle 345" width="46.873" height="6.148" transform="translate(14.297 49.82) rotate(-72.907)" fill="#ffc136"/>
            <rect id="Rectangle_346" data-name="Rectangle 346" width="46.873" height="4.196" transform="translate(43.571 58.822) rotate(-72.907)" fill="#f9b32c"/>
          </g>
          <g id="Group_4793" data-name="Group 4793" transform="translate(20.117)">
            <path id="Path_9116" data-name="Path 9116" d="M186.619,299.476c-.375-1.183-5-3.318-6.709-5.622s-5.922-1.822-5.922-1.822a8.483,8.483,0,0,1,.676,6.534,7.26,7.26,0,0,1-.6,1.322c-2.275,3.926-11.555,9.137-11.555,9.137l5.184,1.594s11.722-3.745,15.273-5.6a8.948,8.948,0,0,0,2.3-1.667A4.082,4.082,0,0,0,186.619,299.476Z" transform="translate(-151.509 -284.998)" fill="#ffc136"/>
            <path id="Path_9117" data-name="Path 9117" d="M162.508,309s8.758-17.1,11.48-16.993,2.992,4.456-1.019,9.553S162.508,309,162.508,309Z" transform="translate(-151.509 -284.975)" fill="#e0991e"/>
            <path id="Path_9118" data-name="Path 9118" d="M163.6,311.98s7.034-20.973,1.016-22.243S163.6,311.98,163.6,311.98Z" transform="translate(-152.605 -287.954)" fill="#e0991e"/>
            <path id="Path_9119" data-name="Path 9119" d="M166.976,296.366a13.787,13.787,0,0,1,.144-1.788c.77-4.773,3.652-3.33,3.652-3.33a9.662,9.662,0,0,0-3-1.829c-1.489-.459-3.021.352-4.615-.253a4.062,4.062,0,0,0-5.431,2.989,9.714,9.714,0,0,0,.671,3.754,134.7,134.7,0,0,0,6.789,15.968l3.5,1.078S166.82,302.079,166.976,296.366Z" transform="translate(-157.692 -288.928)" fill="#ffc136"/>
            <path id="Path_9120" data-name="Path 9120" d="M169.82,300.671a1.713,1.713,0,0,0-.459-.911,2.109,2.109,0,0,0-.907-.557L163.5,297.68a2.075,2.075,0,0,0-1.309.025,1.551,1.551,0,0,0-.993.984,2.878,2.878,0,0,0-.116,1.692,1,1,0,0,0,.687.637l5.865,1.8c1,.308,1.886-.628,2.154-1.494A1.458,1.458,0,0,0,169.82,300.671Z" transform="translate(-153.446 -277.814)" fill="#f9b32c"/>
          </g>
        </g>
        <g id="Group_4797" data-name="Group 4797" transform="translate(16.416 26.881)">
          <g id="Group_4795" data-name="Group 4795" transform="translate(0 18.085)">
            <rect id="Rectangle_347" data-name="Rectangle 347" width="46.873" height="38.036" transform="translate(0 45.423) rotate(-72.906)" fill="#ff7a0a"/>
            <rect id="Rectangle_348" data-name="Rectangle 348" width="38.036" height="1.404" transform="translate(9.707 13.856) rotate(17.094)" fill="#ed6705"/>
            <rect id="Rectangle_349" data-name="Rectangle 349" width="46.873" height="16.968" transform="translate(36.356 56.603) rotate(-72.906)" fill="#ed6705"/>
            <rect id="Rectangle_350" data-name="Rectangle 350" width="1.393" height="16.968" transform="translate(45.651 26.379) rotate(-72.906)" fill="#d15404"/>
            <rect id="Rectangle_351" data-name="Rectangle 351" width="46.873" height="0.76" transform="translate(20.169 51.625) rotate(-72.899)" fill="#ed6705"/>
            <rect id="Rectangle_352" data-name="Rectangle 352" width="33.015" height="0.656" transform="translate(42.943 58.629) rotate(-72.903)" fill="#d15404"/>
            <rect id="Rectangle_353" data-name="Rectangle 353" width="5.756" height="38.036" transform="translate(4.942 29.351) rotate(-72.906)" fill="#ffdf30"/>
            <rect id="Rectangle_354" data-name="Rectangle 354" width="5.756" height="16.968" transform="translate(41.298 40.532) rotate(-72.905)" fill="#f9d229"/>
            <rect id="Rectangle_355" data-name="Rectangle 355" width="13.859" height="40.106" transform="translate(7.724 13.246) rotate(-72.906)" fill="#ff7a0a"/>
            <rect id="Rectangle_356" data-name="Rectangle 356" width="13.859" height="19.02" transform="translate(46.058 25.035) rotate(-72.906)" fill="#ed6705"/>
            <rect id="Rectangle_357" data-name="Rectangle 357" width="46.873" height="6.148" transform="translate(14.297 49.82) rotate(-72.907)" fill="#ffdf30"/>
            <rect id="Rectangle_358" data-name="Rectangle 358" width="46.873" height="4.196" transform="translate(43.571 58.823) rotate(-72.908)" fill="#f9d229"/>
          </g>
          <g id="Group_4796" data-name="Group 4796" transform="translate(20.118)">
            <path id="Path_9121" data-name="Path 9121" d="M173.678,311.246c-.377-1.183-5-3.318-6.709-5.622s-5.924-1.82-5.924-1.82a8.476,8.476,0,0,1,.676,6.531,7.407,7.407,0,0,1-.6,1.322c-2.277,3.928-11.555,9.137-11.555,9.137l5.184,1.594s11.72-3.745,15.273-5.6a8.97,8.97,0,0,0,2.3-1.667A4.082,4.082,0,0,0,173.678,311.246Z" transform="translate(-138.568 -296.768)" fill="#ffdf30"/>
            <path id="Path_9122" data-name="Path 9122" d="M149.567,320.771s8.758-17.1,11.478-16.991,2.992,4.453-1.019,9.55S149.567,320.771,149.567,320.771Z" transform="translate(-138.568 -296.745)" fill="#e0b71b"/>
            <path id="Path_9123" data-name="Path 9123" d="M150.664,323.751s7.031-20.973,1.014-22.243S150.664,323.751,150.664,323.751Z" transform="translate(-139.665 -299.725)" fill="#e0b71b"/>
            <path id="Path_9124" data-name="Path 9124" d="M154.033,308.137a14.205,14.205,0,0,1,.144-1.788c.77-4.773,3.654-3.33,3.654-3.33a9.694,9.694,0,0,0-3-1.829c-1.491-.459-3.021.354-4.615-.253a4.062,4.062,0,0,0-5.431,2.989,9.7,9.7,0,0,0,.669,3.754,134.166,134.166,0,0,0,6.792,15.968l3.5,1.078S153.877,313.85,154.033,308.137Z" transform="translate(-144.751 -300.699)" fill="#ffdf30"/>
            <path id="Path_9125" data-name="Path 9125" d="M156.878,312.442a1.725,1.725,0,0,0-.457-.911,2.1,2.1,0,0,0-.909-.557l-4.951-1.523a2.074,2.074,0,0,0-1.309.025,1.551,1.551,0,0,0-.993.984,2.9,2.9,0,0,0-.116,1.692,1,1,0,0,0,.69.637l5.865,1.8c1,.308,1.886-.626,2.151-1.494A1.4,1.4,0,0,0,156.878,312.442Z" transform="translate(-140.505 -289.585)" fill="#f9d229"/>
          </g>
        </g>
        <g id="Group_4800" data-name="Group 4800" transform="translate(59.989 41.343)">
          <g id="Group_4798" data-name="Group 4798" transform="translate(0 21.641)">
            <rect id="Rectangle_359" data-name="Rectangle 359" width="38.036" height="46.873" transform="translate(18.995 1.833) rotate(-2.603)" fill="#0a10ff"/>
            <rect id="Rectangle_360" data-name="Rectangle 360" width="38.036" height="1.404" transform="translate(57.685 15.341) rotate(177.397)" fill="#0516ed"/>
            <rect id="Rectangle_361" data-name="Rectangle 361" width="16.968" height="46.873" transform="matrix(0.999, -0.045, 0.045, 0.999, 2.045, 2.603)" fill="#0516ed"/>
            <rect id="Rectangle_362" data-name="Rectangle 362" width="16.968" height="1.393" transform="translate(2.674 16.448) rotate(-2.603)" fill="#041cd1"/>
            <rect id="Rectangle_363" data-name="Rectangle 363" width="0.76" height="46.873" transform="translate(35.144 1.099) rotate(-2.617)" fill="#0516ed"/>
            <rect id="Rectangle_364" data-name="Rectangle 364" width="0.656" height="33.015" transform="translate(12.086 16.02) rotate(-2.595)" fill="#041cd1"/>
            <rect id="Rectangle_365" data-name="Rectangle 365" width="38.036" height="5.756" transform="translate(20.099 26.11) rotate(-2.603)" fill="#db6fff"/>
            <rect id="Rectangle_366" data-name="Rectangle 366" width="16.968" height="5.756" transform="translate(3.148 26.881) rotate(-2.603)" fill="#ae29f9"/>
            <rect id="Rectangle_367" data-name="Rectangle 367" width="40.106" height="13.859" transform="translate(19 1.822) rotate(-2.603)" fill="#0a10ff"/>
            <rect id="Rectangle_368" data-name="Rectangle 368" width="19.02" height="13.859" transform="translate(0 2.685) rotate(-2.603)" fill="#0516ed"/>
            <rect id="Rectangle_369" data-name="Rectangle 369" width="6.148" height="46.873" transform="translate(35.91 1.064) rotate(-2.602)" fill="#db6fff"/>
            <rect id="Rectangle_370" data-name="Rectangle 370" width="4.196" height="46.873" transform="translate(7.264 2.366) rotate(-2.602)" fill="#ae29f9"/>
          </g>
          <g id="Group_4799" data-name="Group 4799" transform="translate(17.525)">
            <path id="Path_9126" data-name="Path 9126" d="M163.088,312.831c.66-1.051,5.673-1.959,7.9-3.764s6.189-.281,6.189-.281a8.487,8.487,0,0,0-2.288,6.155,7.376,7.376,0,0,0,.249,1.43c1.222,4.371,8.9,11.738,8.9,11.738l-5.417.247s-10.414-6.559-13.387-9.249a8.924,8.924,0,0,1-1.809-2.19A4.08,4.08,0,0,1,163.088,312.831Z" transform="translate(-162.695 -305.55)" fill="#db6fff"/>
            <path id="Path_9127" data-name="Path 9127" d="M177.478,327.8s-4.2-18.747-6.863-19.322-4.01,3.563-1.4,9.5S177.478,327.8,177.478,327.8Z" transform="translate(-156.13 -305.242)" fill="#8c1be0"/>
            <path id="Path_9128" data-name="Path 9128" d="M172.142,329.159s-1.56-22.067,4.583-21.789S172.142,329.159,172.142,329.159Z" transform="translate(-150.794 -306.6)" fill="#8c1be0"/>
            <path id="Path_9129" data-name="Path 9129" d="M177.857,313.959a14.079,14.079,0,0,0,.306-1.768c.45-4.814-2.7-4.138-2.7-4.138a9.667,9.667,0,0,1,3.359-1.019c1.557-.071,2.836,1.1,4.533.909a4.06,4.06,0,0,1,4.508,4.252,9.661,9.661,0,0,1-1.587,3.467A134.369,134.369,0,0,1,175.7,329.424l-3.661.167S176.576,319.529,177.857,313.959Z" transform="translate(-150.695 -307.032)" fill="#db6fff"/>
            <path id="Path_9130" data-name="Path 9130" d="M169.971,316.568a1.7,1.7,0,0,1,.671-.77,2.105,2.105,0,0,1,1.016-.313l5.177-.235a2.068,2.068,0,0,1,1.258.352,1.537,1.537,0,0,1,.715,1.2,2.863,2.863,0,0,1-.308,1.667,1,1,0,0,1-.827.445l-6.129.279c-1.051.048-1.669-1.078-1.711-1.982A1.409,1.409,0,0,1,169.971,316.568Z" transform="translate(-153.532 -296.484)" fill="#ae29f9"/>
          </g>
        </g>
        <g id="Group_4803" data-name="Group 4803" transform="translate(62.669 79.407)">
          <g id="Group_4801" data-name="Group 4801" transform="translate(0 14.751)">
            <rect id="Rectangle_371" data-name="Rectangle 371" width="46.873" height="38.036" transform="matrix(0.513, -0.858, 0.858, 0.513, 0, 41.306)" fill="#7e1099"/>
            <rect id="Rectangle_372" data-name="Rectangle 372" width="38.036" height="1.404" transform="translate(16.947 12.96) rotate(30.873)" fill="#710c89"/>
            <rect id="Rectangle_373" data-name="Rectangle 373" width="46.873" height="16.968" transform="translate(32.647 60.824) rotate(-59.126)" fill="#710c89"/>
            <rect id="Rectangle_374" data-name="Rectangle 374" width="1.393" height="16.968" transform="translate(48.873 33.683) rotate(-59.126)" fill="#5d0972"/>
            <rect id="Rectangle_375" data-name="Rectangle 375" width="46.873" height="0.76" transform="matrix(0.513, -0.858, 0.858, 0.513, 18.114, 52.136)" fill="#710c89"/>
            <rect id="Rectangle_376" data-name="Rectangle 376" width="33.015" height="0.656" transform="matrix(0.513, -0.858, 0.858, 0.513, 38.563, 64.361)" fill="#5d0972"/>
            <rect id="Rectangle_377" data-name="Rectangle 377" width="5.756" height="38.036" transform="translate(8.628 26.874) rotate(-59.127)" fill="#195e06"/>
            <rect id="Rectangle_378" data-name="Rectangle 378" width="5.756" height="16.968" transform="translate(41.275 46.392) rotate(-59.127)" fill="#144704"/>
            <rect id="Rectangle_379" data-name="Rectangle 379" width="13.859" height="40.106" transform="matrix(0.513, -0.858, 0.858, 0.513, 15.165, 11.895)" fill="#7e1099"/>
            <rect id="Rectangle_380" data-name="Rectangle 380" width="13.859" height="19.02" transform="matrix(0.513, -0.858, 0.858, 0.513, 49.589, 32.475)" fill="#710c89"/>
            <rect id="Rectangle_381" data-name="Rectangle 381" width="46.873" height="6.148" transform="translate(12.837 48.981) rotate(-59.126)" fill="#195e06"/>
            <rect id="Rectangle_382" data-name="Rectangle 382" width="46.873" height="4.196" transform="matrix(0.513, -0.858, 0.858, 0.513, 39.125, 64.697)" fill="#144704"/>
          </g>
          <g id="Group_4802" data-name="Group 4802" transform="translate(33.634)">
            <path id="Path_9131" data-name="Path 9131" d="M199.238,338.91c-.085-1.24-4.07-4.414-5.177-7.059s-5.319-3.179-5.319-3.179a8.478,8.478,0,0,1-.9,6.5,7.389,7.389,0,0,1-.9,1.142c-3.145,3.273-13.4,6.12-13.4,6.12l4.654,2.784s12.277-.845,16.169-1.8A9,9,0,0,0,197,342.344,4.078,4.078,0,0,0,199.238,338.91Z" transform="translate(-167.555 -317.316)" fill="#195e06"/>
            <path id="Path_9132" data-name="Path 9132" d="M173.546,342.454s12.579-14.522,15.2-13.766,1.845,5.038-3.266,9.034S173.546,342.454,173.546,342.454Z" transform="translate(-167.555 -317.332)" fill="#144704"/>
            <path id="Path_9133" data-name="Path 9133" d="M173.546,346.822s11.825-18.694,6.282-21.359S173.546,346.822,173.546,346.822Z" transform="translate(-167.555 -321.701)" fill="#144704"/>
            <path id="Path_9134" data-name="Path 9134" d="M179.2,332.3a13.953,13.953,0,0,1,.566-1.7c1.884-4.453,4.339-2.364,4.339-2.364a9.673,9.673,0,0,0-2.476-2.492c-1.338-.8-3.019-.377-4.421-1.345a4.065,4.065,0,0,0-5.988,1.61,9.684,9.684,0,0,0-.242,3.807,134.954,134.954,0,0,0,2.791,17.125l3.147,1.879S177.688,337.814,179.2,332.3Z" transform="translate(-170.923 -323.7)" fill="#195e06"/>
            <path id="Path_9135" data-name="Path 9135" d="M180.686,337.411a1.716,1.716,0,0,0-.226-1,2.1,2.1,0,0,0-.749-.756L175.265,333a2.061,2.061,0,0,0-1.277-.288,1.548,1.548,0,0,0-1.2.719,2.88,2.88,0,0,0-.516,1.615.99.99,0,0,0,.516.783l5.266,3.149a1.91,1.91,0,0,0,2.446-.936A1.4,1.4,0,0,0,180.686,337.411Z" transform="translate(-169.198 -312.143)" fill="#164f03"/>
          </g>
        </g>
        <g id="Group_4817" data-name="Group 4817" transform="translate(62.497 30.467)">
          <path id="Path_9136" data-name="Path 9136" d="M193.686,353.567l-13.872,57L280.183,420.1l-1.93-60.427Z" transform="translate(-125.703 -236.419)" fill="#e53013"/>
          <g id="Group_4816" data-name="Group 4816">
            <g id="Group_4805" data-name="Group 4805" transform="translate(0 33.911)">
              <path id="Path_9137" data-name="Path 9137" d="M230.6,354.1,171.74,322.07,164.6,338.5s33.431,28.667,60.611,29.313Z" transform="translate(-145.234 -310.763)" fill="#e53013"/>
              <g id="Group_4804" data-name="Group 4804">
                <path id="Path_9138" data-name="Path 9138" d="M180.479,341.469l5.12-8.37a3.029,3.029,0,0,0-1-4.154l-15.739-9.628a8.4,8.4,0,0,0-11.517,2.775h0a8.4,8.4,0,0,0,2.775,11.514l14.972,9.16A3.93,3.93,0,0,0,180.479,341.469Z" transform="translate(-156.119 -315.868)" fill="#e53013"/>
                <path id="Path_9139" data-name="Path 9139" d="M168.649,331.9h0a2.968,2.968,0,0,0,2.473-3.375l-1.373-8.9a2.966,2.966,0,0,0-3.375-2.473h0a2.968,2.968,0,0,0-2.473,3.375l1.372,8.9A2.967,2.967,0,0,0,168.649,331.9Z" transform="translate(-146.174 -317.119)" fill="#e53013"/>
              </g>
              <path id="Path_9140" data-name="Path 9140" d="M165.715,343.8h0a3.651,3.651,0,0,0,4.887-1.615l7.972-15.824a3.652,3.652,0,0,0-1.612-4.889h0a3.651,3.651,0,0,0-4.887,1.612L164.1,338.912A3.653,3.653,0,0,0,165.715,343.8Z" transform="translate(-146.371 -312.024)" fill="#fff"/>
            </g>
            <g id="Group_4807" data-name="Group 4807" transform="translate(123.138 35.528)">
              <path id="Path_9141" data-name="Path 9141" d="M210.04,353.622l5.12,13.814a52.659,52.659,0,0,0,13.257-1.934c1-.263,1.991-.553,2.987-.863.2-.062.4-.126.605-.192h0c22.6-7.244,44.313-25.15,44.313-25.15L269.5,322.728l-51.6,26.808Z" transform="translate(-210.04 -311.535)" fill="#e53013"/>
              <g id="Group_4806" data-name="Group 4806" transform="translate(55.962)">
                <path id="Path_9142" data-name="Path 9142" d="M239.914,341.969l-4.958-8.466a3.032,3.032,0,0,1,1.08-4.133l15.924-9.324a8.4,8.4,0,0,1,11.46,2.994h0a8.4,8.4,0,0,1-3,11.462l-15.145,8.87A3.934,3.934,0,0,1,239.914,341.969Z" transform="translate(-234.545 -316.444)" fill="#e53013"/>
                <path id="Path_9143" data-name="Path 9143" d="M239.192,332.573h0a2.968,2.968,0,0,1-2.409-3.421l1.544-8.872a2.969,2.969,0,0,1,3.423-2.409h0a2.968,2.968,0,0,1,2.407,3.423l-1.544,8.872A2.964,2.964,0,0,1,239.192,332.573Z" transform="translate(-231.729 -317.827)" fill="#e53013"/>
              </g>
              <path id="Path_9144" data-name="Path 9144" d="M246.281,344.619h0a3.651,3.651,0,0,1-4.857-1.706l-7.666-15.977a3.65,3.65,0,0,1,1.706-4.855h0a3.653,3.653,0,0,1,4.857,1.706l7.666,15.977A3.65,3.65,0,0,1,246.281,344.619Z" transform="translate(-180.052 -312.823)" fill="#fff"/>
            </g>
            <path id="Path_9145" data-name="Path 9145" d="M182.934,390.057c37.238,19.071,62.173,1.149,62.173,1.149,7.582,12.732,36.27,5.3,36.27,5.3-2.558-2.238-4.857-5.7-7.356-14.243-.808-2.754-1.635-6.034-2.5-9.971q-.685-3.121-1.4-6.817c-.18-.92-.393-1.825-.637-2.706q-.435-1.579-1-3.067l-.009-.025a37.736,37.736,0,0,0-2.275-4.924q-.1-.175-.192-.343A49.241,49.241,0,0,0,252.7,339.654a53.4,53.4,0,0,0-9.516-5.835c-8.726-8.34-48.165,1.325-48.165,1.325,1.11,10.957-1.124,22.958-3.96,32.938-1.169,4.113-2.441,7.879-3.622,11.09C185,385.8,182.934,390.057,182.934,390.057Z" transform="translate(-121.698 -266.124)" fill="#e53013"/>
            <g id="Group_4808" data-name="Group 4808" transform="translate(61.236 118.479)">
              <path id="Path_9146" data-name="Path 9146" d="M245.171,354.15c5.766,9.681,23.737,7.7,32.015,6.2a17.442,17.442,0,0,0,4.191,5.7s-28.688,7.429-36.27-5.3c0,0-24.936,17.92-62.173-1.149,0,0,.98-2.026,2.389-5.453C221.27,371.326,245.171,354.15,245.171,354.15Z" transform="translate(-182.934 -354.15)" fill="#fff"/>
            </g>
            <path id="Path_9147" data-name="Path 9147" d="M208.918,333.243s16.614,17.7,19.028,52.84c0,0-6.317-1.334-9.767-.094,0,0,2.313-25.945-18.649-49.261Z" transform="translate(-100.394 -262.509)" fill="#fff"/>
            <g id="Group_4814" data-name="Group 4814" transform="translate(45.09)">
              <path id="Path_9148" data-name="Path 9148" d="M186.9,352.27c11.718,15.908,42.726,22.946,42.726,22.946,15.6-1.509,24.159-19.329,26.925-26.283a6.207,6.207,0,0,0-.283-5.2l-8.253-15.643-1.4-2.654a28.636,28.636,0,0,0-3.012-3.343c-16.2-15.321-42.321-1.784-48.757,1.946-.948.548-1.468.884-1.468.884a17.715,17.715,0,0,1-.192,3.124c-.916,6.607-4.789,15.342-6.746,19.448A4.655,4.655,0,0,0,186.9,352.27Z" transform="translate(-162.866 -285.985)" fill="#fff"/>
              <path id="Path_9149" data-name="Path 9149" d="M186.443,343.254c1.957-4.106,5.83-12.841,6.746-19.448a17.715,17.715,0,0,0,.192-3.124s.521-.336,1.468-.884c.708-.411,1.656-.941,2.8-1.537a21.225,21.225,0,0,1-.2,2.133c-.982,7.093-5.143,16.472-7.244,20.882a5,5,0,0,0,.493,5.125c10.242,13.905,34.212,21.5,42.771,23.842a21.419,21.419,0,0,1-3.843.731s-31.008-7.038-42.726-22.946A4.655,4.655,0,0,1,186.443,343.254Z" transform="translate(-162.866 -281.742)" fill="#dde8ee"/>
              <path id="Path_9150" data-name="Path 9150" d="M189.869,324.041c2.423,7.121,8.749,13.9,17.582,17.84,14.3,6.385,29.745,2.919,34.5-7.737l.016-.039a9.181,9.181,0,0,0,.288-6.6l-.059-.183a27.624,27.624,0,0,0-3.569-5.223C222.423,306.775,196.3,320.312,189.869,324.041Z" transform="translate(-157.886 -285.985)" fill="#ffb89f"/>
              <g id="Group_4811" data-name="Group 4811" transform="translate(40.422 52.36)">
                <g id="Group_4809" data-name="Group 4809" transform="translate(23.872)">
                  <path id="Path_9151" data-name="Path 9151" d="M227.541,328.626s-8.678,3.834-13.136-.888-8.562-2-9.831,1.2-1.16,13.17,9.151,11.354S227.669,331.938,227.541,328.626Z" transform="translate(-204.017 -325.198)" fill="#fff"/>
                  <path id="Path_9152" data-name="Path 9152" d="M212.341,335.693c9.779-.32,14.367-5.547,15.2-8.92,0,3.359-3.679,9.713-13.819,11.5-7.557,1.329-9.635-3.668-9.706-7.694C204.766,333.423,207.048,335.867,212.341,335.693Z" transform="translate(-204.011 -323.175)" fill="#dde8ee"/>
                </g>
                <g id="Group_4810" data-name="Group 4810" transform="translate(0 1.423)">
                  <path id="Path_9153" data-name="Path 9153" d="M193.564,333.627s9.345,1.628,12.535-4.028,7.824-4.008,9.831-1.2,4.3,12.5-6.143,13.225S194.238,336.87,193.564,333.627Z" transform="translate(-193.564 -325.821)" fill="#fff"/>
                  <path id="Path_9154" data-name="Path 9154" d="M210.485,335.414c-9.569,2.048-15.282-1.918-16.908-4.99.808,3.259,5.912,8.539,16.182,7.826,7.657-.53,8.468-5.881,7.566-9.8C217.289,331.383,215.663,334.3,210.485,335.414Z" transform="translate(-193.547 -322.451)" fill="#dde8ee"/>
                </g>
              </g>
              <path id="Path_9155" data-name="Path 9155" d="M257.245,342.706s-26.5-16.107-55.176,4.252c0,0-.48-10.028-4.86-12.823,0,0-7.472-3.72-13.478,6.888-3.565,6.294-5.5-7.207-5.5-7.207s14.337-31.917,31.873-31.542S250.858,320.357,257.245,342.706Z" transform="translate(-172.824 -302.27)" fill="#e53013"/>
              <path id="Path_9156" data-name="Path 9156" d="M179.175,327.975c.868,1.507,1.991,1.982,3.348-.416,6.008-10.608,13.481-6.888,13.481-6.888,4.38,2.793,4.857,12.823,4.857,12.823a59.911,59.911,0,0,1,8.42-5.02,26.275,26.275,0,0,1-2.957-4.7c-1.265-3.085-1.991-6.63-4.531-8.794a9.613,9.613,0,0,0-4.561-2.01,14.234,14.234,0,0,0-13.428,5.086C181.534,320.935,180.511,324.538,179.175,327.975Z" transform="translate(-171.613 -288.807)" fill="#cc1e0d"/>
              <path id="Path_9157" data-name="Path 9157" d="M236.7,313.779s9.041,2.416,8.208,14.858a.878.878,0,0,1-1.176.77c-5.412-1.959-30.412-9.733-52.959,4.469a.938.938,0,0,1-1.427-.623l-1.178-6.438a1.254,1.254,0,0,1,.231-.977C190.433,323.119,202.493,309.478,236.7,313.779Z" transform="translate(-160.098 -288.563)" fill="#fff"/>
              <path id="Path_9158" data-name="Path 9158" d="M188.4,320.284c.187-.249.459-.589.822-1l1.046,5.723a.94.94,0,0,0,1.427.623c22.547-14.2,47.546-6.431,52.959-4.469a.909.909,0,0,0,.306.052q.014.894-.05,1.87a.878.878,0,0,1-1.176.77c-5.412-1.959-30.412-9.733-52.959,4.469a.938.938,0,0,1-1.427-.623l-1.178-6.438A1.254,1.254,0,0,1,188.4,320.284Z" transform="translate(-160.098 -283.01)" fill="#dde8ee"/>
              <path id="Path_9159" data-name="Path 9159" d="M175.864,321.7a7,7,0,1,0,7.068-6.931A7,7,0,0,0,175.864,321.7Z" transform="translate(-175.864 -286.229)" fill="#fff"/>
              <path id="Path_9160" data-name="Path 9160" d="M179.171,315.227a7,7,0,0,0,8.635,10.9,7,7,0,1,1-8.635-10.9Z" transform="translate(-175.864 -285.636)" fill="#dde8ee"/>
              <g id="Group_4812" data-name="Group 4812" transform="translate(64.889 38.748)">
                <path id="Path_9161" data-name="Path 9161" d="M204.9,322.393a5.759,5.759,0,1,0,7.742-2.533A5.76,5.76,0,0,0,204.9,322.393Z" transform="translate(-204.278 -319.237)" fill="#fff"/>
                <path id="Path_9162" data-name="Path 9162" d="M205.144,322.32a2.967,2.967,0,1,0,3.987-1.3A2.967,2.967,0,0,0,205.144,322.32Z" transform="translate(-203.577 -317.365)" fill="#1e1e1d"/>
                <path id="Path_9163" data-name="Path 9163" d="M206.36,321.723a.83.83,0,1,0,1.117-.365A.83.83,0,0,0,206.36,321.723Z" transform="translate(-201.719 -316.63)" fill="#fff"/>
              </g>
              <g id="Group_4813" data-name="Group 4813" transform="translate(47.871 39.125)">
                <path id="Path_9164" data-name="Path 9164" d="M197.45,322.558a5.759,5.759,0,1,0,7.742-2.533A5.76,5.76,0,0,0,197.45,322.558Z" transform="translate(-196.826 -319.402)" fill="#fff"/>
                <path id="Path_9165" data-name="Path 9165" d="M197.692,322.486a2.967,2.967,0,1,0,3.987-1.3A2.967,2.967,0,0,0,197.692,322.486Z" transform="translate(-196.125 -317.53)" fill="#1e1e1d"/>
                <path id="Path_9166" data-name="Path 9166" d="M198.908,321.886a.831.831,0,1,0,1.117-.363A.833.833,0,0,0,198.908,321.886Z" transform="translate(-194.267 -316.795)" fill="#fff"/>
              </g>
              <path id="Path_9167" data-name="Path 9167" d="M201.232,329.428a4.989,4.989,0,1,0,5.036-4.942A4.989,4.989,0,0,0,201.232,329.428Z" transform="translate(-143.299 -273.751)" fill="#e53013"/>
            </g>
            <path id="Path_9168" data-name="Path 9168" d="M184.906,358A285.677,285.677,0,0,0,271.49,361.1c-.808-2.754-1.635-6.034-2.5-9.971-16.952,1.688-57.184,4.453-80.464-4.213C187.359,351.028,186.087,354.794,184.906,358Z" transform="translate(-119.166 -244.959)" fill="#7c3a00"/>
            <g id="Group_4815" data-name="Group 4815" transform="translate(110.682 102.501)">
              <path id="Path_9169" data-name="Path 9169" d="M205.2,364.033l-.607-13.186a2.877,2.877,0,0,1,2.738-3l14.99-.69a2.876,2.876,0,0,1,3,2.738l.607,13.184a2.88,2.88,0,0,1-2.738,3l-14.99.687c-.055,0-.107,0-.162,0A2.878,2.878,0,0,1,205.2,364.033Zm17.219-14.744-14.99.69a.747.747,0,0,0-.7.77l.607,13.186a.736.736,0,0,0,.77.7l14.99-.687a.746.746,0,0,0,.7-.772l-.607-13.184a.741.741,0,0,0-.728-.7Z" transform="translate(-204.586 -347.154)" fill="#f9b701"/>
            </g>
            <path id="Path_9170" data-name="Path 9170" d="M205.265,353.932l6.353.062a1.416,1.416,0,0,0,1.423-1.4h0a1.413,1.413,0,0,0-1.4-1.423l-6.353-.062a1.413,1.413,0,0,0-1.423,1.4h0A1.413,1.413,0,0,0,205.265,353.932Z" transform="translate(-94.823 -239.568)" fill="#e8a705"/>
            <path id="Path_9171" data-name="Path 9171" d="M200.853,352.946a2.293,2.293,0,1,0,2.316-2.27A2.293,2.293,0,0,0,200.853,352.946Z" transform="translate(-98.695 -240.131)" fill="#662c01"/>
            <path id="Path_9172" data-name="Path 9172" d="M197.52,352.914a2.293,2.293,0,1,0,2.316-2.27A2.293,2.293,0,0,0,197.52,352.914Z" transform="translate(-102.974 -240.172)" fill="#662c01"/>
            <path id="Path_9173" data-name="Path 9173" d="M186.934,350.746l1.775-8.285,6.059-1.327-4.557,3.382Z" transform="translate(-116.563 -252.381)" fill="#c41d0c"/>
            <path id="Path_9174" data-name="Path 9174" d="M216.787,340.453l2.969,2.3,1.521,1.176,4.75,5.976-1-3.067-.009-.025a37.738,37.738,0,0,0-2.275-4.924c.2-.062.4-.126.605-.192l-.8-.151Z" transform="translate(-78.241 -253.254)" fill="#c41d0c"/>
          </g>
          <path id="Path_9175" data-name="Path 9175" d="M217.017,364.48l-18.8,36.072,27.847,2.646Z" transform="translate(-102.073 -222.411)" fill="#c41d0c"/>
        </g>
        <g id="Group_4822" data-name="Group 4822" transform="translate(0 81.12)">
          <g id="Group_4818" data-name="Group 4818" transform="translate(51.215 130.207)">
            <path id="Path_9176" data-name="Path 9176" d="M155.929,424.982a4.842,4.842,0,0,1-3-8.566l40.73-33.833a4.843,4.843,0,0,1,6.189,7.452l-40.73,33.831A4.819,4.819,0,0,1,155.929,424.982Z" transform="translate(-151.179 -381.466)" fill="#4f0e07"/>
          </g>
          <g id="Group_4819" data-name="Group 4819" transform="translate(180.701 131.949)">
            <path id="Path_9177" data-name="Path 9177" d="M252,427.317a4.843,4.843,0,0,0,3.334-8.443l-39.371-35.4a4.843,4.843,0,0,0-6.477,7.2l39.373,35.4A4.829,4.829,0,0,0,252,427.317Z" transform="translate(-207.879 -382.228)" fill="#4f0e07"/>
          </g>
          <g id="Group_4820" data-name="Group 4820" transform="translate(0 139.36)">
            <path id="Path_9178" data-name="Path 9178" d="M389.505,425.266l-256-5.024a4.842,4.842,0,1,1,.19-9.683l256,5.022a10.187,10.187,0,0,0,.4-20.371l-2.683-.053a4.842,4.842,0,1,1,.19-9.683l2.683.053a19.873,19.873,0,1,1-.779,39.738Z" transform="translate(-128.753 -385.474)" fill="#6a2b20"/>
          </g>
          <path id="Path_9179" data-name="Path 9179" d="M136.5,327.629s25.477,14.995,15.849,40.577-32.307,86.881,20.709,93.828,165.8,5.4,165.8,5.4,30.688-4.229,24.289-33.885,5.04-38.021,5.04-38.021-19.688-8.977-32.885,6.872-58.814,14.954-80.146,7.554-38.409-12.565-47.06-36.9S175.635,330.543,136.5,327.629Z" transform="translate(-118.811 -320.368)" fill="#e53013"/>
          <path id="Path_9180" data-name="Path 9180" d="M349.237,457.991s-112.778,1.546-165.8-5.4-30.339-68.244-20.708-93.825c4.191-11.133,1.731-20.256-2.382-27.016a118.4,118.4,0,0,0-23.853-4.12s25.477,14.995,15.849,40.577-32.307,86.881,20.709,93.828,165.8,5.4,165.8,5.4,14.887-2.064,21.759-13.341A38.084,38.084,0,0,1,349.237,457.991Z" transform="translate(-118.811 -320.368)" opacity="0.1"/>
          <g id="Group_4821" data-name="Group 4821" transform="translate(6.985)">
            <path id="Path_9181" data-name="Path 9181" d="M275.72,424.759c-45.758-.9-59.077-28.921-73.169-58.561l-.594-1.247c-13.056-27.448-65.06-30.8-65.585-30.827a4.843,4.843,0,0,1,.566-9.669c2.373.139,58.275,3.773,73.765,36.336l.594,1.249c13.851,29.131,24.849,52.255,64.608,53.036.742.014,1.487.021,2.249.021,41.775-.059,53.169-6.773,54.279-7.5a1.814,1.814,0,0,1,.393-.292c1.226-.859,30.273-20.921,50.776-8.646a4.843,4.843,0,0,1-4.976,8.31c-12.494-7.481-33,3.247-40.079,8.155-2.622,2.108-15.132,9.6-60.379,9.662C277.343,424.782,276.523,424.775,275.72,424.759Zm56.64-17.089v0Z" transform="translate(-131.811 -324.45)" fill="#d7d7d7"/>
          </g>
        </g>
      </g>
    </g>
  </g>
</svg>
