<svg xmlns="http://www.w3.org/2000/svg" width="1920" height="350.948" viewBox="0 0 1920 350.948">
  <g id="Group_2" data-name="Group 2" transform="translate(-98.23 -330.515)">
    <path id="Path_3" data-name="Path 3" d="M1425.9,379.841c-45.092,24.28-86.853,52.549-135.414,38.675-97.121-27.749-194.1-27.353-284.279,7.333-169.961,62.435-339.922,79.778-520.289,48.56-45.092-6.937-93.652-17.343-128.338,3.469-76.309,52.029-156.087,65.9-239.333,93.652q-9.969,3.215-20.014,5.848V681.463h1920v-243.2C1837.194,346.407,1607.07,281.018,1425.9,379.841Z" transform="translate(0)" fill="#fff"/>
    <path id="Path_4" data-name="Path 4" d="M553.312,410.732s-100.62-6.354-165.629,16.771,47.253,94.807,222.94,61.28,220.776-8.1,291.306-9.251,62.164,3.469,88.314-4.624,35.57-46.25,100.811-49.719,51.363,5.782,65.237-3.469-37.457-59.864-160.363-39.181-196.038,30.881-245.608,25.2-22.979-5.675-49.57-5.675S553.312,410.732,553.312,410.732Z" transform="translate(668.498 116.278)" fill="#f9f9f9"/>
  </g>
</svg>
