<svg xmlns="http://www.w3.org/2000/svg" xmlns:xlink="http://www.w3.org/1999/xlink" width="380" height="76.492" viewBox="0 0 380 76.492">
  <defs>
    <linearGradient id="linear-gradient" x1="0.5" x2="0.5" y2="1" gradientUnits="objectBoundingBox">
      <stop offset="0" stop-color="#c9ebed"/>
      <stop offset="0.473" stop-color="#edf9f8"/>
      <stop offset="1" stop-color="#6ec7cb"/>
    </linearGradient>
  </defs>
  <path id="Path_8896" data-name="Path 8896" d="M1646.088,2716.591c1.517,7.587,7.777,7.4,11.381,10.243s1.518,23.331,4.552,32.246,10.243,3.414,9.484-5.311-8.725-29.591,3.035-34.143,9.1,9.1,20.486,7.208,8.346-14.416,27.694-10.243,29.59,9.863,40.971,5.311,13.657,4.173,19.348,3.035,12.519-10.433,25.038-10.243,17.451,4.932,17.451,12.14.379,11,3.794,9.1-1.138-12.9,4.552-14.036,9.484,4.932,13.278,3.035,8.346-9.1,18.968-8.346,15.175,10.243,22.382,5.311,26.555-3.035,32.625,0,11,8.726,20.865,14.036,10.243-6.07,15.554-11,16.313,3.415,22,8.725,10.243-2.276,19.727,2.276-.19,24.848,8.346,26.935,9.863-7.967,7.966-11-4.932-9.484,0-11.76,1.518-10.243,4.173-15.175,6.449-8.346,6.07-16.692-20.106-21.624-54.249-9.1-40.971-17.83-80.425,0c-23.521,4.552-26.935-3.414-44.006-1.9s-22,9.1-45.524-5.69-31.867,12.519-48.558,9.864-21.624-12.14-55.767,0c-24.659.759-23.9-4.932-35.281-2.276S1644.571,2709,1646.088,2716.591Z" transform="translate(-1645.858 -2687.133)" fill="url(#linear-gradient)"/>
</svg>
