<svg xmlns="http://www.w3.org/2000/svg" xmlns:xlink="http://www.w3.org/1999/xlink" width="596.329" height="653.118" viewBox="0 0 596.329 653.118">
  <defs>
    <clipPath id="clip-path">
      <path id="Path_389" data-name="Path 389" d="M508.959,338.316c-3.159-3.847-8.36-7.928-13.611-6.627-7.135,1.77-8.739,8.795-6.008,14.25,4.333,8.663,12.493,15.564,19.471,22.028,11.76,10.9,7.752,6.567,19.486,17.493,4.184,3.9-2.443,10.9-7.053,6.683-13.349-12.214-10.551-8.881-23.631-21.387-7.44-7.115-16.925-15.878-19.06-26.453-2.008-9.947,5.307-19.759,14.957-22.15,8.16-2.021,17.05,2.935,22.141,9.132,3.918,4.772-2.724,11.859-6.692,7.031Z" transform="translate(-478.218 -321.694)" fill="none"/>
    </clipPath>
    <clipPath id="clip-path-2">
      <path id="Path_401" data-name="Path 401" d="M512.753,172.241c-2.483-4.313-6.945-9.195-12.338-8.773-7.33.572-10.065,7.238-8.268,13.069,2.851,9.257,9.767,17.4,15.588,24.926,9.81,12.682,6.567,7.752,16.344,20.456,3.49,4.533-4.2,10.354-8.053,5.434-11.162-14.241-8.949-10.493-19.8-24.978-6.169-8.24-14.086-18.445-14.454-29.224-.346-10.143,8.481-18.619,18.393-19.391,8.382-.654,16.336,5.694,20.34,12.646,3.081,5.35-4.636,11.25-7.754,5.836Z" transform="translate(-481.765 -153.712)" fill="none"/>
    </clipPath>
    <clipPath id="clip-path-3">
      <path id="Path_413" data-name="Path 413" d="M472.158,263.94c1.658-4.692,5.159-10.3,10.536-10.87,7.313-.77,11.214,5.288,10.506,11.349-1.12,9.62-6.44,18.89-10.794,27.345-7.341,14.252-5.049,8.814-12.355,23.085-2.606,5.092,6.012,9.418,8.909,3.879,8.386-16.032,6.892-11.947,14.925-28.16,4.569-9.227,10.5-20.7,8.9-31.366-1.5-10.035-11.723-16.766-21.612-15.723-8.36.879-15.026,8.569-17.7,16.131-2.056,5.821,6.6,10.22,8.687,4.328Z" transform="translate(-463.158 -243.374)" fill="none"/>
    </clipPath>
    <clipPath id="clip-path-4">
      <path id="Path_425" data-name="Path 425" d="M434.785,356.337c2.853-4.079,7.728-8.547,13.061-7.655,7.253,1.215,9.39,8.1,7.089,13.747-3.653,8.969-11.259,16.478-17.718,23.46-10.885,11.771-7.223,7.143-18.08,18.942-3.873,4.208,3.273,10.68,7.545,6.12,12.369-13.2,9.837-9.668,21.916-23.141,6.87-7.668,15.652-17.136,16.966-27.842,1.237-10.074-6.812-19.292-16.62-20.933-8.291-1.389-16.77,4.236-21.369,10.809-3.539,5.06,3.628,11.614,7.21,6.494Z" transform="translate(-418.025 -338.821)" fill="none"/>
    </clipPath>
  </defs>
  <g id="Group_203" data-name="Group 203" transform="translate(-365.794 -114.953)">
    <g id="Group_83" data-name="Group 83" transform="translate(365.794 160.275)">
      <path id="Path_252" data-name="Path 252" d="M904.842,482.307C817.029,418.817,776.685,330.367,748.1,280.253l-225.36,4.569C500.673,340.379,453.8,418.817,365.794,482.307c18.058,15.781,111.587,2.537,151.3-25.423-5.124,16.187-19.217,50.035-47.4,73.578,38.176,7.87,73.849,4.716,114.393-21.892l48.822,57.552s48.891-46.842,54.146-66.132c40.817,27.605,74.847,38.522,113.888,30.472-28.184-23.543-42.277-57.391-47.4-73.578C793.257,484.844,886.784,498.087,904.842,482.307Z" transform="translate(-365.794 29.867)" fill="#1c521e"/>
      <path id="Path_253" data-name="Path 253" d="M849.2,419.581c-76-54.95-86.187-86.932-135.666-174.88l-195.052,3.954c-28.622,55.391-59.662,115.976-135.836,170.926,15.63,13.659,96.578,2.2,130.955-22-4.436,14.009-16.635,43.3-41.03,63.685,33.044,6.81,50.594-.318,85.685-23.346l55.583,54.209s40.692-39.658,45.24-56.355c35.329,23.894,66.405,32.457,100.2,25.492-24.4-20.38-36.594-49.676-41.03-63.685C752.627,421.777,833.576,433.24,849.2,419.581Z" transform="translate(-346.404 -11.028)" fill="#246926"/>
      <path id="Path_254" data-name="Path 254" d="M780.344,355.816c-61.389-44.382-97.1-112.926-109.576-141.246l-157.54,3.193c-3.03,2.243-48.188,93.671-109.712,138.053,12.622,11.033,78,1.776,105.768-17.77-3.582,11.315-13.433,34.976-33.136,51.435,26.685,5.5,46.932-9.855,75.275-28.455l38.821,53.385s19.2-38.415,22.87-51.9c28.534,19.3,67.3,32.6,94.6,26.971-19.7-16.458-29.556-40.12-33.14-51.435C702.338,357.592,767.719,366.849,780.344,355.816Z" transform="translate(-322.404 -45.687)" fill="#398d3b"/>
      <path id="Path_255" data-name="Path 255" d="M681.835,329.839C639.328,307.648,603.085,226.277,557.6,136.03c-46.616,95.546-81.73,171.618-124.235,193.809,8.324,7.274,51.435,1.17,69.742-11.719-2.363,7.461-8.859,23.064-21.851,33.916,17.6,3.628,56.729-3.679,75.417-15.944,0,0,59.277,19.656,77.273,15.944-12.992-10.852-19.488-26.455-21.851-33.916C630.4,331.009,673.511,337.114,681.835,329.839Z" transform="translate(-288.073 -136.03)" fill="#439f47"/>
    </g>
    <g id="Group_84" data-name="Group 84" transform="translate(589.832 114.953)">
      <path id="Path_256" data-name="Path 256" d="M515.5,114.953l10.745,33.068h34.77l-28.13,20.437,10.745,33.068L515.5,181.089l-28.129,20.437,10.745-33.068-28.13-20.437h34.77Z" transform="translate(-469.984 -114.953)" fill="#ffb600"/>
      <path id="Path_257" data-name="Path 257" d="M491.33,137.472l.044.061.751-.238-.54-.172Z" transform="translate(-445.43 -89.449)" fill="#fbc778" opacity="0.45" style="mix-blend-mode: multiply;isolation: isolate"/>
      <path id="Path_258" data-name="Path 258" d="M491.151,137.036v.733l.314-.1.071-.1Z" transform="translate(-445.636 -89.55)" fill="#fbc778" opacity="0.45" style="mix-blend-mode: multiply;isolation: isolate"/>
      <path id="Path_259" data-name="Path 259" d="M491.3,137.383l.115-.036-.044-.061Z" transform="translate(-445.468 -89.263)" fill="#fbc778" opacity="0.45" style="mix-blend-mode: multiply;isolation: isolate"/>
      <path id="Path_260" data-name="Path 260" d="M491.151,137.761l.314-.429-.314.1Z" transform="translate(-445.636 -89.211)" fill="#fbc778" opacity="0.45" style="mix-blend-mode: multiply;isolation: isolate"/>
      <path id="Path_261" data-name="Path 261" d="M491.144,137.027l.014.02v-.015Z" transform="translate(-445.644 -89.56)" fill="#fbc778" opacity="0.45" style="mix-blend-mode: multiply;isolation: isolate"/>
      <path id="Path_262" data-name="Path 262" d="M491.791,137.233l-.641-.2v.015l.385.537Z" transform="translate(-445.636 -89.558)" fill="#fbc778" opacity="0.45" style="mix-blend-mode: multiply;isolation: isolate"/>
      <path id="Path_263" data-name="Path 263" d="M508.389,149.69l25.777-18.728L491.7,144.384Z" transform="translate(-445.005 -96.537)" fill="#ef9f00"/>
      <path id="Path_264" data-name="Path 264" d="M491.791,162.628l10.7-14.607h-.6l-10.744-33.068v47.471Z" transform="translate(-445.636 -114.953)" fill="#ef9f00"/>
      <path id="Path_265" data-name="Path 265" d="M491.465,137.351l-.314.429v17.586l27.971,20.322L491.58,137.314Z" transform="translate(-445.636 -89.23)" fill="#ef9f00"/>
      <path id="Path_266" data-name="Path 266" d="M506.2,137.378,488.738,142.9l-10.669,32.835.594-.431L506.2,137.707Z" transform="translate(-460.684 -89.158)" fill="#ef9f00"/>
      <path id="Path_267" data-name="Path 267" d="M504.765,130.154l-.123.38h-34.56l45.291,14.4Z" transform="translate(-469.872 -97.466)" fill="#ef9f00"/>
    </g>
    <g id="Group_85" data-name="Group 85" transform="translate(561.347 296.21)">
      <path id="Path_268" data-name="Path 268" d="M483.022,216.524s21.855-19.221,32.914-17.116-.527,30.28-.527,30.28,8.952,15.536-4.212,19.486-29.891-15.942-29.891-15.942Z" transform="translate(-428.476 -199.247)" fill="#d21625"/>
      <path id="Path_269" data-name="Path 269" d="M501.717,232.424c-13.164-3.423-13.429-17.905-13.429-17.905l11.323-2.37-16.852-1.316-.643,1.189-.811,7.883S498.031,239.8,511.2,235.847s4.212-19.486,4.212-19.486S514.883,235.847,501.717,232.424Z" transform="translate(-428.476 -185.92)" fill="#bc081e"/>
      <path id="Path_270" data-name="Path 270" d="M494.431,216.524s-21.853-19.221-32.912-17.116.527,30.28.527,30.28-8.954,15.536,4.212,19.486,29.891-15.942,29.891-15.942Z" transform="translate(-456.737 -199.247)" fill="#d21625"/>
      <path id="Path_271" data-name="Path 271" d="M474.488,232.424c13.166-3.423,13.429-17.905,13.429-17.905l-11.321-2.37,16.852-1.316.643,1.189.811,7.883s-16.725,19.892-29.891,15.942-4.212-19.486-4.212-19.486S461.324,235.847,474.488,232.424Z" transform="translate(-455.488 -185.92)" fill="#bc081e"/>
      <path id="Path_272" data-name="Path 272" d="M492.316,223.905a67.588,67.588,0,0,1-4.451-9.358c-4.86-2-10.461.781-10.461.781s3.6,21.679,5.111,30.5c.267,1.548.469,2.712.574,3.281.548-2.146,4.63-6.552,6.524-10.386,4.148,2.032,11.566,1.983,13.545.91C500.2,237.5,495.679,230.141,492.316,223.905Z" transform="translate(-432.964 -182.482)" fill="#960214"/>
      <path id="Path_273" data-name="Path 273" d="M480.766,216.236c-3.46,6.038-8.444,13.738-11.482,15.747,1.772,1.163,8.6,1.679,12.523-.019,1.555,3.821,5.1,8.332,5.5,10.44.551-2.372,3.3-15.314,5.163-24.068C489.567,219.255,481.632,218.348,480.766,216.236Z" transform="translate(-442.306 -179.705)" fill="#bc081e"/>
      <path id="Path_274" data-name="Path 274" d="M484.625,205.86c-3.342-1.884-11.618-3.045-11.618,12.48,0,17.819,7.294,16.02,11.618,13.622,4.326,2.4,11.62,4.2,11.62-13.622C496.245,202.815,487.969,203.976,484.625,205.86Z" transform="translate(-438.022 -192.87)" fill="#d21625"/>
    </g>
    <path id="Path_275" data-name="Path 275" d="M467.76,182.514s54.344,31.463,118.7,30.033" transform="translate(117.29 77.715)" fill="none" stroke="#5fd692" stroke-miterlimit="10" stroke-width="1" fill-rule="evenodd"/>
    <path id="Path_276" data-name="Path 276" d="M676.7,245.032S553.7,293.656,427.855,270.773" transform="translate(71.388 149.628)" fill="none" stroke="#5fd692" stroke-miterlimit="10" stroke-width="1" fill-rule="evenodd"/>
    <path id="Path_277" data-name="Path 277" d="M419.874,289.592s92.617,60.571,224.358,66.039" transform="translate(62.207 200.885)" fill="none" stroke="#5fd692" stroke-miterlimit="10" stroke-width="1" fill-rule="evenodd"/>
    <path id="Path_278" data-name="Path 278" d="M798.458,344.794S591.093,456.344,396.6,351.946" transform="translate(35.431 264.383)" fill="none" stroke="#5fd692" stroke-miterlimit="10" stroke-width="1" fill-rule="evenodd"/>
    <g id="Group_89" data-name="Group 89" transform="translate(581.824 257.051)">
      <g id="Group_86" data-name="Group 86">
        <path id="Path_279" data-name="Path 279" d="M469.486,187.446a3.222,3.222,0,0,1-2.277-.946,3.269,3.269,0,0,1-.948-2.279,3.153,3.153,0,0,1,.067-.647,5.263,5.263,0,0,1,.172-.6,4.965,4.965,0,0,1,.3-.538,3.233,3.233,0,0,1,.411-.492,3.323,3.323,0,0,1,4.559,0,3.222,3.222,0,0,1,.944,2.279,3.227,3.227,0,0,1-3.225,3.225Z" transform="translate(-466.26 -181.036)" fill="#fff"/>
      </g>
      <g id="Group_87" data-name="Group 87" transform="translate(18.532 8.959)">
        <path id="Path_280" data-name="Path 280" d="M557.41,212.045a3.207,3.207,0,0,1-2.946-3.46h0a3.2,3.2,0,0,1,3.464-2.97h0a3.216,3.216,0,0,1,2.946,3.483h0a3.23,3.23,0,0,1-3.2,2.967h0C557.582,212.067,557.5,212.045,557.41,212.045ZM536.66,209.4h0a3.256,3.256,0,0,1-2.623-3.744h0a3.241,3.241,0,0,1,3.744-2.621h0a3.249,3.249,0,0,1,2.621,3.739h0a3.225,3.225,0,0,1-3.18,2.666h0C537.049,209.444,536.855,209.422,536.66,209.4Zm-20.4-4.453a3.225,3.225,0,0,1-2.3-3.933h0a3.227,3.227,0,0,1,3.937-2.3h0a3.228,3.228,0,0,1,2.3,3.935h0a3.189,3.189,0,0,1-3.118,2.408h0A2.76,2.76,0,0,1,516.256,204.949Zm-19.957-6.04a3.2,3.2,0,0,1-2-4.088h0a3.2,3.2,0,0,1,4.083-2h0a3.2,3.2,0,0,1,2,4.083h0a3.228,3.228,0,0,1-3.053,2.2h0A2.992,2.992,0,0,1,496.3,198.909Zm-19.458-7.526h0a3.231,3.231,0,0,1-1.7-4.238h0a3.235,3.235,0,0,1,4.255-1.675h0a3.214,3.214,0,0,1,1.677,4.234h0a3.242,3.242,0,0,1-2.965,1.959h0A2.928,2.928,0,0,1,476.841,191.383Z" transform="translate(-474.878 -185.203)" fill="#fff"/>
      </g>
      <g id="Group_88" data-name="Group 88" transform="translate(118.698 29.987)">
        <path id="Path_281" data-name="Path 281" d="M524.687,201.42a6.206,6.206,0,0,1-.624-.041,2.958,2.958,0,0,1-.6-.2,2.579,2.579,0,0,1-.557-.3,4.2,4.2,0,0,1-.5-.387,3.247,3.247,0,0,1,0-4.578,2.843,2.843,0,0,1,.5-.389,2.668,2.668,0,0,1,.557-.3,2.835,2.835,0,0,1,.6-.2,3.361,3.361,0,0,1,2.9.884,3.254,3.254,0,0,1,.948,2.277,3.109,3.109,0,0,1-.067.645,5.47,5.47,0,0,1-.172.6,5.106,5.106,0,0,1-.3.557,4.821,4.821,0,0,1-.411.495A3.29,3.29,0,0,1,524.687,201.42Z" transform="translate(-521.461 -194.982)" fill="#fff"/>
      </g>
    </g>
    <g id="Group_93" data-name="Group 93" transform="translate(496.007 391.488)">
      <g id="Group_90" data-name="Group 90" transform="translate(248.854)">
        <path id="Path_282" data-name="Path 282" d="M545.306,249.965a3.233,3.233,0,0,1-2.281-.946,3.275,3.275,0,0,1-.944-2.279,3.2,3.2,0,0,1,.944-2.281,3.332,3.332,0,0,1,4.558,0,3.183,3.183,0,0,1,.948,2.281,3.234,3.234,0,0,1-3.226,3.225Z" transform="translate(-542.081 -243.557)" fill="#fff"/>
      </g>
      <g id="Group_91" data-name="Group 91" transform="translate(20.834 6.795)">
        <path id="Path_283" data-name="Path 283" d="M481.24,278.111a3.253,3.253,0,0,1-3.18-3.29h0a3.218,3.218,0,0,1,3.288-3.161h0a3.21,3.21,0,0,1,3.163,3.288h0a3.224,3.224,0,0,1-3.225,3.163h-.045Zm17.893-3.249a3.253,3.253,0,0,1,3.137-3.333h0a3.226,3.226,0,0,1,3.313,3.139h0a3.219,3.219,0,0,1-3.12,3.311h0c-.041,0-.064.021-.105.021h0A3.245,3.245,0,0,1,499.133,274.862Zm-39.116,2.344h0a3.223,3.223,0,0,1-2.989-3.44h0a3.231,3.231,0,0,1,3.44-3.01h-.021a3.232,3.232,0,0,1,3.013,3.443h0a3.218,3.218,0,0,1-3.206,3.008h-.236Zm60.186-3.288a3.209,3.209,0,0,1,2.967-3.443h0a3.234,3.234,0,0,1,3.464,2.967h0a3.232,3.232,0,0,1-2.989,3.462h-.237A3.2,3.2,0,0,1,520.2,273.918Zm-81.324,1.269a3.225,3.225,0,0,1-2.817-3.591h0a3.2,3.2,0,0,1,3.591-2.8v-.024a3.258,3.258,0,0,1,2.819,3.615h0a3.229,3.229,0,0,1-3.2,2.836h0A2.666,2.666,0,0,1,438.879,275.187Zm102.311-3.1a3.249,3.249,0,0,1,2.838-3.57h0a3.235,3.235,0,0,1,3.572,2.838h0a3.218,3.218,0,0,1-2.841,3.569h0a2.067,2.067,0,0,1-.366.021h0A3.228,3.228,0,0,1,541.19,272.088Zm20.9-2.664a3.229,3.229,0,0,1,2.709-3.677h0a3.21,3.21,0,0,1,3.677,2.688h0a3.247,3.247,0,0,1-2.709,3.677h0a3.613,3.613,0,0,1-.5.041h0A3.246,3.246,0,0,1,562.093,269.424Zm20.793-3.483a3.243,3.243,0,0,1,2.557-3.787h0a3.246,3.246,0,0,1,3.787,2.559h0a3.261,3.261,0,0,1-2.561,3.785h0a2.912,2.912,0,0,1-.624.064h0A3.232,3.232,0,0,1,582.886,265.941Zm20.641-4.26a3.24,3.24,0,0,1,2.43-3.87h0a3.255,3.255,0,0,1,3.87,2.43h0a3.248,3.248,0,0,1-2.43,3.871h0a3.806,3.806,0,0,1-.731.086h0A3.232,3.232,0,0,1,603.527,261.681Zm20.494-5.01a3.19,3.19,0,0,1,2.256-3.933h0A3.212,3.212,0,0,1,630.233,255h0a3.227,3.227,0,0,1-2.277,3.956h0a3.864,3.864,0,0,1-.841.108h0A3.208,3.208,0,0,1,624.021,256.671Zm20.256-5.761a3.221,3.221,0,0,1,2.105-4.043h.024a3.22,3.22,0,0,1,4.043,2.107h0a3.233,3.233,0,0,1-2.131,4.04h.021a3.1,3.1,0,0,1-.965.15h0A3.259,3.259,0,0,1,644.277,250.91Z" transform="translate(-436.039 -246.717)" fill="#fff"/>
      </g>
      <g id="Group_92" data-name="Group 92" transform="translate(0 25.696)">
        <path id="Path_284" data-name="Path 284" d="M429.575,261.956a2.973,2.973,0,0,1-1.224-.258,3,3,0,0,1-1.054-.686,3.254,3.254,0,0,1-.948-2.281,3.3,3.3,0,0,1,.948-2.277,2.758,2.758,0,0,1,.492-.411,4.767,4.767,0,0,1,.561-.3,2.035,2.035,0,0,1,.6-.172,3.15,3.15,0,0,1,1.269,0,2.03,2.03,0,0,1,.6.172,4.919,4.919,0,0,1,.559.3,2.175,2.175,0,0,1,.475.411,3.221,3.221,0,0,1,.944,2.277,2.974,2.974,0,0,1-.234,1.228,2.918,2.918,0,0,1-.71,1.054A3.2,3.2,0,0,1,429.575,261.956Z" transform="translate(-426.35 -255.507)" fill="#fff"/>
      </g>
    </g>
    <g id="Group_97" data-name="Group 97" transform="translate(478.849 487.252)">
      <g id="Group_94" data-name="Group 94">
        <path id="Path_285" data-name="Path 285" d="M421.6,294.551a3,3,0,0,1-1.228-.258,2.864,2.864,0,0,1-1.054-.71,2.991,2.991,0,0,1-.686-1.032,3.046,3.046,0,0,1-.258-1.226,2.947,2.947,0,0,1,.258-1.247,2.811,2.811,0,0,1,.3-.559,2.692,2.692,0,0,1,.385-.492,3.379,3.379,0,0,1,2.927-.882,3.045,3.045,0,0,1,.6.194,3.721,3.721,0,0,1,.559.3,3.911,3.911,0,0,1,.471.389,2.751,2.751,0,0,1,.411.492,4.608,4.608,0,0,1,.3.559,3.065,3.065,0,0,1,.172.6,3.308,3.308,0,0,1,.067.645,3.023,3.023,0,0,1-.239,1.226,3.363,3.363,0,0,1-.71,1.032,2.731,2.731,0,0,1-1.03.71A3.092,3.092,0,0,1,421.6,294.551Z" transform="translate(-418.371 -288.092)" fill="#fff"/>
      </g>
      <g id="Group_95" data-name="Group 95" transform="translate(18.629 10.661)">
        <path id="Path_286" data-name="Path 286" d="M614.295,353.488h.022a3.247,3.247,0,0,1-2.948-3.5h0a3.246,3.246,0,0,1,3.5-2.927h0a3.227,3.227,0,0,1,2.927,3.486h0a3.227,3.227,0,0,1-3.206,2.946h-.3ZM592.814,351.1h0a3.21,3.21,0,0,1-2.755-3.634h0a3.226,3.226,0,0,1,3.615-2.772h0a3.241,3.241,0,0,1,2.774,3.632h0a3.242,3.242,0,0,1-3.2,2.8h0A3.02,3.02,0,0,1,592.814,351.1Zm-21.352-3.352h0a3.2,3.2,0,0,1-2.6-3.741h0a3.217,3.217,0,0,1,3.739-2.6h0a3.215,3.215,0,0,1,2.6,3.742h0a3.22,3.22,0,0,1-3.161,2.664h0A2.8,2.8,0,0,1,571.461,347.747Zm-21.182-4.279a3.225,3.225,0,0,1-2.449-3.849h0a3.251,3.251,0,0,1,3.868-2.451h0a3.256,3.256,0,0,1,2.43,3.871h0a3.255,3.255,0,0,1-3.139,2.516h0A2.694,2.694,0,0,1,550.279,343.468Zm-20.987-5.184a3.213,3.213,0,0,1-2.256-3.954h0a3.213,3.213,0,0,1,3.935-2.281h0a3.229,3.229,0,0,1,2.277,3.959h0a3.229,3.229,0,0,1-3.118,2.385h0A3.614,3.614,0,0,1,529.292,338.283ZM508.565,332.2a3.223,3.223,0,0,1-2.109-4.043h0a3.222,3.222,0,0,1,4.043-2.107h0a3.225,3.225,0,0,1,2.109,4.045h0a3.223,3.223,0,0,1-3.077,2.258h0A3.019,3.019,0,0,1,508.565,332.2Zm-20.473-6.943h0a3.224,3.224,0,0,1-1.933-4.131h0a3.237,3.237,0,0,1,4.128-1.933h.022a3.226,3.226,0,0,1,1.912,4.126h0a3.229,3.229,0,0,1-3.032,2.131h0A3.333,3.333,0,0,1,488.093,325.255Zm-20.148-7.829a3.227,3.227,0,0,1-1.761-4.215h0a3.249,3.249,0,0,1,4.215-1.74h0a3.235,3.235,0,0,1,1.761,4.215h0a3.23,3.23,0,0,1-2.987,2h0A3.146,3.146,0,0,1,467.945,317.425Zm-19.8-8.687a3.22,3.22,0,0,1-1.568-4.279h0a3.228,3.228,0,0,1,4.3-1.548h0a3.207,3.207,0,0,1,1.546,4.279h0a3.213,3.213,0,0,1-2.924,1.851h0A3.005,3.005,0,0,1,448.14,308.738Zm-19.393-9.612a3.217,3.217,0,0,1-1.333-4.365h0a3.226,3.226,0,0,1,4.365-1.333h0a3.225,3.225,0,0,1,1.331,4.365h0a3.225,3.225,0,0,1-2.858,1.72h0A3.227,3.227,0,0,1,428.747,299.127Z" transform="translate(-427.035 -293.05)" fill="#fff"/>
      </g>
      <g id="Group_96" data-name="Group 96" transform="translate(224.36 66.043)">
        <path id="Path_287" data-name="Path 287" d="M525.936,325.257a3.269,3.269,0,0,1-2.281-.944,3.491,3.491,0,0,1-.708-1.056,3.352,3.352,0,0,1-.236-1.226,3.227,3.227,0,0,1,.944-2.277,2.774,2.774,0,0,1,.5-.411,4.909,4.909,0,0,1,.557-.3,1.948,1.948,0,0,1,.6-.172,3.045,3.045,0,0,1,1.247,0,2.3,2.3,0,0,1,.624.172,4.651,4.651,0,0,1,.538.3,2.168,2.168,0,0,1,.492.411,3.223,3.223,0,0,1,.948,2.277,3.305,3.305,0,0,1-.239,1.226,3.492,3.492,0,0,1-.709,1.056A3.225,3.225,0,0,1,525.936,325.257Z" transform="translate(-522.711 -318.806)" fill="#fff"/>
      </g>
    </g>
    <g id="Group_101" data-name="Group 101" transform="translate(428.789 605.999)">
      <g id="Group_98" data-name="Group 98" transform="translate(401.866)">
        <path id="Path_288" data-name="Path 288" d="M585.205,349.724a3.234,3.234,0,0,1-3.225-3.225,3.207,3.207,0,0,1,.948-2.277,3.323,3.323,0,0,1,4.559,0,3.211,3.211,0,0,1,.944,2.277,3.161,3.161,0,0,1-.944,2.279A3.227,3.227,0,0,1,585.205,349.724Z" transform="translate(-581.98 -343.316)" fill="#fff"/>
      </g>
      <g id="Group_99" data-name="Group 99" transform="translate(19.632 9.301)">
        <path id="Path_289" data-name="Path 289" d="M574.847,393.258a3.2,3.2,0,0,1,3.161-3.268h0a3.218,3.218,0,0,1,3.266,3.161h0a3.217,3.217,0,0,1-3.161,3.29h-.041A3.226,3.226,0,0,1,574.847,393.258Zm-18.839,3.01a3.236,3.236,0,0,1-3.118-3.331h0a3.225,3.225,0,0,1,3.335-3.12h0a3.235,3.235,0,0,1,3.116,3.333h0a3.238,3.238,0,0,1-3.225,3.118h-.108Zm40.769-3.742a3.229,3.229,0,0,1,3.012-3.44h0a3.223,3.223,0,0,1,3.417,3.013h0a3.225,3.225,0,0,1-3.01,3.438h-.215A3.221,3.221,0,0,1,596.778,392.527Zm-62.851,2.408a3.237,3.237,0,0,1-2.946-3.483h0a3.233,3.233,0,0,1,3.5-2.946h0a3.235,3.235,0,0,1,2.926,3.507h0a3.212,3.212,0,0,1-3.2,2.944h0C534.121,394.957,534.013,394.935,533.927,394.935Zm84.719-4.215a3.248,3.248,0,0,1,2.86-3.569h0a3.216,3.216,0,0,1,3.55,2.86h0a3.2,3.2,0,0,1-2.84,3.55h0a2.169,2.169,0,0,1-.366.019h0A3.228,3.228,0,0,1,618.646,390.721Zm-106.695,1.72a3.226,3.226,0,0,1-2.752-3.653h0a3.228,3.228,0,0,1,3.656-2.733h0a3.2,3.2,0,0,1,2.729,3.636h0a3.232,3.232,0,0,1-3.18,2.774h0A2.877,2.877,0,0,1,511.951,392.441Zm128.479-4.516a3.2,3.2,0,0,1,2.688-3.677h0a3.217,3.217,0,0,1,3.677,2.669h0a3.233,3.233,0,0,1-2.688,3.7h0a3.541,3.541,0,0,1-.5.043h0A3.209,3.209,0,0,1,640.431,387.926Zm-150.3.8a3.259,3.259,0,0,1-2.537-3.808h0a3.228,3.228,0,0,1,3.8-2.516h0a3.226,3.226,0,0,1,2.537,3.787h0a3.252,3.252,0,0,1-3.161,2.6h0A3.429,3.429,0,0,1,490.126,388.723Zm171.937-4.539a3.221,3.221,0,0,1,2.514-3.8h0a3.219,3.219,0,0,1,3.808,2.516h0a3.245,3.245,0,0,1-2.518,3.8h0a3.115,3.115,0,0,1-.645.065h0A3.215,3.215,0,0,1,662.063,384.184Zm-193.506-.43h0a3.221,3.221,0,0,1-2.3-3.935h0a3.189,3.189,0,0,1,3.911-2.3h.021a3.224,3.224,0,0,1,2.3,3.935h0a3.232,3.232,0,0,1-3.118,2.408h0A2.673,2.673,0,0,1,468.556,383.754Zm214.964-4.236a3.226,3.226,0,0,1,2.367-3.913h0a3.21,3.21,0,0,1,3.89,2.367h0a3.224,3.224,0,0,1-2.363,3.913h0v-.024h0a3.232,3.232,0,0,1-.776.107h0A3.212,3.212,0,0,1,683.52,379.518ZM447.312,377.54a3.229,3.229,0,0,1-2.084-4.062h0a3.217,3.217,0,0,1,4.062-2.064h0a3.231,3.231,0,0,1,2.086,4.062h0a3.267,3.267,0,0,1-3.075,2.236h0A3.212,3.212,0,0,1,447.312,377.54Zm257.456-3.569a3.2,3.2,0,0,1,2.191-4h0a3.232,3.232,0,0,1,4,2.191h0a3.233,3.233,0,0,1-2.217,4h0a3.225,3.225,0,0,1-.882.127h0A3.2,3.2,0,0,1,704.767,373.97Zm-278.313-3.89a3.2,3.2,0,0,1-1.806-4.174h0a3.225,3.225,0,0,1,4.174-1.826h0a3.221,3.221,0,0,1,1.826,4.169h0a3.265,3.265,0,0,1-3.01,2.064h0A3.367,3.367,0,0,1,426.454,370.08Zm299.3-2.516a3.244,3.244,0,0,1,2.043-4.088h0a3.223,3.223,0,0,1,4.083,2.045h0a3.207,3.207,0,0,1-2.043,4.062h0a2.791,2.791,0,0,1-1.011.172h0A3.222,3.222,0,0,1,725.754,367.565ZM746.48,360.3a3.213,3.213,0,0,1,1.871-4.152h0A3.234,3.234,0,0,1,752.525,358h0a3.253,3.253,0,0,1-1.871,4.169h0a3.187,3.187,0,0,1-1.161.217h0A3.243,3.243,0,0,1,746.48,360.3Zm-340.368,1.1h-.022a3.227,3.227,0,0,1-1.57-4.281h0a3.221,3.221,0,0,1,4.279-1.568h0a3.248,3.248,0,0,1,1.591,4.277h0a3.243,3.243,0,0,1-2.946,1.871h0A3.286,3.286,0,0,1,406.112,361.393Zm360.777-9.225a3.223,3.223,0,0,1,1.677-4.26h0a3.221,3.221,0,0,1,4.236,1.677h0a3.219,3.219,0,0,1-1.679,4.236h0v.024h0a3.286,3.286,0,0,1-1.269.256h0A3.233,3.233,0,0,1,766.889,352.169Z" transform="translate(-404.22 -347.642)" fill="#fff"/>
      </g>
      <g id="Group_100" data-name="Group 100" transform="translate(0 7.095)">
        <path id="Path_290" data-name="Path 290" d="M398.337,353.069a3.44,3.44,0,0,1-1.247-.239,3.7,3.7,0,0,1-1.051-.71,3.223,3.223,0,0,1-.948-2.277,2.9,2.9,0,0,1,.067-.624,2.688,2.688,0,0,1,.194-.6,2.958,2.958,0,0,1,.3-.557,4.166,4.166,0,0,1,.389-.5,2.808,2.808,0,0,1,.492-.387,2.008,2.008,0,0,1,.559-.3,3.328,3.328,0,0,1,.6-.2,3.151,3.151,0,0,1,1.269,0,3.293,3.293,0,0,1,.6.2,2.027,2.027,0,0,1,.557.3,2.128,2.128,0,0,1,.473.387,3.318,3.318,0,0,1,.71,1.054,1.937,1.937,0,0,1,.172.6,2.894,2.894,0,0,1,.065.624,3.133,3.133,0,0,1-.946,2.277A3.081,3.081,0,0,1,398.337,353.069Z" transform="translate(-395.09 -346.616)" fill="#fff"/>
      </g>
    </g>
    <g id="Group_102" data-name="Group 102" transform="translate(675.697 425.027)">
      <path id="Path_291" data-name="Path 291" d="M535.706,285.112s15.344-24.733,26.539-25.924,8.274,29.132,8.274,29.132,13.072,12.272,1.617,19.871-33.228-6.591-33.228-6.591Z" transform="translate(-480.251 -259.154)" fill="#d21625"/>
      <path id="Path_292" data-name="Path 292" d="M561.168,292.06c-13.592.542-18.043-13.242-18.043-13.242l10.149-5.552-16.51,3.628-.271,1.322L538,286s21.774,14.188,33.228,6.588-1.617-19.869-1.617-19.869S574.759,291.518,561.168,292.06Z" transform="translate(-479.345 -243.552)" fill="#bc081e"/>
      <path id="Path_293" data-name="Path 293" d="M549.245,277.857s-26.489-12.059-36.462-6.838,9.285,28.827,9.285,28.827-4.064,17.465,9.681,17.426,23.984-23.922,23.984-23.922Z" transform="translate(-509.916 -247.014)" fill="#d21625"/>
      <path id="Path_294" data-name="Path 294" d="M533.626,303.021c11.607-7.094,7.661-21.03,7.661-21.03l-11.523,1.015,15.747-6.146.961.951,3.06,7.311s-10.24,23.885-23.984,23.922-9.68-17.426-9.68-17.426S522.019,310.115,533.626,303.021Z" transform="translate(-503.716 -238.786)" fill="#bc081e"/>
      <path id="Path_295" data-name="Path 295" d="M550.066,285.446a67.726,67.726,0,0,1-6.973-7.664c-5.232-.51-9.786,3.78-9.786,3.78s9.73,19.7,13.736,27.711c.7,1.406,1.234,2.458,1.5,2.974-.1-2.213,2.531-7.612,3.234-11.831,4.557.742,11.642-1.456,13.227-3.058C561.551,296.176,555.092,290.441,550.066,285.446Z" transform="translate(-483.01 -237.775)" fill="#960214"/>
      <path id="Path_296" data-name="Path 296" d="M534.579,282.7c-1.561,6.782-4.1,15.6-6.423,18.4,2.032.6,8.719-.888,11.977-3.649,2.6,3.206,7.3,6.5,8.289,8.4-.163-2.428-1.279-15.615-2.038-24.533C543.877,283.042,536.02,284.474,534.579,282.7Z" transform="translate(-488.935 -233.657)" fill="#bc081e"/>
      <path id="Path_297" data-name="Path 297" d="M536.306,271.71c-3.746-.836-12,.454-7.5,15.312,5.167,17.054,11.624,13.216,15.071,9.668,4.834,1.039,12.336.649,7.171-16.407C546.544,265.427,538.96,268.936,536.306,271.71Z" transform="translate(-489.695 -247.552)" fill="#d21625"/>
    </g>
    <g id="Group_103" data-name="Group 103" transform="translate(479.403 508.994)">
      <path id="Path_298" data-name="Path 298" d="M449.283,317.088s26.995-10.88,36.727-5.223-10.543,28.39-10.543,28.39,3.29,17.624-10.44,16.983-22.909-24.956-22.909-24.956Z" transform="translate(-391.609 -284.365)" fill="#d21625"/>
      <path id="Path_299" data-name="Path 299" d="M457.219,343.389c-11.282-7.6-6.726-21.346-6.726-21.346l11.467,1.522-15.46-6.834-1,.907-3.38,7.169s9.18,24.313,22.909,24.956,10.44-16.983,10.44-16.983S468.5,350.988,457.219,343.389Z" transform="translate(-391.609 -276.891)" fill="#bc081e"/>
      <path id="Path_300" data-name="Path 300" d="M460.405,325.337s-14.239-25.384-25.369-27.066-9.552,28.739-9.552,28.739-13.6,11.685-2.49,19.778,33.486-5.12,33.486-5.12Z" transform="translate(-418.629 -298.204)" fill="#d21625"/>
      <path id="Path_301" data-name="Path 301" d="M433.071,331.295c13.555,1.14,18.611-12.433,18.611-12.433l-9.9-5.993,16.334,4.35.213,1.333-1.851,7.707s-22.378,13.216-33.486,5.12,2.49-19.778,2.49-19.778S419.518,330.155,433.071,331.295Z" transform="translate(-418.629 -282.794)" fill="#bc081e"/>
      <path id="Path_302" data-name="Path 302" d="M452.962,331.771a67.811,67.811,0,0,1-1.095-10.3c-3.918-3.5-10.128-2.735-10.128-2.735s-3.8,21.645-5.3,30.472c-.264,1.548-.458,2.711-.546,3.286,1.228-1.843,6.539-4.645,9.6-7.631,3.238,3.292,10.253,5.707,12.476,5.35C455.884,347.212,454.065,338.77,452.962,331.771Z" transform="translate(-398.767 -274.673)" fill="#960214"/>
      <path id="Path_303" data-name="Path 303" d="M444.011,319.387c-5.268,4.548-12.525,10.158-16.056,11.044,1.284,1.686,7.556,4.438,11.818,4.137.2,4.12,2.045,9.554,1.723,11.672,1.305-2.054,8.2-13.351,12.857-20.991C451.311,325.154,444.127,321.666,444.011,319.387Z" transform="translate(-407.901 -273.837)" fill="#bc081e"/>
      <path id="Path_304" data-name="Path 304" d="M451.872,311.765c-2.529-2.888-9.952-6.728-15.1,7.917-5.913,16.811,1.565,17.531,6.442,16.706,3.286,3.7,9.569,7.816,15.482-8.995C463.842,312.748,455.65,311.1,451.872,311.765Z" transform="translate(-400.268 -285.72)" fill="#d21625"/>
    </g>
    <g id="Group_104" data-name="Group 104" transform="translate(710.181 542.004)">
      <path id="Path_305" data-name="Path 305" d="M540.025,341.691a14.068,14.068,0,1,0-14.072-14.071A14.1,14.1,0,0,0,540.025,341.691Z" transform="translate(-525.953 -313.555)" fill="#bc081e" fill-rule="evenodd"/>
      <path id="Path_306" data-name="Path 306" d="M536.3,331.17a8.023,8.023,0,1,0-8.016-8.023A8.041,8.041,0,0,0,536.3,331.17Z" transform="translate(-523.273 -311.749)" fill="#d21625" fill-rule="evenodd"/>
    </g>
    <g id="Group_105" data-name="Group 105" transform="translate(663.075 241.121)">
      <path id="Path_307" data-name="Path 307" d="M518.117,201.764a14.068,14.068,0,1,0-14.071-14.071A14.1,14.1,0,0,0,518.117,201.764Z" transform="translate(-504.046 -173.628)" fill="#bc081e" fill-rule="evenodd"/>
      <path id="Path_308" data-name="Path 308" d="M514.392,191.243a8.023,8.023,0,1,0-8.016-8.023A8.042,8.042,0,0,0,514.392,191.243Z" transform="translate(-501.366 -171.822)" fill="#d21625" fill-rule="evenodd"/>
    </g>
    <g id="Group_106" data-name="Group 106" transform="translate(534.841 393.531)">
      <path id="Path_309" data-name="Path 309" d="M455.927,267.536A11.515,11.515,0,1,0,444.41,256.02,11.537,11.537,0,0,0,455.927,267.536Z" transform="translate(-444.41 -244.507)" fill="#bc081e" fill-rule="evenodd"/>
      <path id="Path_310" data-name="Path 310" d="M452.878,258.923a6.565,6.565,0,1,0-6.561-6.565A6.579,6.579,0,0,0,452.878,258.923Z" transform="translate(-442.216 -243.028)" fill="#d21625" fill-rule="evenodd"/>
    </g>
    <g id="Group_107" data-name="Group 107" transform="translate(569.032 618.44)">
      <path id="Path_311" data-name="Path 311" d="M471.828,372.129a11.514,11.514,0,1,0-11.517-11.517A11.537,11.537,0,0,0,471.828,372.129Z" transform="translate(-460.311 -349.102)" fill="#bc081e" fill-rule="evenodd"/>
      <path id="Path_312" data-name="Path 312" d="M468.779,363.519a6.566,6.566,0,1,0-6.561-6.567A6.581,6.581,0,0,0,468.779,363.519Z" transform="translate(-458.118 -347.624)" fill="#d21625" fill-rule="evenodd"/>
    </g>
    <g id="Group_108" data-name="Group 108" transform="translate(640.282 383.423)">
      <path id="Path_313" data-name="Path 313" d="M504.963,262.836a11.515,11.515,0,1,0-11.517-11.517A11.537,11.537,0,0,0,504.963,262.836Z" transform="translate(-493.446 -239.806)" fill="#bc081e" fill-rule="evenodd"/>
      <path id="Path_314" data-name="Path 314" d="M501.914,254.222a6.565,6.565,0,1,0-6.561-6.565A6.581,6.581,0,0,0,501.914,254.222Z" transform="translate(-491.252 -238.327)" fill="#d21625" fill-rule="evenodd"/>
    </g>
    <g id="Group_109" data-name="Group 109" transform="translate(610.804 472.601)">
      <path id="Path_315" data-name="Path 315" d="M512.98,294.627a24.069,24.069,0,1,1-18.348,0l0,0a5.372,5.372,0,0,0,2.8-4.425v-4.189h12.766V290.2a5.372,5.372,0,0,0,2.793,4.425Z" transform="translate(-479.737 -275.836)" fill="#ffca45" fill-rule="evenodd"/>
      <path id="Path_316" data-name="Path 316" d="M490.836,292.177a2.165,2.165,0,0,1,2.34,3.645q-.626.4-1.256.89c-.428.333-.821.664-1.178,1a2.164,2.164,0,1,1-2.948-3.17c.486-.456.976-.871,1.464-1.251s1.015-.75,1.578-1.112Zm-7.35,7.969a2.17,2.17,0,0,1,3.832,2.036,17.041,17.041,0,0,0,3.847,20.856,2.162,2.162,0,1,1-2.847,3.253,21.4,21.4,0,0,1-4.832-26.145Z" transform="translate(-478.3 -269.137)" fill="#fff" fill-rule="evenodd"/>
      <path id="Path_317" data-name="Path 317" d="M505.463,294.627l0,0a5.372,5.372,0,0,1-2.793-4.425v-4.189h-6.008a17.608,17.608,0,0,0,.361,10.506c2.475,7.175,8.4,11.7,8.378,19.843-.032,11.872-9.511,17.714-19.131,22.387a24.061,24.061,0,1,0,19.191-44.12Z" transform="translate(-472.22 -275.836)" fill="#ffb510" fill-rule="evenodd"/>
      <path id="Path_318" data-name="Path 318" d="M489.524,293.336v-7.416a3.334,3.334,0,0,1,.981-2.361l0,0a3.341,3.341,0,0,1,2.361-.981h2.548a3.334,3.334,0,0,1,2.361.981l0,0a3.334,3.334,0,0,1,.981,2.361v7.171c.234-.013.464-.013.7-.028.2-.011.4-.009.6-.015v-7.128a4.622,4.622,0,0,0-1.363-3.275l0,0a4.634,4.634,0,0,0-3.275-1.361h-2.548a4.633,4.633,0,0,0-3.275,1.361l0,0a4.627,4.627,0,0,0-1.363,3.275v7.444C488.659,293.355,489.091,293.342,489.524,293.336Z" transform="translate(-469.971 -281.279)" fill="#fff" fill-rule="evenodd"/>
      <path id="Rectangle_9" data-name="Rectangle 9" d="M1,0H18.569a1,1,0,0,1,1,1V4.688a1,1,0,0,1-1,1H1a1,1,0,0,1-1-1V1A1,1,0,0,1,1,0Z" transform="translate(14.385 7.589)" fill="#fff"/>
    </g>
    <g id="Group_110" data-name="Group 110" transform="translate(670.87 312.429)">
      <path id="Path_319" data-name="Path 319" d="M540.912,220.138a24.067,24.067,0,1,1-18.348,0l0,0a5.377,5.377,0,0,0,2.8-4.427v-4.187h12.766v4.187a5.377,5.377,0,0,0,2.793,4.427Z" transform="translate(-507.671 -201.347)" fill="#ffca45" fill-rule="evenodd"/>
      <path id="Path_320" data-name="Path 320" d="M518.769,217.688a2.165,2.165,0,0,1,2.34,3.645q-.622.4-1.256.89c-.428.333-.819.664-1.176,1a2.166,2.166,0,0,1-2.95-3.172q.732-.681,1.467-1.249t1.576-1.112Zm-7.347,7.969a2.168,2.168,0,0,1,3.83,2.034,17.037,17.037,0,0,0,3.849,20.858,2.162,2.162,0,0,1-2.849,3.253,21.384,21.384,0,0,1-4.829-26.145Z" transform="translate(-506.236 -194.648)" fill="#fff" fill-rule="evenodd"/>
      <path id="Path_321" data-name="Path 321" d="M533.4,220.138l0,0a5.377,5.377,0,0,1-2.793-4.427v-4.187H524.6a17.608,17.608,0,0,0,.361,10.506c2.477,7.175,8.4,11.7,8.38,19.841-.035,11.874-9.511,17.714-19.131,22.387A24.059,24.059,0,1,0,533.4,220.138Z" transform="translate(-500.154 -201.347)" fill="#ffb510" fill-rule="evenodd"/>
      <path id="Path_322" data-name="Path 322" d="M517.459,218.847V211.43a3.332,3.332,0,0,1,.978-2.361l0,0a3.333,3.333,0,0,1,2.361-.981h2.546a3.334,3.334,0,0,1,2.361.981l0,0a3.327,3.327,0,0,1,.983,2.361V218.6c.234-.013.462-.013.7-.028.2-.011.4-.009.6-.015V211.43a4.629,4.629,0,0,0-1.361-3.275l0,0a4.639,4.639,0,0,0-3.277-1.361H520.8a4.628,4.628,0,0,0-3.275,1.361l0,0a4.635,4.635,0,0,0-1.363,3.275v7.444C516.592,218.866,517.025,218.853,517.459,218.847Z" transform="translate(-497.906 -206.79)" fill="#fff" fill-rule="evenodd"/>
      <path id="Rectangle_10" data-name="Rectangle 10" d="M1,0H18.568a1,1,0,0,1,1,1V4.688a1,1,0,0,1-1,1H1a1,1,0,0,1-1-1V1A1,1,0,0,1,1,0Z" transform="translate(14.384 7.588)" fill="#fff"/>
    </g>
    <g id="Group_111" data-name="Group 111" transform="translate(498.301 419.431)">
      <path id="Path_323" data-name="Path 323" d="M452.76,266.727a18.349,18.349,0,1,1-13.988,0h0a4.1,4.1,0,0,0,2.131-3.376V260.16h9.732v3.191a4.1,4.1,0,0,0,2.129,3.376Z" transform="translate(-427.417 -252.402)" fill="#ffca45" fill-rule="evenodd"/>
      <path id="Path_324" data-name="Path 324" d="M435.88,264.861a1.65,1.65,0,0,1,1.783,2.778c-.318.2-.637.43-.959.68s-.624.505-.9.759a1.65,1.65,0,0,1-2.247-2.417c.37-.346.744-.662,1.116-.953s.774-.572,1.2-.847Zm-5.6,6.074a1.653,1.653,0,0,1,2.92,1.55,12.992,12.992,0,0,0,2.933,15.9,1.648,1.648,0,1,1-2.17,2.481,16.309,16.309,0,0,1-3.683-19.931Z" transform="translate(-426.322 -247.296)" fill="#fff" fill-rule="evenodd"/>
      <path id="Path_325" data-name="Path 325" d="M447.03,266.727h0a4.1,4.1,0,0,1-2.129-3.376V260.16h-4.58a13.428,13.428,0,0,0,.275,8.008c1.888,5.47,6.406,8.917,6.388,15.127-.026,9.051-7.251,13.5-14.585,17.065a18.342,18.342,0,1,0,14.631-33.633Z" transform="translate(-421.686 -252.402)" fill="#ffb510" fill-rule="evenodd"/>
      <path id="Path_326" data-name="Path 326" d="M434.878,265.745v-5.655a2.53,2.53,0,0,1,.748-1.8l0,0a2.535,2.535,0,0,1,1.8-.748h1.94a2.54,2.54,0,0,1,1.8.748v0a2.53,2.53,0,0,1,.748,1.8v5.468c.181-.009.355-.011.533-.021.153-.009.3-.006.456-.011v-5.436a3.532,3.532,0,0,0-1.039-2.5l0,0a3.529,3.529,0,0,0-2.5-1.039h-1.94a3.528,3.528,0,0,0-2.5,1.039l0,0a3.534,3.534,0,0,0-1.041,2.5v5.675C434.218,265.757,434.549,265.749,434.878,265.745Z" transform="translate(-419.972 -256.552)" fill="#fff" fill-rule="evenodd"/>
      <path id="Rectangle_11" data-name="Rectangle 11" d="M.765,0h13.39a.765.765,0,0,1,.765.765V3.573a.764.764,0,0,1-.764.764H.765A.765.765,0,0,1,0,3.573V.765A.765.765,0,0,1,.765,0Z" transform="translate(10.967 5.786)" fill="#fff"/>
    </g>
    <g id="Group_112" data-name="Group 112" transform="translate(756.156 518.697)">
      <path id="Path_327" data-name="Path 327" d="M572.675,312.892a18.347,18.347,0,1,1-13.988,0l0,0a4.094,4.094,0,0,0,2.131-3.374v-3.193h9.73v3.193a4.094,4.094,0,0,0,2.131,3.374Z" transform="translate(-547.334 -298.567)" fill="#ffca45" fill-rule="evenodd"/>
      <path id="Path_328" data-name="Path 328" d="M555.795,311.024a1.65,1.65,0,0,1,1.783,2.778c-.316.2-.636.43-.957.68s-.626.507-.9.761a1.651,1.651,0,1,1-2.249-2.417q.558-.519,1.118-.955c.37-.288.772-.572,1.2-.847Zm-5.6,6.075a1.654,1.654,0,0,1,2.92,1.552,12.987,12.987,0,0,0,2.933,15.9,1.648,1.648,0,1,1-2.172,2.479,16.3,16.3,0,0,1-3.681-19.931Z" transform="translate(-546.239 -293.46)" fill="#fff" fill-rule="evenodd"/>
      <path id="Path_329" data-name="Path 329" d="M566.945,312.892l0,0a4.094,4.094,0,0,1-2.131-3.374v-3.193h-4.578a13.419,13.419,0,0,0,.275,8.01c1.888,5.47,6.4,8.915,6.386,15.125-.026,9.053-7.251,13.5-14.583,17.067a18.342,18.342,0,1,0,14.629-33.633Z" transform="translate(-541.603 -298.567)" fill="#ffb510" fill-rule="evenodd"/>
      <path id="Path_330" data-name="Path 330" d="M554.8,311.906v-5.653a2.542,2.542,0,0,1,.746-1.8l0,0a2.548,2.548,0,0,1,1.8-.748h1.942a2.54,2.54,0,0,1,1.8.748l0,0a2.545,2.545,0,0,1,.748,1.8v5.468c.178-.011.353-.011.533-.021.153-.011.3-.009.454-.013v-5.434a3.522,3.522,0,0,0-1.039-2.5l0,0a3.524,3.524,0,0,0-2.5-1.039h-1.942a3.531,3.531,0,0,0-2.5,1.039l0,0a3.529,3.529,0,0,0-1.038,2.5v5.675Z" transform="translate(-539.889 -302.716)" fill="#fff" fill-rule="evenodd"/>
      <path id="Rectangle_12" data-name="Rectangle 12" d="M.765,0h13.39a.765.765,0,0,1,.765.765V3.573a.764.764,0,0,1-.764.764H.765A.765.765,0,0,1,0,3.573V.765A.765.765,0,0,1,.765,0Z" transform="translate(10.966 5.785)" fill="#fff"/>
    </g>
    <g id="Group_113" data-name="Group 113" transform="translate(570.718 239.347)">
      <path id="Path_331" data-name="Path 331" d="M486.436,182.978a18.347,18.347,0,1,1-13.988,0h0a4.1,4.1,0,0,0,2.131-3.376v-3.191h9.73V179.6a4.1,4.1,0,0,0,2.131,3.376Z" transform="translate(-461.095 -168.653)" fill="#ffca45" fill-rule="evenodd"/>
      <path id="Path_332" data-name="Path 332" d="M469.556,181.112a1.65,1.65,0,0,1,1.783,2.778c-.316.2-.636.43-.957.677s-.626.507-.9.761a1.651,1.651,0,1,1-2.249-2.417c.372-.346.744-.662,1.118-.953s.772-.572,1.2-.847Zm-5.6,6.075a1.653,1.653,0,0,1,2.92,1.55,12.984,12.984,0,0,0,2.933,15.9,1.649,1.649,0,0,1-2.172,2.481,16.312,16.312,0,0,1-3.681-19.931Z" transform="translate(-460 -163.547)" fill="#fff" fill-rule="evenodd"/>
      <path id="Path_333" data-name="Path 333" d="M480.705,182.978h0a4.1,4.1,0,0,1-2.131-3.376v-3.191H474a13.411,13.411,0,0,0,.275,8.008c1.888,5.47,6.4,8.917,6.386,15.127-.026,9.051-7.251,13.5-14.583,17.065a18.342,18.342,0,1,0,14.628-33.633Z" transform="translate(-455.364 -168.653)" fill="#ffb510" fill-rule="evenodd"/>
      <path id="Path_334" data-name="Path 334" d="M468.556,182V176.34a2.537,2.537,0,0,1,.746-1.8l0,0a2.546,2.546,0,0,1,1.8-.746h1.942a2.538,2.538,0,0,1,1.8.746l0,0a2.539,2.539,0,0,1,.748,1.8v5.468c.179-.011.353-.011.533-.021.153-.009.3-.006.454-.011V176.34a3.523,3.523,0,0,0-1.039-2.5l0,0a3.524,3.524,0,0,0-2.5-1.039H471.1a3.532,3.532,0,0,0-2.5,1.039l0,0a3.532,3.532,0,0,0-1.039,2.5v5.675C467.9,182.008,468.225,182,468.556,182Z" transform="translate(-453.65 -172.803)" fill="#fff" fill-rule="evenodd"/>
      <path id="Rectangle_13" data-name="Rectangle 13" d="M.765,0h13.39a.765.765,0,0,1,.765.765V3.573a.764.764,0,0,1-.764.764H.764A.764.764,0,0,1,0,3.573V.765A.765.765,0,0,1,.765,0Z" transform="translate(10.966 5.786)" fill="#fff"/>
    </g>
    <g id="Group_114" data-name="Group 114" transform="translate(681.314 587.343)">
      <path id="Path_335" data-name="Path 335" d="M537.869,344.816a18.347,18.347,0,1,1-13.988,0l0,0a4.094,4.094,0,0,0,2.131-3.374v-3.193h9.73v3.193a4.094,4.094,0,0,0,2.131,3.374Z" transform="translate(-512.528 -330.491)" fill="#ffca45" fill-rule="evenodd"/>
      <path id="Path_336" data-name="Path 336" d="M520.989,342.948a1.65,1.65,0,1,1,1.783,2.778c-.316.2-.636.43-.957.679s-.626.508-.9.761a1.651,1.651,0,1,1-2.249-2.417q.558-.519,1.118-.955t1.2-.847Zm-5.6,6.075a1.654,1.654,0,0,1,2.92,1.553,12.987,12.987,0,0,0,2.933,15.9,1.648,1.648,0,1,1-2.172,2.479,16.311,16.311,0,0,1-3.681-19.931Z" transform="translate(-511.433 -325.384)" fill="#fff" fill-rule="evenodd"/>
      <path id="Path_337" data-name="Path 337" d="M532.138,344.816l0,0a4.094,4.094,0,0,1-2.131-3.374v-3.193h-4.578a13.417,13.417,0,0,0,.275,8.01c1.888,5.47,6.4,8.915,6.386,15.125-.026,9.053-7.251,13.5-14.583,17.067a18.342,18.342,0,1,0,14.628-33.633Z" transform="translate(-506.797 -330.491)" fill="#ffb510" fill-rule="evenodd"/>
      <path id="Path_338" data-name="Path 338" d="M519.989,343.83v-5.653a2.542,2.542,0,0,1,.746-1.8l0,0a2.549,2.549,0,0,1,1.8-.748h1.942a2.541,2.541,0,0,1,1.8.748l0,0a2.545,2.545,0,0,1,.748,1.8v5.466c.179-.009.353-.009.533-.019.153-.011.3-.009.454-.013v-5.434a3.524,3.524,0,0,0-1.038-2.5l0,0a3.524,3.524,0,0,0-2.5-1.038h-1.942a3.532,3.532,0,0,0-2.5,1.038l0,0a3.529,3.529,0,0,0-1.039,2.5v5.675Z" transform="translate(-505.083 -334.64)" fill="#fff" fill-rule="evenodd"/>
      <path id="Rectangle_14" data-name="Rectangle 14" d="M.765,0h13.39a.765.765,0,0,1,.765.765V3.574a.764.764,0,0,1-.764.764H.765A.765.765,0,0,1,0,3.573V.765A.765.765,0,0,1,.765,0Z" transform="translate(10.965 5.785)" fill="#fff"/>
    </g>
    <g id="Group_123" data-name="Group 123" transform="translate(795.157 563.079)">
      <g id="Group_117" data-name="Group 117" transform="translate(113.054)">
        <g id="Group_115" data-name="Group 115" transform="translate(0.464)">
          <path id="Path_339" data-name="Path 339" d="M663.214,327.424c-7.322,1.6-10.371-2.367-14.2-4.068-3.305,7.8-12.534,10.958-17.3,5.692-1.206,7.913-5,13.039-10.171,12.293,2.094,7.171,1.969,14.624-3.277,18.568Z" transform="translate(-618.264 -323.356)" fill="#267a26"/>
        </g>
        <g id="Group_116" data-name="Group 116" transform="translate(0 3.89)">
          <path id="Path_340" data-name="Path 340" d="M663.449,325.165c-3.851,6.432-1.34,11.1-.95,15.273-8.444.643-14.383,8.384-10.912,14.579-7.883-1.38-13.956.583-14.9,5.72-6.128-4.273-13.231-6.53-18.643-2.817Z" transform="translate(-618.048 -325.165)" fill="#0d5e0d"/>
        </g>
      </g>
      <g id="Group_120" data-name="Group 120" transform="translate(117.776 24.593)">
        <g id="Group_118" data-name="Group 118" transform="translate(0.361)">
          <path id="Path_341" data-name="Path 341" d="M669.146,351.929c-5.8-3.169-5.541-7.575-7.111-10.923-6.709,3.283-14.686.052-14.815-6.212-5.38,4.574-10.876,5.793-13.886,2.307-2.752,5.989-7.145,10.88-12.921,10.474Z" transform="translate(-620.412 -334.793)" fill="#398d3b"/>
        </g>
        <g id="Group_119" data-name="Group 119" transform="translate(0 12.577)">
          <path id="Path_342" data-name="Path 342" d="M669.434,345.074c-6.285,2.058-7.313,6.621-9.468,9.627-6-4.453-14.431-2.731-15.7,3.4-4.453-5.481-9.633-7.683-13.231-4.806-1.613-6.391-5.038-12-10.79-12.657Z" transform="translate(-620.244 -340.642)" fill="#1b751b"/>
        </g>
      </g>
      <g id="Group_122" data-name="Group 122" transform="translate(0 1.49)">
        <path id="Path_343" data-name="Path 343" d="M591.785,364.691a1.925,1.925,0,0,0,1.924-1.925V351.48a23.583,23.583,0,0,1,47.166,0v11.287a1.924,1.924,0,1,0,3.849,0V351.48a27.432,27.432,0,0,0-54.865,0v11.287A1.925,1.925,0,0,0,591.785,364.691Z" transform="translate(-537.418 -324.049)" fill="#398d3b"/>
        <path id="Path_344" data-name="Path 344" d="M578.263,465.236h119.62l-5.117-126.656h-114.5Z" transform="translate(-550.757 -307.334)" fill="#9e111c"/>
        <path id="Path_345" data-name="Path 345" d="M565.472,465.236H681.893l6.4-126.656h-114.5Z" transform="translate(-565.472 -307.334)" fill="#d21625"/>
        <path id="Path_346" data-name="Path 346" d="M619.614,403.984h30.7L634.966,391.83Z" transform="translate(-503.193 -246.081)" fill="#b91625"/>
        <g id="Group_121" data-name="Group 121" transform="translate(0 31.247)">
          <path id="Path_347" data-name="Path 347" d="M663.011,361.342l-.611,12.1-65.608,65.608H585.3Z" transform="translate(-542.665 -312.399)" fill="#b91625"/>
          <path id="Path_348" data-name="Path 348" d="M650.045,372.14l-.611,12.1-42.39,42.39H595.551Z" transform="translate(-530.872 -299.978)" fill="#b91625"/>
          <path id="Path_349" data-name="Path 349" d="M637.079,382.938l-.611,12.1-19.17,19.17H605.8Z" transform="translate(-519.078 -287.557)" fill="#b91625"/>
          <path id="Path_350" data-name="Path 350" d="M616.056,401.793l8.057-8.057-.407,8.057Z" transform="translate(-507.285 -275.137)" fill="#b91625"/>
          <path id="Path_351" data-name="Path 351" d="M675.978,350.543l-.611,12.105-88.828,88.828H575.045Z" transform="translate(-554.459 -324.82)" fill="#b91625"/>
          <path id="Path_352" data-name="Path 352" d="M687.552,351.85,575.505,463.9H565.472l.1-1.562L688.163,339.745Z" transform="translate(-565.472 -337.241)" fill="#b91625"/>
          <path id="Path_353" data-name="Path 353" d="M576.669,338.581h11.493L568.746,358l.808-12.3Z" transform="translate(-561.705 -338.581)" fill="#b91625"/>
          <path id="Path_354" data-name="Path 354" d="M599.545,338.581h11.493l-43.013,43.013.808-12.3Z" transform="translate(-562.534 -338.581)" fill="#b91625"/>
          <path id="Path_355" data-name="Path 355" d="M645.3,338.581h11.493l-90.2,90.2.808-12.3Z" transform="translate(-564.191 -338.581)" fill="#b91625"/>
          <path id="Path_356" data-name="Path 356" d="M622.419,338.581h11.493l-66.607,66.608.808-12.3Z" transform="translate(-563.362 -338.581)" fill="#b91625"/>
          <path id="Path_357" data-name="Path 357" d="M668.169,338.581h11.493l-113.8,113.8.808-12.3Z" transform="translate(-565.02 -338.581)" fill="#b91625"/>
        </g>
        <path id="Path_358" data-name="Path 358" d="M606.942,343.942a3.9,3.9,0,1,0,3.9-3.9A3.9,3.9,0,0,0,606.942,343.942Z" transform="translate(-517.769 -305.658)" fill="#840010"/>
        <path id="Path_359" data-name="Path 359" d="M583.25,343.942a3.9,3.9,0,1,0,3.9-3.9A3.9,3.9,0,0,0,583.25,343.942Z" transform="translate(-545.021 -305.658)" fill="#840010"/>
        <path id="Path_360" data-name="Path 360" d="M586.116,364.691a1.925,1.925,0,0,0,1.925-1.925V351.48a23.582,23.582,0,0,1,47.164,0v11.287a1.924,1.924,0,1,0,3.849,0V351.48a27.431,27.431,0,1,0-54.862,0v11.287A1.925,1.925,0,0,0,586.116,364.691Z" transform="translate(-543.938 -324.049)" fill="#3ba83b"/>
      </g>
    </g>
    <g id="Group_126" data-name="Group 126" transform="translate(733.305 592.523)">
      <g id="Group_125" data-name="Group 125">
        <path id="Path_361" data-name="Path 361" d="M560.331,373.539a1.729,1.729,0,0,0,1.729-1.729V361.678a21.173,21.173,0,1,1,42.346,0V371.81a1.729,1.729,0,0,0,3.458,0V361.678a24.629,24.629,0,0,0-49.259,0V371.81A1.729,1.729,0,0,0,560.331,373.539Z" transform="translate(-511.52 -337.049)" fill="#e5bdc1"/>
        <path id="Path_362" data-name="Path 362" d="M548.192,463.811h107.4L651,350.1h-102.8Z" transform="translate(-523.496 -322.041)" fill="#ea9c00"/>
        <path id="Path_363" data-name="Path 363" d="M536.707,463.811H641.234L646.977,350.1h-102.8Z" transform="translate(-536.707 -322.041)" fill="#ffca45"/>
        <path id="Path_364" data-name="Path 364" d="M585.318,408.817h27.568L599.1,397.905Z" transform="translate(-480.791 -267.047)" fill="#ffb510"/>
        <g id="Group_124" data-name="Group 124" transform="translate(0 28.054)">
          <path id="Path_365" data-name="Path 365" d="M624.281,370.532l-.549,10.868L564.827,440.3H554.508Z" transform="translate(-516.231 -326.589)" fill="#ffb510"/>
          <path id="Path_366" data-name="Path 366" d="M612.64,380.226l-.549,10.868-38.059,38.059H563.713Z" transform="translate(-505.643 -315.438)" fill="#ffb510"/>
          <path id="Path_367" data-name="Path 367" d="M601,389.921l-.549,10.868L583.238,418H572.918Z" transform="translate(-495.054 -304.286)" fill="#ffb510"/>
          <path id="Path_368" data-name="Path 368" d="M582.123,406.85l7.234-7.234-.365,7.234Z" transform="translate(-484.466 -293.134)" fill="#ffb510"/>
          <path id="Path_369" data-name="Path 369" d="M635.923,360.836l-.549,10.868-79.753,79.753H545.3Z" transform="translate(-526.82 -337.742)" fill="#ffb510"/>
          <path id="Path_370" data-name="Path 370" d="M646.314,362.01l-100.6,100.6h-9.009l.092-1.4L646.863,351.142Z" transform="translate(-536.707 -348.893)" fill="#ffb510"/>
          <path id="Path_371" data-name="Path 371" d="M546.761,350.1H557.08l-17.433,17.433.725-11.044Z" transform="translate(-533.325 -350.096)" fill="#ffb510"/>
          <path id="Path_372" data-name="Path 372" d="M567.3,350.1h10.319L539,388.714l.725-11.044Z" transform="translate(-534.07 -350.096)" fill="#ffb510"/>
          <path id="Path_373" data-name="Path 373" d="M608.375,350.1h10.319l-80.988,80.987.725-11.044Z" transform="translate(-535.558 -350.096)" fill="#ffb510"/>
          <path id="Path_374" data-name="Path 374" d="M587.836,350.1h10.319l-59.8,59.8.725-11.044Z" transform="translate(-534.814 -350.096)" fill="#ffb510"/>
          <path id="Path_375" data-name="Path 375" d="M628.912,350.1h10.319L537.06,452.268l.725-11.044Z" transform="translate(-536.302 -350.096)" fill="#ffb510"/>
        </g>
        <path id="Path_376" data-name="Path 376" d="M573.94,354.909a3.506,3.506,0,1,0,3.507-3.505A3.506,3.506,0,0,0,573.94,354.909Z" transform="translate(-493.879 -320.537)" fill="#840010"/>
        <path id="Path_377" data-name="Path 377" d="M552.669,354.909a3.506,3.506,0,1,0,3.507-3.505A3.506,3.506,0,0,0,552.669,354.909Z" transform="translate(-518.346 -320.537)" fill="#840010"/>
        <path id="Path_378" data-name="Path 378" d="M555.242,373.539a1.729,1.729,0,0,0,1.729-1.729V361.678a21.173,21.173,0,1,1,42.345,0V371.81a1.729,1.729,0,1,0,3.458,0V361.678a24.629,24.629,0,1,0-49.259,0V371.81A1.728,1.728,0,0,0,555.242,373.539Z" transform="translate(-517.373 -337.049)" fill="#fff"/>
      </g>
    </g>
    <g id="Group_144" data-name="Group 144" transform="translate(607.537 559.505)">
      <g id="Group_143" data-name="Group 143">
        <g id="Group_127" data-name="Group 127">
          <path id="Path_379" data-name="Path 379" d="M508.959,338.316c-3.159-3.847-8.36-7.928-13.611-6.627-7.135,1.77-8.739,8.795-6.008,14.25,4.333,8.663,12.493,15.564,19.471,22.028,11.76,10.9,7.47,6.451,19.3,17.275,4.619,4.23-2.077,11.248-6.689,7.029-13.347-12.214-10.726-9.01-23.806-21.516-7.44-7.115-16.925-15.878-19.06-26.453-2.008-9.947,5.307-19.759,14.957-22.15,8.16-2.021,17.05,2.935,22.141,9.132,3.918,4.772-2.724,11.859-6.692,7.031Z" transform="translate(-478.218 -321.694)" fill="#b91625"/>
        </g>
        <g id="Group_142" data-name="Group 142">
          <g id="Group_141" data-name="Group 141" clip-path="url(#clip-path)">
            <g id="Group_140" data-name="Group 140" transform="translate(-16.421 -15.768)">
              <g id="Group_130" data-name="Group 130" transform="translate(31.662 58.585)">
                <g id="Group_128" data-name="Group 128" transform="translate(11.787 8.729)">
                  <path id="Path_380" data-name="Path 380" d="M527.073,350.474c-9.158,8.646-20.916,16.263-33.381,18.705-3.322.649-4.079-4.533-.772-5.182,11.575-2.266,22.43-9.633,30.921-17.65,2.453-2.316,5.67,1.823,3.232,4.126Z" transform="translate(-490.787 -345.666)" fill="#fff"/>
                </g>
                <g id="Group_129" data-name="Group 129">
                  <path id="Path_381" data-name="Path 381" d="M521.59,346.414c-9.158,8.646-20.914,16.263-33.379,18.707-3.322.649-4.081-4.535-.772-5.182,11.575-2.269,22.429-9.635,30.919-17.652,2.456-2.314,5.67,1.823,3.232,4.126Z" transform="translate(-485.306 -341.606)" fill="#fff"/>
                </g>
              </g>
              <g id="Group_133" data-name="Group 133" transform="translate(8.671 42.685)">
                <g id="Group_131" data-name="Group 131" transform="translate(11.205 7.172)">
                  <path id="Path_382" data-name="Path 382" d="M516.109,342.355c-9.158,8.644-20.916,16.263-33.381,18.7-3.32.652-4.079-4.531-.77-5.18,11.575-2.269,22.43-9.633,30.919-17.649,2.456-2.316,5.67,1.821,3.232,4.126Z" transform="translate(-479.825 -337.547)" fill="#fff"/>
                </g>
                <g id="Group_132" data-name="Group 132">
                  <path id="Path_383" data-name="Path 383" d="M512.438,339.18C502.4,346.8,489.9,353.109,477.246,354.2c-3.372.29-3.572-4.946-.213-5.234,11.751-1.015,23.333-7.178,32.633-14.237,2.69-2.039,5.442,2.419,2.772,4.447Z" transform="translate(-474.614 -334.212)" fill="#fff"/>
                </g>
              </g>
              <g id="Group_139" data-name="Group 139">
                <g id="Group_134" data-name="Group 134" transform="translate(2.112 35.44)">
                  <path id="Path_384" data-name="Path 384" d="M510.969,335.994c-11.145,5.862-24.517,10.035-37.181,9.035-3.376-.267-2.709-5.464.649-5.2,11.76.931,24.2-3.243,34.529-8.679,2.987-1.572,4.971,3.279,2,4.842Z" transform="translate(-471.563 -330.842)" fill="#fff"/>
                </g>
                <g id="Group_135" data-name="Group 135" transform="translate(0 21.108)">
                  <path id="Path_385" data-name="Path 385" d="M506.613,343.695c-12.435-1.993-25.638-6.672-35.172-15.067-2.539-2.238,1.112-6,3.638-3.769,8.853,7.8,21.309,11.915,32.837,13.764,3.333.531,2.008,5.6-1.3,5.073Z" transform="translate(-470.581 -324.177)" fill="#fff"/>
                </g>
                <g id="Group_136" data-name="Group 136" transform="translate(18.889 2.467)">
                  <path id="Path_386" data-name="Path 386" d="M494.7,353.224c-7.7-9.964-14.119-22.417-15.321-35.06-.318-3.372,4.913-3.615,5.232-.258,1.116,11.745,7.375,23.273,14.514,32.51,2.064,2.671-2.374,5.464-4.425,2.808Z" transform="translate(-479.366 -315.508)" fill="#fff"/>
                </g>
                <g id="Group_137" data-name="Group 137" transform="translate(36.289)">
                  <path id="Path_387" data-name="Path 387" d="M492.019,354.35c-4.066-11.921-6.118-25.778-3.167-38.133.787-3.292,5.816-1.828,5.034,1.449-2.74,11.474-.542,24.406,3.228,35.456,1.09,3.193-4.01,4.4-5.094,1.228Z" transform="translate(-487.458 -314.361)" fill="#fff"/>
                </g>
                <g id="Group_138" data-name="Group 138" transform="translate(49.157 4.206)">
                  <path id="Path_388" data-name="Path 388" d="M498,356.306c-4.066-11.919-6.118-25.778-3.167-38.133.785-3.29,5.817-1.83,5.034,1.449-2.739,11.474-.542,24.4,3.228,35.456,1.09,3.193-4.01,4.4-5.094,1.228Z" transform="translate(-493.442 -316.317)" fill="#fff"/>
                </g>
              </g>
            </g>
          </g>
        </g>
      </g>
      <path id="Path_390" data-name="Path 390" d="M493.509,322.152c8.16-2.021,17.05,2.935,22.141,9.132a5.108,5.108,0,0,1,.692,5.494c-10.263-12.682-23.21-14.145-30.119-5.316-7.287,9.311-1.494,22.034,6.247,29.736,5.483,5.455,24.36,22.21,34.813,31.515a4.573,4.573,0,0,1-5.866-.443c-13.347-12.214-10.726-9.01-23.806-21.516-7.44-7.115-16.925-15.878-19.06-26.453C476.543,334.355,483.859,324.543,493.509,322.152Z" transform="translate(-478.218 -321.694)" fill="#101412" opacity="0.1"/>
    </g>
    <g id="Group_162" data-name="Group 162" transform="translate(615.163 198.297)">
      <g id="Group_161" data-name="Group 161">
        <g id="Group_145" data-name="Group 145">
          <path id="Path_391" data-name="Path 391" d="M512.753,172.241c-2.483-4.313-6.945-9.195-12.338-8.773-7.33.572-10.065,7.238-8.268,13.069,2.851,9.257,9.767,17.4,15.588,24.926,9.81,12.682,6.307,7.59,16.2,20.21,3.86,4.931-3.9,10.756-7.754,5.836-11.16-14.241-9.1-10.65-19.948-25.135-6.169-8.24-14.086-18.445-14.454-29.224-.346-10.143,8.481-18.619,18.393-19.391,8.382-.654,16.336,5.694,20.34,12.646,3.081,5.35-4.636,11.25-7.754,5.836Z" transform="translate(-481.765 -153.712)" fill="#b91625"/>
        </g>
        <g id="Group_160" data-name="Group 160">
          <g id="Group_159" data-name="Group 159" clip-path="url(#clip-path-2)">
            <g id="Group_158" data-name="Group 158" transform="translate(-15.923 -15.258)">
              <g id="Group_148" data-name="Group 148" transform="translate(23.832 62.739)">
                <g id="Group_146" data-name="Group 146" transform="translate(10.192 10.549)">
                  <path id="Path_392" data-name="Path 392" d="M528.67,185.743c-10.455,7.023-23.3,12.6-36,12.966-3.382.095-3.279-5.143.09-5.238,11.79-.335,23.709-5.817,33.4-12.33,2.8-1.881,5.294,2.731,2.509,4.6Z" transform="translate(-490.182 -180.699)" fill="#fff"/>
                </g>
                <g id="Group_147" data-name="Group 147">
                  <path id="Path_393" data-name="Path 393" d="M523.93,180.837c-10.455,7.023-23.3,12.6-36,12.968-3.385.095-3.281-5.143.088-5.238,11.792-.335,23.709-5.819,33.4-12.332,2.8-1.879,5.294,2.731,2.509,4.6Z" transform="translate(-485.442 -175.794)" fill="#fff"/>
                </g>
              </g>
              <g id="Group_151" data-name="Group 151" transform="translate(4.339 43.582)">
                <g id="Group_149" data-name="Group 149" transform="translate(9.302 8.611)">
                  <path id="Path_394" data-name="Path 394" d="M519.191,175.931c-10.457,7.023-23.3,12.607-36,12.966-3.38.1-3.277-5.141.092-5.236,11.79-.335,23.707-5.819,33.4-12.33,2.8-1.882,5.292,2.729,2.509,4.6Z" transform="translate(-480.703 -170.889)" fill="#fff"/>
                </g>
                <g id="Group_150" data-name="Group 150">
                  <path id="Path_395" data-name="Path 395" d="M515.783,172.036c-11.147,5.864-24.52,10.038-37.18,9.035-3.376-.267-2.709-5.464.649-5.2,11.76.931,24.195-3.245,34.527-8.681,2.989-1.57,4.971,3.279,2,4.842Z" transform="translate(-476.378 -166.884)" fill="#fff"/>
                </g>
              </g>
              <g id="Group_157" data-name="Group 157">
                <g id="Group_152" data-name="Group 152" transform="translate(0 35.699)">
                  <path id="Path_396" data-name="Path 396" d="M514.356,168.466c-11.958,3.952-25.833,5.872-38.161,2.806-3.286-.819-1.774-5.834,1.494-5.023,11.448,2.851,24.4.776,35.486-2.888,3.2-1.058,4.365,4.053,1.18,5.1Z" transform="translate(-474.359 -163.218)" fill="#fff"/>
                </g>
                <g id="Group_153" data-name="Group 153" transform="translate(1.773 15.331)">
                  <path id="Path_397" data-name="Path 397" d="M507.989,178.5c-11.938-4.01-24.193-10.794-32.216-20.643-2.14-2.625,2.079-5.735,4.206-3.12,7.451,9.145,19.062,15.254,30.128,18.972,3.2,1.073,1.062,5.857-2.118,4.791Z" transform="translate(-475.184 -153.746)" fill="#fff"/>
                </g>
                <g id="Group_154" data-name="Group 154" transform="translate(23.399)">
                  <path id="Path_398" data-name="Path 398" d="M494.711,185.964c-5.956-11.1-10.246-24.432-9.352-37.1.239-3.376,5.44-2.755,5.2.606-.828,11.769,3.451,24.167,8.975,34.454,1.6,2.974-3.238,5-4.825,2.043Z" transform="translate(-485.241 -146.616)" fill="#fff"/>
                </g>
                <g id="Group_155" data-name="Group 155" transform="translate(38.226 0.62)">
                  <path id="Path_399" data-name="Path 399" d="M493.348,186.529c-2.054-12.424-1.8-26.431,3.139-38.133,1.318-3.118,6.04-.849,4.728,2.256-4.586,10.868-4.546,23.984-2.64,35.505.548,3.329-4.681,3.683-5.227.372Z" transform="translate(-492.137 -146.905)" fill="#fff"/>
                </g>
                <g id="Group_156" data-name="Group 156" transform="translate(50.228 6.882)">
                  <path id="Path_400" data-name="Path 400" d="M498.929,189.442c-2.051-12.424-1.8-26.433,3.139-38.135,1.316-3.116,6.04-.849,4.729,2.258-4.589,10.865-4.546,23.982-2.643,35.5.55,3.331-4.679,3.683-5.225.374Z" transform="translate(-497.718 -149.817)" fill="#fff"/>
                </g>
              </g>
            </g>
          </g>
        </g>
      </g>
      <path id="Path_402" data-name="Path 402" d="M500.168,153.759c8.382-.654,16.336,5.694,20.34,12.646a5.107,5.107,0,0,1-.219,5.533c-8.04-14.2-20.57-17.766-28.835-10.192-8.717,7.988-5.1,21.49,1.275,30.358,4.511,6.283,20.38,25.911,29.162,36.806a4.573,4.573,0,0,1-5.713-1.4c-11.16-14.241-9.1-10.65-19.948-25.135-6.169-8.24-14.086-18.445-14.454-29.224C481.428,163.007,490.255,154.531,500.168,153.759Z" transform="translate(-481.765 -153.712)" fill="#101412" opacity="0.1"/>
    </g>
    <g id="Group_180" data-name="Group 180" transform="translate(575.153 391.094)">
      <g id="Group_179" data-name="Group 179">
        <g id="Group_163" data-name="Group 163">
          <path id="Path_403" data-name="Path 403" d="M472.158,263.94c1.658-4.692,5.159-10.3,10.536-10.87,7.313-.77,11.214,5.288,10.506,11.349-1.12,9.62-6.44,18.89-10.794,27.345-7.341,14.252-4.823,8.61-12.252,22.817-2.9,5.552,5.789,9.868,8.685,4.331,8.384-16.033,7.012-12.13,15.046-28.343,4.569-9.227,10.5-20.7,8.9-31.366-1.5-10.035-11.723-16.766-21.612-15.723-8.36.879-15.026,8.569-17.7,16.131-2.056,5.821,6.6,10.22,8.687,4.328Z" transform="translate(-463.158 -243.374)" fill="#b91625"/>
        </g>
        <g id="Group_178" data-name="Group 178">
          <g id="Group_177" data-name="Group 177" clip-path="url(#clip-path-3)">
            <g id="Group_176" data-name="Group 176" transform="translate(-9.727 -16.517)">
              <g id="Group_166" data-name="Group 166" transform="translate(0 68.107)">
                <g id="Group_164" data-name="Group 164" transform="translate(0 12.225)">
                  <path id="Path_404" data-name="Path 404" d="M460.286,278.259c11.558,5.006,25.206,8.158,37.757,6.208,3.346-.522,2.29-5.655-1.039-5.137-11.657,1.815-24.371-1.408-35.086-6.051-3.1-1.342-4.709,3.647-1.632,4.98Z" transform="translate(-458.634 -273.051)" fill="#fff"/>
                </g>
                <g id="Group_165" data-name="Group 165" transform="translate(8.104)">
                  <path id="Path_405" data-name="Path 405" d="M464.055,272.574c11.558,5.006,25.206,8.158,37.757,6.208,3.346-.522,2.29-5.655-1.039-5.135-11.657,1.813-24.374-1.413-35.086-6.055-3.1-1.338-4.709,3.647-1.632,4.982Z" transform="translate(-462.403 -267.366)" fill="#fff"/>
                </g>
              </g>
              <g id="Group_169" data-name="Group 169" transform="translate(16.209 45.951)">
                <g id="Group_167" data-name="Group 167" transform="translate(0 9.933)">
                  <path id="Path_406" data-name="Path 406" d="M467.824,266.888c11.558,5,25.208,8.158,37.759,6.206,3.342-.52,2.288-5.651-1.043-5.133-11.655,1.813-24.369-1.413-35.084-6.053-3.1-1.342-4.709,3.647-1.632,4.98Z" transform="translate(-466.172 -261.681)" fill="#fff"/>
                </g>
                <g id="Group_168" data-name="Group 168" transform="translate(6.419)">
                  <path id="Path_407" data-name="Path 407" d="M471.088,262.317c12.027,3.739,25.935,5.412,38.2,2.127,3.271-.877,1.671-5.868-1.585-5-11.394,3.053-24.382,1.208-35.529-2.258-3.225-1-4.292,4.129-1.09,5.126Z" transform="translate(-469.157 -257.062)" fill="#fff"/>
                </g>
              </g>
              <g id="Group_175" data-name="Group 175" transform="translate(1.869)">
                <g id="Group_170" data-name="Group 170" transform="translate(22.573 33.766)">
                  <path id="Path_408" data-name="Path 408" d="M472.388,260.5c12.476,1.71,26.47,1.075,38.034-4.18,3.081-1.4.684-6.06-2.383-4.666-10.738,4.883-23.853,5.2-35.422,3.61-3.342-.458-3.554,4.778-.23,5.236Z" transform="translate(-470.001 -251.395)" fill="#fff"/>
                </g>
                <g id="Group_171" data-name="Group 171" transform="translate(25.957 11.197)">
                  <path id="Path_409" data-name="Path 409" d="M475.747,270.734c11.012-6.111,21.828-15.011,27.928-26.154,1.626-2.97-3.088-5.26-4.7-2.3-5.664,10.347-15.97,18.464-26.178,24.135-2.95,1.634.022,5.952,2.954,4.322Z" transform="translate(-471.575 -240.9)" fill="#fff"/>
                </g>
                <g id="Group_172" data-name="Group 172" transform="translate(26.425)">
                  <path id="Path_410" data-name="Path 410" d="M477.045,275.691c3.84-11.992,5.634-25.887,2.451-38.185-.849-3.277-5.851-1.72-5.006,1.542,2.954,11.422,1,24.393-2.563,35.512-1.028,3.212,4.094,4.326,5.118,1.131Z" transform="translate(-471.792 -235.692)" fill="#fff"/>
                </g>
                <g id="Group_173" data-name="Group 173" transform="translate(10.662 4.029)">
                  <path id="Path_411" data-name="Path 411" d="M479.181,275.613c-.241-12.592-3.036-26.319-10.02-36.929-1.862-2.826-6.094.264-4.241,3.077,6.487,9.853,8.831,22.761,9.053,34.435.064,3.374,5.272,2.772,5.208-.583Z" transform="translate(-464.461 -237.566)" fill="#fff"/>
                </g>
                <g id="Group_174" data-name="Group 174" transform="translate(0 12.369)">
                  <path id="Path_412" data-name="Path 412" d="M474.222,279.491c-.241-12.59-3.036-26.317-10.02-36.927-1.86-2.828-6.094.262-4.238,3.077,6.487,9.853,8.829,22.759,9.053,34.432.064,3.374,5.27,2.772,5.206-.583Z" transform="translate(-459.503 -241.444)" fill="#fff"/>
                </g>
              </g>
            </g>
          </g>
        </g>
      </g>
      <path id="Path_414" data-name="Path 414" d="M481.171,243.48c-8.36.879-15.026,8.569-17.7,16.131a5.112,5.112,0,0,0,1.221,5.4c5.326-15.422,17-21.208,26.5-15.265,10.022,6.268,8.917,20.2,4.264,30.085-3.294,7-15.332,29.184-21.984,41.494a4.574,4.574,0,0,0,5.363-2.415c8.384-16.033,7.012-12.13,15.045-28.343,4.569-9.227,10.5-20.7,8.9-31.366C501.283,249.167,491.06,242.437,481.171,243.48Z" transform="translate(-463.157 -243.374)" fill="#101412" opacity="0.1"/>
    </g>
    <g id="Group_198" data-name="Group 198" transform="translate(478.078 596.333)">
      <g id="Group_197" data-name="Group 197">
        <g id="Group_181" data-name="Group 181">
          <path id="Path_415" data-name="Path 415" d="M434.8,356.337c2.853-4.079,7.728-8.547,13.061-7.655,7.253,1.215,9.39,8.1,7.09,13.747-3.653,8.969-11.259,16.478-17.718,23.46-10.885,11.771-6.95,7.008-17.91,18.71-4.279,4.571,2.939,11.057,7.212,6.494,12.368-13.2,10-9.81,22.079-23.283,6.87-7.668,15.652-17.136,16.966-27.842,1.236-10.074-6.812-19.292-16.62-20.933-8.292-1.389-16.77,4.236-21.37,10.809-3.539,5.06,3.628,11.614,7.21,6.494Z" transform="translate(-418.012 -338.821)" fill="#b91625"/>
        </g>
        <g id="Group_196" data-name="Group 196" transform="translate(0.027)">
          <g id="Group_195" data-name="Group 195" clip-path="url(#clip-path-4)">
            <g id="Group_194" data-name="Group 194" transform="translate(-13.679 -15.339)">
              <g id="Group_184" data-name="Group 184" transform="translate(0 60.439)">
                <g id="Group_182" data-name="Group 182" transform="translate(0 9.611)">
                  <path id="Path_416" data-name="Path 416" d="M412.689,369.193c9.8,7.915,22.1,14.6,34.721,16.08,3.363.391,3.718-4.836.372-5.225-11.717-1.372-23.107-7.879-32.19-15.218-2.623-2.12-5.513,2.256-2.9,4.363Z" transform="translate(-411.663 -364.265)" fill="#fff"/>
                </g>
                <g id="Group_183" data-name="Group 183" transform="translate(11.08)">
                  <path id="Path_417" data-name="Path 417" d="M417.842,364.723c9.795,7.915,22.1,14.6,34.719,16.082,3.363.389,3.72-4.836.372-5.227-11.717-1.37-23.1-7.879-32.187-15.218-2.626-2.118-5.513,2.253-2.9,4.363Z" transform="translate(-416.816 -359.795)" fill="#fff"/>
                </g>
              </g>
              <g id="Group_187" data-name="Group 187" transform="translate(22.159 42.958)">
                <g id="Group_185" data-name="Group 185" transform="translate(0 7.87)">
                  <path id="Path_418" data-name="Path 418" d="M422.994,360.254c9.8,7.913,22.1,14.6,34.721,16.078,3.361.4,3.718-4.832.37-5.225-11.717-1.37-23.1-7.876-32.188-15.215-2.623-2.12-5.513,2.254-2.9,4.363Z" transform="translate(-421.968 -355.326)" fill="#fff"/>
                </g>
                <g id="Group_186" data-name="Group 186" transform="translate(8.864)">
                  <path id="Path_419" data-name="Path 419" d="M427.35,356.73c10.588,6.821,23.541,12.153,36.243,12.267,3.385.032,3.178-5.2-.191-5.234-11.794-.108-23.817-5.359-33.63-11.68-2.841-1.828-5.24,2.83-2.421,4.647Z" transform="translate(-426.09 -351.666)" fill="#fff"/>
                </g>
              </g>
              <g id="Group_193" data-name="Group 193" transform="translate(19.549)">
                <g id="Group_188" data-name="Group 188" transform="translate(15.494 35.39)">
                  <path id="Path_420" data-name="Path 420" d="M429.616,353.354c11.564,4.984,25.219,8.117,37.768,6.146,3.344-.527,2.279-5.655-1.049-5.133-11.652,1.832-24.373-1.372-35.095-5.995-3.1-1.338-4.7,3.653-1.623,4.982Z" transform="translate(-427.96 -348.146)" fill="#fff"/>
                </g>
                <g id="Group_189" data-name="Group 189" transform="translate(19.167 18.182)">
                  <path id="Path_421" data-name="Path 421" d="M433.124,362.172c12.246-2.944,25.049-8.627,33.908-17.733,2.359-2.426-1.57-5.894-3.918-3.475-8.225,8.453-20.326,13.519-31.678,16.252-3.281.785-1.572,5.739,1.688,4.956Z" transform="translate(-429.668 -340.144)" fill="#fff"/>
                </g>
                <g id="Group_190" data-name="Group 190" transform="translate(19.335 1.032)">
                  <path id="Path_422" data-name="Path 422" d="M434.8,370.766c6.909-10.53,12.351-23.438,12.575-36.138.06-3.385-5.176-3.223-5.234.146-.211,11.794-5.563,23.769-11.971,33.532-1.851,2.821,2.789,5.264,4.63,2.46Z" transform="translate(-429.746 -332.168)" fill="#fff"/>
                </g>
                <g id="Group_191" data-name="Group 191" transform="translate(12.504)">
                  <path id="Path_423" data-name="Path 423" d="M431.835,371.632c3.137-12.2,4.116-26.169.224-38.262-1.039-3.221-5.943-1.374-4.909,1.832,3.615,11.229,2.421,24.292-.488,35.6-.841,3.268,4.337,4.079,5.174.83Z" transform="translate(-426.569 -331.688)" fill="#fff"/>
                </g>
                <g id="Group_192" data-name="Group 192" transform="translate(0 5.184)">
                  <path id="Path_424" data-name="Path 424" d="M426.018,374.043c3.137-12.2,4.116-26.171.224-38.262-1.036-3.221-5.941-1.376-4.907,1.832,3.615,11.229,2.419,24.29-.488,35.6-.841,3.268,4.337,4.081,5.171.83Z" transform="translate(-420.754 -334.099)" fill="#fff"/>
                </g>
              </g>
            </g>
          </g>
        </g>
      </g>
      <path id="Path_426" data-name="Path 426" d="M447.511,339.034c-8.292-1.389-16.77,4.236-21.37,10.809a5.1,5.1,0,0,0-.269,5.531c9.257-13.435,22.051-15.888,29.62-7.618,7.982,8.721,3.187,21.853-3.939,30.128-5.047,5.862-22.578,24.021-32.282,34.1a4.572,4.572,0,0,0,5.814-.892c12.368-13.2,10-9.81,22.079-23.283,6.87-7.668,15.652-17.136,16.966-27.842C465.367,349.893,457.318,340.674,447.511,339.034Z" transform="translate(-416.564 -338.821)" fill="#101412" opacity="0.1"/>
    </g>
    <g id="Group_202" data-name="Group 202" transform="translate(838.263 625.932)">
      <path id="Path_427" data-name="Path 427" d="M656.251,368.511c-4.174-1.742-9.446.419-13.353,1.907l-.067.028a24.643,24.643,0,0,0,1.939-2.765c2.477-4.189,5.277-12.454-1.088-14.622-5.326-1.815-11.149,1.905-14.261,5.991a23.284,23.284,0,0,0-4.189,9.921,34.741,34.741,0,0,0-5.513-10.141c-3.391-4.268-10.171-8.064-14.36-2.531-3.823,5.051-1.09,11.272,2.955,15.166.329.318.686.619,1.03.929-2.761-.645-5.808-.927-7.965.942-2.95,2.557-1.286,6.61,1.337,8.664,3.64,2.849,8.8,3.4,13.259,3.249,5.208-.178,10.345-1.206,15.557-1.38,5.1-.17,10.229.064,15.276-.824,4.2-.742,9.246-2.432,11.65-6.242C660.352,373.807,659.685,369.943,656.251,368.511ZM630.162,363.6c2.054-3.965,6.247-8.092,11.051-7.935,7.089.228,1.4,10.642-.907,13.418a32.1,32.1,0,0,1-5.548,5.133,63.778,63.778,0,0,0-6.464,4.167c-.282-.006-.555-.047-.835-.067C627.586,373.291,627.8,368.145,630.162,363.6Zm-23.255-5.266c3.75-6.666,10.693,1.112,12.992,4.821a31.923,31.923,0,0,1,4.733,14.742c-.14-.032-.284-.052-.422-.086q-3.193-1.574-6.53-2.817a53.374,53.374,0,0,1-4.991-3.41C608.812,368.633,603.967,363.554,606.906,358.329Zm-.89,21.9c-2.105-1.125-4.815-4.548-.828-5.163,2-.31,4.236.454,6.143.959a58.043,58.043,0,0,1,6.445,2.139,27.821,27.821,0,0,0,2.681,1.138c1.447.649,2.877,1.337,4.281,2.086-1.542.15-3.083.305-4.634.449C615.419,382.268,610.3,382.515,606.016,380.227Zm48.485-3.389a16.151,16.151,0,0,1-6.337,2.873c-4.675,1.191-9.575,1.017-14.359,1.077-1.355.017-2.7.086-4.045.174,2.1-1.29,4.2-2.632,6.195-4.1,1.507-.849,3.043-1.656,4.628-2.367,3.716-1.671,8.81-4.081,13.009-3.645C657.449,371.257,656.971,374.789,654.5,376.839Z" transform="translate(-569.073 -352.586)" fill="#ffb510"/>
      <g id="Group_201" data-name="Group 201" transform="translate(2.366 31.456)">
        <g id="Group_200" data-name="Group 200">
          <g id="Group_199" data-name="Group 199">
            <rect id="Rectangle_15" data-name="Rectangle 15" width="112.868" height="110.682" fill="#398d3b"/>
            <rect id="Rectangle_16" data-name="Rectangle 16" width="72.442" height="110.682" transform="translate(40.426)" fill="#246926"/>
          </g>
        </g>
        <rect id="Rectangle_17" data-name="Rectangle 17" width="9.261" height="110.682" transform="translate(14.8)" fill="#ffb510"/>
        <rect id="Rectangle_18" data-name="Rectangle 18" width="9.259" height="110.682" transform="translate(71.955)" fill="#ffb510"/>
      </g>
      <rect id="Rectangle_19" data-name="Rectangle 19" width="117.902" height="18.572" transform="translate(0 29.649)" fill="#40c140"/>
    </g>
  </g>
</svg>
